<svg width="249" height="28" viewBox="0 0 249 28" fill="none" xmlns="http://www.w3.org/2000/svg">
<path fill-rule="evenodd" clip-rule="evenodd" d="M14 28C21.732 28 28 21.732 28 14C28 6.26801 21.732 0 14 0C6.26801 0 0 6.26801 0 14C0 19.3941 3.05064 24.0758 7.52076 26.4137L7.52941 26.25L7.20558 20.125H10.8945C10.8945 20.125 10.5394 22.9263 10.5394 26.25C10.5394 26.7029 10.5463 27.1461 10.5583 27.5738C11.6594 27.8521 12.8124 28 14 28ZM15.1885 9.25588C13.7234 10.1018 12.9503 11.5127 12.6491 12.1837L10.546 13.9023C10.5417 13.6472 10.5394 13.3878 10.5394 13.125C10.5394 9.80132 10.9115 7.00001 10.9115 7.00001H7.20558C7.20558 7.00001 7.52941 9.80132 7.52941 13.125C7.52941 16.4487 7.20558 19.25 7.20558 19.25H10.9115C10.9115 19.25 10.6345 17.1644 10.5585 14.4571L10.9005 14.1776C11.2038 14.5882 12.0204 15.5032 13.4891 15.8751C15.4104 16.3616 18.9278 16.04 18.9278 16.04C18.9278 16.04 15.9395 14.2717 14.0182 13.7853C12.9116 13.5051 11.9996 13.6098 11.4252 13.7489L12.8526 12.5824C13.5371 12.6035 15.1067 12.5509 16.6487 11.785C18.7001 10.7659 22.7269 6.65419 22.7269 6.65419C22.7269 6.65419 17.1622 8.11635 15.1885 9.25588Z" fill="#FF504D"/>
<path fill-rule="evenodd" clip-rule="evenodd" d="M52.7904 19.0106L52.7894 19.0094C52.025 18.0484 51.649 16.7136 51.649 15.0174C51.649 14.1806 51.7678 13.4244 52.007 12.7501L52.0076 12.7485C52.2598 12.0771 52.5901 11.5078 52.9998 11.0424C53.4085 10.5781 53.8747 10.2182 54.3984 9.96386L54.3993 9.96343C54.9367 9.70931 55.4897 9.58166 56.0576 9.58166C56.6486 9.58166 57.1549 9.68688 57.5726 9.90223C57.9242 10.0718 58.2745 10.2979 58.6235 10.5796L58.5517 9.16379V6.24323H61.1295V20.1841H58.9798L58.8191 19.1217C58.4532 19.4745 58.0313 19.7765 57.5538 20.0281C57.0426 20.2974 56.502 20.4324 55.9332 20.4324C54.6215 20.4324 53.5704 19.9591 52.7904 19.0106ZM57.5587 11.922L57.5575 11.9216C57.2364 11.8014 56.9094 11.7415 56.5758 11.7415C55.9458 11.7415 55.413 12.0146 54.973 12.5736C54.5354 13.1296 54.3097 13.9328 54.3097 14.9967C54.3097 16.0907 54.5018 16.9096 54.873 17.4662C55.254 18.0032 55.7965 18.2726 56.5136 18.2726C57.2284 18.2726 57.9075 17.9214 58.5517 17.1949V12.5369C58.2105 12.2409 57.8794 12.0373 57.5587 11.922ZM34 9.82997H36.1547L36.3117 11.5348C36.6607 10.9331 37.0782 10.4659 37.5659 10.1368C38.0906 9.76884 38.6346 9.58166 39.1963 9.58166H40.2468V11.907H39.2775C38.661 11.907 38.1778 11.9851 37.6774 12.3441L37.6758 12.3453C37.2588 12.6314 36.8906 13.1441 36.5778 13.8985V20.1841H34V9.82997ZM62.9421 20.1841V18.774L67.6637 11.907H62.9421V9.82997H70.9301V11.2193L66.2287 18.0864H70.9301V20.1841H62.9421ZM82.6344 20.1841V9.82997H84.7866L84.9481 11.1597C85.3904 10.7402 85.8647 10.3775 86.371 10.0716L86.3719 10.071C86.9276 9.74386 87.5669 9.58166 88.2867 9.58166C89.4003 9.58166 90.2289 9.94173 90.7494 10.6775C91.2635 11.3904 91.5138 12.4068 91.5138 13.7137V20.1841H88.936V14.0241C88.936 13.1863 88.811 12.6199 88.5812 12.3013C88.3564 11.9897 87.9836 11.8243 87.4369 11.8243C87.0116 11.8243 86.6362 11.9301 86.3075 12.1401L86.3067 12.1406C85.9905 12.3379 85.6258 12.6338 85.2122 13.0308V20.1841H82.6344ZM42.2475 19.5982L42.2466 19.5973C41.6686 19.0246 41.3825 18.2742 41.3825 17.3557C41.3825 16.804 41.4968 16.3118 41.7282 15.8819L41.7288 15.8809C41.9748 15.4365 42.3495 15.0595 42.8484 14.7488L42.8495 14.7482C43.3604 14.4388 43.9958 14.1806 44.7537 13.972L44.7541 13.9719C45.5037 13.7694 46.39 13.6132 47.4125 13.503C47.3948 13.2818 47.3563 13.0716 47.2971 12.8723L47.2962 12.8691L47.2955 12.8659C47.2429 12.6317 47.1452 12.4326 47.0031 12.2662L47.0005 12.2632L46.9981 12.2599C46.8703 12.0826 46.6974 11.9487 46.4763 11.8585L46.4741 11.8576L46.4719 11.8566C46.2516 11.7538 45.9741 11.7001 45.6357 11.7001C45.1474 11.7001 44.6654 11.7941 44.189 11.9828C43.7206 12.1739 43.2587 12.4061 42.8034 12.6795L42.7171 12.7314L41.7472 10.9696L41.8247 10.9209C42.4019 10.5582 43.0485 10.245 43.7642 9.98082C44.4859 9.71441 45.2632 9.58166 46.0952 9.58166C47.3953 9.58166 48.3805 9.96736 49.0307 10.7543C49.6914 11.5232 50.0143 12.632 50.0143 14.0655V20.1841H47.8496L47.6864 19.0927C47.2378 19.4624 46.7567 19.7745 46.2432 20.0289C45.7137 20.2983 45.1347 20.4324 44.5079 20.4324C43.5823 20.4324 42.8256 20.1566 42.2475 19.5982ZM46.3614 18.0986C46.6918 17.9153 47.0442 17.654 47.4184 17.313V15.189C46.7733 15.2698 46.2302 15.3749 45.7882 15.5037C45.3198 15.6402 44.9456 15.7959 44.663 15.9692L44.6616 15.9701L44.6601 15.9709C44.3782 16.1305 44.1844 16.3125 44.0701 16.5138C43.9529 16.7202 43.8948 16.9383 43.8948 17.1694C43.8948 17.6045 44.0268 17.9017 44.2734 18.0848C44.5314 18.2766 44.8647 18.3761 45.2807 18.3761C45.6828 18.3761 46.0417 18.2833 46.3599 18.0994L46.3614 18.0986ZM74.9423 20.0742L74.9405 20.0735C74.3208 19.8204 73.7778 19.4615 73.3125 18.997C72.8465 18.5318 72.4803 17.9687 72.2133 17.3093L72.2123 17.307C71.9588 16.6321 71.833 15.8684 71.833 15.0174C71.833 14.1794 71.966 13.4221 72.2337 12.7468C72.5002 12.0748 72.8518 11.5053 73.2897 11.04L73.2907 11.0389C73.7415 10.5749 74.2562 10.2158 74.8346 9.96228C75.4129 9.70882 76.0066 9.58166 76.6147 9.58166C77.3166 9.58166 77.9386 9.70077 78.4784 9.94185C79.0166 10.1822 79.4642 10.5222 79.8196 10.962C80.188 11.4006 80.4631 11.9228 80.646 12.5268C80.8288 13.1303 80.9197 13.7883 80.9197 14.5001C80.9197 14.7372 80.8811 15.1719 80.8811 15.1719C80.8811 15.1719 80.8427 15.5496 80.8137 15.6799L80.7968 15.7559H74.3623C74.4822 16.5962 74.7874 17.2404 75.2709 17.6981C75.7893 18.1621 76.4488 18.3968 77.2573 18.3968C77.69 18.3968 78.0869 18.3361 78.4487 18.2158C78.8282 18.0804 79.2015 17.8975 79.5688 17.6667L79.6563 17.6117L80.5566 19.2709L80.482 19.3198C79.9912 19.6418 79.4449 19.9073 78.8439 20.1166C78.2391 20.3273 77.6064 20.4324 76.9464 20.4324C76.2307 20.4324 75.5623 20.3133 74.9423 20.0742ZM78.1542 12.2617L78.1532 12.2603C77.8443 11.8364 77.3594 11.6173 76.6769 11.6173C76.0943 11.6173 75.5858 11.8212 75.1472 12.2326C74.732 12.6219 74.4612 13.19 74.343 13.9478H78.6519C78.6381 13.2221 78.469 12.664 78.1552 12.263L78.1542 12.2617Z" fill="#050A23"/>
<path d="M101.553 20.2222V7.40833H105.014C106.31 7.40833 107.341 7.66111 108.106 8.16666C108.87 8.65925 109.253 9.4435 109.253 10.5194C109.253 11.1935 109.084 11.7833 108.747 12.2889C108.41 12.7815 107.918 13.125 107.269 13.3194V13.3972C108.099 13.5398 108.767 13.8704 109.272 14.3889C109.778 14.8944 110.031 15.5944 110.031 16.4889C110.031 17.1111 109.914 17.6555 109.681 18.1222C109.46 18.5889 109.143 18.9778 108.728 19.2889C108.313 19.6 107.814 19.8333 107.231 19.9889C106.647 20.1444 105.993 20.2222 105.267 20.2222H101.553ZM102.447 13.0472H104.664C105.973 13.0472 106.913 12.8333 107.483 12.4056C108.067 11.9648 108.358 11.3685 108.358 10.6167C108.358 9.70925 108.054 9.07407 107.444 8.71111C106.835 8.33518 105.941 8.14721 104.761 8.14721H102.447V13.0472ZM102.447 19.4833H105.033C106.317 19.4833 107.321 19.2435 108.047 18.7639C108.786 18.2843 109.156 17.5324 109.156 16.5083C109.156 15.575 108.799 14.888 108.086 14.4472C107.373 14.0065 106.356 13.7861 105.033 13.7861H102.447V19.4833Z" fill="#050A23"/>
<path d="M113.455 20.4555C112.69 20.4555 112.308 19.963 112.308 18.9778V6.24164H113.163V19.0944C113.163 19.3018 113.202 19.4574 113.28 19.5611C113.358 19.6518 113.455 19.6972 113.572 19.6972C113.611 19.6972 113.65 19.6972 113.688 19.6972C113.74 19.6972 113.818 19.6843 113.922 19.6583L114.077 20.3583C113.987 20.3843 113.896 20.4037 113.805 20.4167C113.714 20.4426 113.598 20.4555 113.455 20.4555Z" fill="#050A23"/>
<path d="M118.575 20.4555C118.199 20.4555 117.849 20.4037 117.525 20.3C117.201 20.1963 116.916 20.0407 116.669 19.8333C116.423 19.6259 116.229 19.3602 116.086 19.0361C115.943 18.712 115.872 18.3296 115.872 17.8889C115.872 16.8518 116.352 16.0676 117.311 15.5361C118.283 14.9917 119.813 14.6028 121.9 14.3694C121.9 14.0194 121.874 13.6694 121.822 13.3194C121.77 12.9565 121.66 12.6389 121.492 12.3667C121.323 12.0815 121.096 11.8546 120.811 11.6861C120.526 11.5046 120.15 11.4139 119.683 11.4139C119.061 11.4139 118.491 11.537 117.972 11.7833C117.454 12.0296 117.032 12.2694 116.708 12.5028L116.319 11.8611C116.488 11.7444 116.689 11.6148 116.922 11.4722C117.168 11.3296 117.441 11.2 117.739 11.0833C118.037 10.9667 118.361 10.8694 118.711 10.7917C119.061 10.7009 119.424 10.6556 119.8 10.6556C120.344 10.6556 120.805 10.7528 121.181 10.9472C121.556 11.1287 121.861 11.3815 122.094 11.7056C122.328 12.0296 122.496 12.412 122.6 12.8528C122.704 13.2806 122.756 13.7472 122.756 14.2528V20.2222H122.017L121.939 19.0167H121.881C121.401 19.3926 120.882 19.7296 120.325 20.0278C119.781 20.313 119.197 20.4555 118.575 20.4555ZM118.731 19.7167C119.275 19.7167 119.793 19.587 120.286 19.3278C120.779 19.0685 121.317 18.6926 121.9 18.2V15.0306C120.941 15.1472 120.131 15.2898 119.469 15.4583C118.808 15.6268 118.277 15.8278 117.875 16.0611C117.473 16.2944 117.181 16.5602 117 16.8583C116.831 17.1565 116.747 17.487 116.747 17.85C116.747 18.187 116.799 18.4722 116.903 18.7055C117.006 18.9389 117.149 19.1333 117.331 19.2889C117.512 19.4315 117.719 19.5417 117.953 19.6194C118.199 19.6843 118.458 19.7167 118.731 19.7167Z" fill="#050A23"/>
<path d="M124.432 20.2222V19.7555L129.954 11.6278H125.035V10.8889H131.062V11.3361L125.56 19.4639H131.257V20.2222H124.432Z" fill="#050A23"/>
<path d="M136.381 20.4555C135.824 20.4555 135.292 20.3454 134.787 20.125C134.281 19.9046 133.834 19.587 133.445 19.1722C133.069 18.7574 132.764 18.2518 132.531 17.6556C132.311 17.0463 132.201 16.3528 132.201 15.575C132.201 14.7972 132.311 14.1037 132.531 13.4944C132.764 12.8722 133.069 12.3537 133.445 11.9389C133.834 11.5241 134.281 11.2065 134.787 10.9861C135.292 10.7657 135.824 10.6556 136.381 10.6556C136.938 10.6556 137.47 10.7657 137.976 10.9861C138.494 11.2065 138.941 11.5241 139.317 11.9389C139.706 12.3537 140.011 12.8722 140.231 13.4944C140.464 14.1037 140.581 14.7972 140.581 15.575C140.581 16.3528 140.464 17.0463 140.231 17.6556C140.011 18.2518 139.706 18.7574 139.317 19.1722C138.941 19.587 138.494 19.9046 137.976 20.125C137.47 20.3454 136.938 20.4555 136.381 20.4555ZM136.381 19.6972C136.848 19.6972 137.282 19.6 137.684 19.4056C138.099 19.1981 138.449 18.913 138.734 18.55C139.032 18.187 139.265 17.7528 139.434 17.2472C139.602 16.7417 139.687 16.1843 139.687 15.575C139.687 14.9528 139.602 14.3889 139.434 13.8833C139.265 13.3778 139.032 12.9435 138.734 12.5806C138.449 12.2046 138.099 11.9194 137.684 11.725C137.282 11.5176 136.848 11.4139 136.381 11.4139C135.914 11.4139 135.48 11.5176 135.078 11.725C134.676 11.9194 134.326 12.2046 134.028 12.5806C133.743 12.9435 133.516 13.3778 133.348 13.8833C133.179 14.3889 133.095 14.9528 133.095 15.575C133.095 16.1843 133.179 16.7417 133.348 17.2472C133.516 17.7528 133.743 18.187 134.028 18.55C134.326 18.913 134.676 19.1981 135.078 19.4056C135.48 19.6 135.914 19.6972 136.381 19.6972Z" fill="#050A23"/>
<path d="M142.995 20.2222V10.8889H143.734L143.812 12.6194H143.87C144.181 12.0361 144.557 11.563 144.998 11.2C145.452 10.837 145.957 10.6556 146.515 10.6556C146.696 10.6556 146.858 10.6685 147.001 10.6944C147.143 10.7204 147.292 10.7722 147.448 10.85L147.254 11.6278C147.098 11.563 146.962 11.5241 146.845 11.5111C146.729 11.4852 146.579 11.4722 146.398 11.4722C145.983 11.4722 145.542 11.6537 145.076 12.0167C144.622 12.3667 144.214 12.9824 143.851 13.8639V20.2222H142.995Z" fill="#050A23"/>
<path d="M156.929 20.4555C156.138 20.4555 155.412 20.3 154.751 19.9889C154.09 19.6778 153.519 19.237 153.04 18.6667C152.573 18.0833 152.21 17.3833 151.951 16.5667C151.692 15.737 151.562 14.8102 151.562 13.7861C151.562 12.775 151.692 11.8611 151.951 11.0444C152.223 10.2278 152.599 9.53424 153.079 8.96387C153.558 8.38054 154.129 7.9398 154.79 7.64165C155.464 7.33054 156.209 7.17499 157.026 7.17499C157.778 7.17499 158.439 7.33054 159.009 7.64165C159.58 7.95276 160.033 8.30924 160.37 8.7111L159.845 9.31387C159.495 8.91202 159.087 8.59443 158.62 8.3611C158.154 8.1148 157.629 7.99165 157.045 7.99165C156.345 7.99165 155.71 8.12776 155.14 8.39998C154.582 8.67221 154.103 9.0611 153.701 9.56665C153.312 10.0593 153.014 10.662 152.806 11.375C152.599 12.088 152.495 12.8917 152.495 13.7861C152.495 14.6806 152.599 15.4907 152.806 16.2167C153.014 16.9296 153.312 17.5389 153.701 18.0444C154.09 18.55 154.556 18.9454 155.101 19.2305C155.658 19.5028 156.281 19.6389 156.968 19.6389C157.629 19.6389 158.218 19.5093 158.737 19.25C159.256 18.9778 159.748 18.5824 160.215 18.0639L160.74 18.6278C160.247 19.1981 159.696 19.6454 159.087 19.9694C158.478 20.2935 157.758 20.4555 156.929 20.4555Z" fill="#050A23"/>
<path d="M166.271 20.4555C165.713 20.4555 165.182 20.3454 164.676 20.125C164.171 19.9046 163.724 19.587 163.335 19.1722C162.959 18.7574 162.654 18.2518 162.421 17.6556C162.2 17.0463 162.09 16.3528 162.09 15.575C162.09 14.7972 162.2 14.1037 162.421 13.4944C162.654 12.8722 162.959 12.3537 163.335 11.9389C163.724 11.5241 164.171 11.2065 164.676 10.9861C165.182 10.7657 165.713 10.6556 166.271 10.6556C166.828 10.6556 167.36 10.7657 167.865 10.9861C168.384 11.2065 168.831 11.5241 169.207 11.9389C169.596 12.3537 169.9 12.8722 170.121 13.4944C170.354 14.1037 170.471 14.7972 170.471 15.575C170.471 16.3528 170.354 17.0463 170.121 17.6556C169.9 18.2518 169.596 18.7574 169.207 19.1722C168.831 19.587 168.384 19.9046 167.865 20.125C167.36 20.3454 166.828 20.4555 166.271 20.4555ZM166.271 19.6972C166.737 19.6972 167.172 19.6 167.574 19.4056C167.988 19.1981 168.338 18.913 168.624 18.55C168.922 18.187 169.155 17.7528 169.324 17.2472C169.492 16.7417 169.576 16.1843 169.576 15.575C169.576 14.9528 169.492 14.3889 169.324 13.8833C169.155 13.3778 168.922 12.9435 168.624 12.5806C168.338 12.2046 167.988 11.9194 167.574 11.725C167.172 11.5176 166.737 11.4139 166.271 11.4139C165.804 11.4139 165.37 11.5176 164.968 11.725C164.566 11.9194 164.216 12.2046 163.918 12.5806C163.633 12.9435 163.406 13.3778 163.237 13.8833C163.069 14.3889 162.985 14.9528 162.985 15.575C162.985 16.1843 163.069 16.7417 163.237 17.2472C163.406 17.7528 163.633 18.187 163.918 18.55C164.216 18.913 164.566 19.1981 164.968 19.4056C165.37 19.6 165.804 19.6972 166.271 19.6972Z" fill="#050A23"/>
<path d="M172.885 20.2222V10.8889H173.624L173.702 12.3278H173.76C174.175 11.8481 174.635 11.4528 175.141 11.1417C175.659 10.8176 176.178 10.6556 176.696 10.6556C177.448 10.6556 178.025 10.8306 178.427 11.1806C178.828 11.5176 179.114 11.9778 179.282 12.5611C179.827 11.9778 180.352 11.5176 180.857 11.1806C181.376 10.8306 181.907 10.6556 182.452 10.6556C184.318 10.6556 185.252 11.8481 185.252 14.2333V20.2222H184.377V14.35C184.377 13.3518 184.208 12.6194 183.871 12.1528C183.534 11.6731 183.009 11.4333 182.296 11.4333C181.453 11.4333 180.52 12.0167 179.496 13.1833V20.2222H178.641V14.35C178.641 13.3518 178.472 12.6194 178.135 12.1528C177.798 11.6731 177.266 11.4333 176.541 11.4333C175.698 11.4333 174.765 12.0167 173.741 13.1833V20.2222H172.885Z" fill="#050A23"/>
<path d="M188.276 24.4417V10.8889H189.015L189.092 12.0556H189.151C189.604 11.6926 190.097 11.3685 190.628 11.0833C191.173 10.7981 191.737 10.6556 192.32 10.6556C193.565 10.6556 194.498 11.0898 195.12 11.9583C195.742 12.8139 196.053 13.9676 196.053 15.4194C196.053 16.2102 195.943 16.9167 195.723 17.5389C195.503 18.1611 195.198 18.6926 194.809 19.1333C194.433 19.5611 193.992 19.8917 193.487 20.125C192.994 20.3454 192.476 20.4555 191.931 20.4555C191.491 20.4555 191.037 20.3583 190.57 20.1639C190.103 19.9565 189.624 19.6713 189.131 19.3083V24.4417H188.276ZM191.892 19.6972C192.359 19.6972 192.793 19.5935 193.195 19.3861C193.597 19.1787 193.941 18.887 194.226 18.5111C194.511 18.1352 194.731 17.688 194.887 17.1694C195.055 16.638 195.14 16.0546 195.14 15.4194C195.14 14.8491 195.081 14.3176 194.965 13.825C194.861 13.3324 194.692 12.9111 194.459 12.5611C194.226 12.1981 193.921 11.9194 193.545 11.725C193.169 11.5176 192.716 11.4139 192.184 11.4139C191.717 11.4139 191.231 11.55 190.726 11.8222C190.233 12.0815 189.702 12.4574 189.131 12.95V18.4917C189.676 18.9324 190.181 19.2435 190.648 19.425C191.115 19.6065 191.529 19.6972 191.892 19.6972Z" fill="#050A23"/>
<path d="M201.866 20.4555C201.309 20.4555 200.777 20.3454 200.272 20.125C199.766 19.9046 199.319 19.587 198.93 19.1722C198.554 18.7574 198.25 18.2518 198.016 17.6556C197.796 17.0463 197.686 16.3528 197.686 15.575C197.686 14.7972 197.796 14.1037 198.016 13.4944C198.25 12.8722 198.554 12.3537 198.93 11.9389C199.319 11.5241 199.766 11.2065 200.272 10.9861C200.777 10.7657 201.309 10.6556 201.866 10.6556C202.424 10.6556 202.955 10.7657 203.461 10.9861C203.979 11.2065 204.426 11.5241 204.802 11.9389C205.191 12.3537 205.496 12.8722 205.716 13.4944C205.95 14.1037 206.066 14.7972 206.066 15.575C206.066 16.3528 205.95 17.0463 205.716 17.6556C205.496 18.2518 205.191 18.7574 204.802 19.1722C204.426 19.587 203.979 19.9046 203.461 20.125C202.955 20.3454 202.424 20.4555 201.866 20.4555ZM201.866 19.6972C202.333 19.6972 202.767 19.6 203.169 19.4056C203.584 19.1981 203.934 18.913 204.219 18.55C204.517 18.187 204.751 17.7528 204.919 17.2472C205.088 16.7417 205.172 16.1843 205.172 15.575C205.172 14.9528 205.088 14.3889 204.919 13.8833C204.751 13.3778 204.517 12.9435 204.219 12.5806C203.934 12.2046 203.584 11.9194 203.169 11.725C202.767 11.5176 202.333 11.4139 201.866 11.4139C201.4 11.4139 200.965 11.5176 200.564 11.725C200.162 11.9194 199.812 12.2046 199.514 12.5806C199.228 12.9435 199.001 13.3778 198.833 13.8833C198.664 14.3889 198.58 14.9528 198.58 15.575C198.58 16.1843 198.664 16.7417 198.833 17.2472C199.001 17.7528 199.228 18.187 199.514 18.55C199.812 18.913 200.162 19.1981 200.564 19.4056C200.965 19.6 201.4 19.6972 201.866 19.6972Z" fill="#050A23"/>
<path d="M208.48 20.2222V10.8889H209.219L209.297 12.3278H209.355C209.835 11.8481 210.328 11.4528 210.833 11.1417C211.339 10.8176 211.916 10.6556 212.564 10.6556C213.536 10.6556 214.249 10.9472 214.703 11.5306C215.156 12.1139 215.383 13.0148 215.383 14.2333V20.2222H214.528V14.35C214.528 13.3518 214.359 12.6194 214.022 12.1528C213.698 11.6731 213.154 11.4333 212.389 11.4333C211.831 11.4333 211.326 11.5824 210.872 11.8806C210.418 12.1657 209.906 12.6 209.336 13.1833V20.2222H208.48Z" fill="#050A23"/>
<path d="M221.979 20.4555C221.383 20.4555 220.819 20.3454 220.288 20.125C219.769 19.9046 219.315 19.587 218.927 19.1722C218.538 18.7444 218.227 18.2324 217.993 17.6361C217.773 17.0268 217.663 16.3398 217.663 15.575C217.663 14.8102 217.773 14.1231 217.993 13.5139C218.227 12.9046 218.531 12.3926 218.907 11.9778C219.296 11.55 219.73 11.2259 220.21 11.0055C220.702 10.7722 221.208 10.6556 221.727 10.6556C222.841 10.6556 223.716 11.0315 224.352 11.7833C224.987 12.5352 225.304 13.5981 225.304 14.9722C225.304 15.0889 225.304 15.2056 225.304 15.3222C225.304 15.4389 225.291 15.5555 225.265 15.6722H218.538C218.551 16.2555 218.641 16.8 218.81 17.3056C218.978 17.7981 219.212 18.2259 219.51 18.5889C219.821 18.9389 220.19 19.2176 220.618 19.425C221.046 19.6194 221.526 19.7167 222.057 19.7167C222.563 19.7167 223.016 19.6454 223.418 19.5028C223.833 19.3472 224.215 19.1398 224.565 18.8805L224.915 19.5417C224.539 19.762 224.125 19.9694 223.671 20.1639C223.23 20.3583 222.666 20.4555 221.979 20.4555ZM218.538 14.9722H224.488C224.488 13.7667 224.241 12.8722 223.749 12.2889C223.256 11.6926 222.589 11.3944 221.746 11.3944C221.344 11.3944 220.962 11.4787 220.599 11.6472C220.236 11.8028 219.905 12.0361 219.607 12.3472C219.322 12.6583 219.082 13.0343 218.888 13.475C218.706 13.9157 218.589 14.4148 218.538 14.9722Z" fill="#050A23"/>
<path d="M227.451 20.2222V10.8889H228.19L228.268 12.3278H228.326C228.806 11.8481 229.298 11.4528 229.804 11.1417C230.309 10.8176 230.886 10.6556 231.534 10.6556C232.507 10.6556 233.219 10.9472 233.673 11.5306C234.127 12.1139 234.354 13.0148 234.354 14.2333V20.2222H233.498V14.35C233.498 13.3518 233.33 12.6194 232.993 12.1528C232.669 11.6731 232.124 11.4333 231.359 11.4333C230.802 11.4333 230.296 11.5824 229.843 11.8806C229.389 12.1657 228.877 12.6 228.306 13.1833V20.2222H227.451Z" fill="#050A23"/>
<path d="M239.958 20.4555C239.504 20.4555 239.129 20.3843 238.83 20.2417C238.532 20.112 238.292 19.9241 238.111 19.6778C237.929 19.4315 237.8 19.1333 237.722 18.7833C237.657 18.4333 237.625 18.0509 237.625 17.6361V11.6278H236.166V10.9667L237.644 10.8889L237.761 8.1861H238.5V10.8889H241.203V11.6278H238.5V17.7139C238.5 18.012 238.519 18.2843 238.558 18.5306C238.61 18.7639 238.694 18.9713 238.811 19.1528C238.928 19.3213 239.083 19.4574 239.278 19.5611C239.485 19.6518 239.751 19.6972 240.075 19.6972C240.256 19.6972 240.451 19.6713 240.658 19.6194C240.878 19.5546 241.073 19.4833 241.241 19.4056L241.475 20.1055C241.203 20.2093 240.93 20.2935 240.658 20.3583C240.386 20.4231 240.153 20.4555 239.958 20.4555Z" fill="#050A23"/>
<path d="M245.145 20.4555C244.445 20.4555 243.803 20.3324 243.22 20.0861C242.637 19.8268 242.138 19.5222 241.723 19.1722L242.228 18.5306C242.63 18.8676 243.058 19.1528 243.512 19.3861C243.965 19.6065 244.529 19.7167 245.203 19.7167C245.942 19.7167 246.493 19.5352 246.856 19.1722C247.232 18.7963 247.42 18.362 247.42 17.8694C247.42 17.5843 247.349 17.3315 247.206 17.1111C247.077 16.8907 246.902 16.7028 246.681 16.5472C246.461 16.3917 246.215 16.2556 245.942 16.1389C245.683 16.0222 245.417 15.912 245.145 15.8083C244.795 15.6787 244.439 15.5426 244.076 15.4C243.726 15.2574 243.408 15.0889 243.123 14.8944C242.838 14.687 242.604 14.4472 242.423 14.175C242.254 13.8898 242.17 13.5463 242.17 13.1444C242.17 12.8074 242.235 12.4898 242.365 12.1917C242.494 11.8806 242.689 11.6148 242.948 11.3944C243.207 11.1611 243.518 10.9796 243.881 10.85C244.257 10.7204 244.691 10.6556 245.184 10.6556C245.677 10.6556 246.156 10.7463 246.623 10.9278C247.102 11.1093 247.511 11.3426 247.848 11.6278L247.381 12.2306C247.07 11.9972 246.74 11.8028 246.39 11.6472C246.04 11.4787 245.625 11.3944 245.145 11.3944C244.782 11.3944 244.471 11.4463 244.212 11.55C243.952 11.6407 243.732 11.7639 243.551 11.9194C243.382 12.075 243.252 12.2565 243.162 12.4639C243.084 12.6713 243.045 12.8787 243.045 13.0861C243.045 13.3583 243.103 13.5917 243.22 13.7861C243.35 13.9676 243.518 14.1296 243.726 14.2722C243.933 14.4148 244.166 14.5444 244.426 14.6611C244.698 14.7648 244.97 14.8685 245.242 14.9722C245.605 15.1148 245.968 15.2574 246.331 15.4C246.694 15.5426 247.018 15.7176 247.303 15.925C247.602 16.1324 247.841 16.3917 248.023 16.7028C248.204 17.0009 248.295 17.3768 248.295 17.8306C248.295 18.1806 248.224 18.5176 248.081 18.8417C247.952 19.1528 247.751 19.4315 247.478 19.6778C247.206 19.9111 246.876 20.0991 246.487 20.2417C246.098 20.3843 245.651 20.4555 245.145 20.4555Z" fill="#050A23"/>
</svg>
