<?xml version="1.0" standalone="no"?>
<!DOCTYPE svg PUBLIC "-//W3C//DTD SVG 20010904//EN"
 "http://www.w3.org/TR/2001/REC-SVG-20010904/DTD/svg10.dtd">
<svg width="259" height="28" viewBox="0 0 259 28" fill="none" xmlns="http://www.w3.org/2000/svg">
<path fill-rule="evenodd" clip-rule="evenodd" d="M14 28C21.732 28 28 21.732 28 14C28 6.26801 21.732 0 14 0C6.26801 0 0 6.26801 0 14C0 19.3941 3.05064 24.0758 7.52076 26.4137L7.52941 26.25L7.20558 20.125H10.8945C10.8945 20.125 10.5394 22.9263 10.5394 26.25C10.5394 26.7029 10.5463 27.1461 10.5583 27.5738C11.6594 27.8521 12.8124 28 14 28ZM15.1885 9.25588C13.7234 10.1018 12.9503 11.5127 12.6491 12.1837L10.546 13.9023C10.5417 13.6472 10.5394 13.3878 10.5394 13.125C10.5394 9.80132 10.9115 7.00001 10.9115 7.00001H7.20558C7.20558 7.00001 7.52941 9.80132 7.52941 13.125C7.52941 16.4487 7.20558 19.25 7.20558 19.25H10.9115C10.9115 19.25 10.6345 17.1644 10.5585 14.4571L10.9005 14.1776C11.2038 14.5882 12.0204 15.5032 13.4891 15.8751C15.4104 16.3616 18.9278 16.04 18.9278 16.04C18.9278 16.04 15.9395 14.2717 14.0182 13.7853C12.9116 13.5051 11.9996 13.6098 11.4252 13.7489L12.8526 12.5824C13.5371 12.6035 15.1067 12.5509 16.6487 11.785C18.7001 10.7659 22.7269 6.65419 22.7269 6.65419C22.7269 6.65419 17.1622 8.11635 15.1885 9.25588Z" fill="#FF504D"/>
<path fill-rule="evenodd" clip-rule="evenodd" d="M53.7904 19.0106L53.7894 19.0094C53.025 18.0484 52.649 16.7136 52.649 15.0174C52.649 14.1806 52.7678 13.4244 53.007 12.7501L53.0076 12.7485C53.2598 12.0771 53.5901 11.5078 53.9998 11.0424C54.4085 10.5781 54.8747 10.2182 55.3984 9.96388L55.3993 9.96344C55.9367 9.70932 56.4897 9.58167 57.0576 9.58167C57.6486 9.58167 58.1549 9.68689 58.5726 9.90224C58.9242 10.0718 59.2745 10.2979 59.6235 10.5796L59.5517 9.16381V6.24324H62.1295V20.1841H59.9798L59.8191 19.1217C59.4532 19.4745 59.0313 19.7765 58.5538 20.0281C58.0426 20.2974 57.502 20.4324 56.9332 20.4324C55.6215 20.4324 54.5704 19.9591 53.7904 19.0106ZM58.5587 11.922L58.5575 11.9216C58.2364 11.8014 57.9094 11.7415 57.5758 11.7415C56.9458 11.7415 56.413 12.0146 55.973 12.5736C55.5354 13.1296 55.3097 13.9328 55.3097 14.9967C55.3097 16.0907 55.5018 16.9096 55.873 17.4662C56.254 18.0032 56.7965 18.2726 57.5136 18.2726C58.2284 18.2726 58.9075 17.9214 59.5517 17.1949V12.5369C59.2105 12.2409 58.8794 12.0373 58.5587 11.922ZM35 9.82998H37.1547L37.3117 11.5348C37.6607 10.9331 38.0782 10.4659 38.5659 10.1368C39.0906 9.76885 39.6346 9.58167 40.1963 9.58167H41.2468V11.907H40.2775C39.661 11.907 39.1778 11.9851 38.6774 12.3441L38.6758 12.3453C38.2588 12.6314 37.8906 13.1441 37.5778 13.8985V20.1841H35V9.82998ZM63.9421 20.1841V18.774L68.6637 11.907H63.9421V9.82998H71.9301V11.2193L67.2287 18.0864H71.9301V20.1841H63.9421ZM83.6344 20.1841V9.82998H85.7866L85.9481 11.1597C86.3904 10.7402 86.8647 10.3775 87.371 10.0716L87.3719 10.071C87.9276 9.74387 88.5669 9.58167 89.2867 9.58167C90.4003 9.58167 91.2289 9.94174 91.7494 10.6775C92.2635 11.3904 92.5138 12.4068 92.5138 13.7137V20.1841H89.936V14.0241C89.936 13.1863 89.811 12.6199 89.5812 12.3013C89.3564 11.9897 88.9836 11.8243 88.4369 11.8243C88.0116 11.8243 87.6362 11.9301 87.3075 12.1401L87.3067 12.1406C86.9905 12.3379 86.6258 12.6338 86.2122 13.0308V20.1841H83.6344ZM43.2475 19.5982L43.2466 19.5973C42.6686 19.0246 42.3825 18.2742 42.3825 17.3557C42.3825 16.804 42.4968 16.3118 42.7282 15.8819L42.7288 15.8809C42.9748 15.4365 43.3495 15.0595 43.8484 14.7488L43.8495 14.7482C44.3604 14.4388 44.9958 14.1806 45.7537 13.972L45.7541 13.9719C46.5037 13.7694 47.39 13.6132 48.4125 13.503C48.3948 13.2818 48.3563 13.0716 48.2971 12.8723L48.2962 12.8691L48.2955 12.8659C48.2429 12.6317 48.1452 12.4326 48.0031 12.2662L48.0005 12.2632L47.9981 12.2599C47.8703 12.0826 47.6974 11.9487 47.4763 11.8585L47.4741 11.8576L47.4719 11.8566C47.2516 11.7538 46.9741 11.7001 46.6357 11.7001C46.1474 11.7001 45.6654 11.7941 45.189 11.9828C44.7206 12.1739 44.2587 12.4061 43.8034 12.6795L43.7171 12.7314L42.7472 10.9696L42.8247 10.9209C43.4019 10.5582 44.0485 10.245 44.7642 9.98084C45.4859 9.71443 46.2632 9.58167 47.0952 9.58167C48.3953 9.58167 49.3805 9.96737 50.0307 10.7543C50.6914 11.5232 51.0143 12.632 51.0143 14.0655V20.1841H48.8496L48.6864 19.0927C48.2378 19.4624 47.7567 19.7745 47.2432 20.0289C46.7137 20.2983 46.1347 20.4324 45.5079 20.4324C44.5823 20.4324 43.8256 20.1566 43.2475 19.5982ZM47.3614 18.0986C47.6918 17.9153 48.0442 17.654 48.4184 17.313V15.189C47.7733 15.2698 47.2302 15.3749 46.7882 15.5037C46.3198 15.6402 45.9456 15.7959 45.663 15.9692L45.6616 15.9701L45.6601 15.9709C45.3782 16.1305 45.1844 16.3125 45.0701 16.5138C44.9529 16.7202 44.8948 16.9383 44.8948 17.1694C44.8948 17.6045 45.0268 17.9017 45.2734 18.0848C45.5314 18.2766 45.8647 18.3761 46.2807 18.3761C46.6828 18.3761 47.0417 18.2833 47.3599 18.0994L47.3614 18.0986ZM75.9423 20.0742L75.9405 20.0735C75.3208 19.8204 74.7778 19.4615 74.3125 18.997C73.8465 18.5318 73.4803 17.9687 73.2133 17.3093L73.2123 17.307C72.9588 16.6321 72.833 15.8684 72.833 15.0174C72.833 14.1794 72.966 13.4221 73.2337 12.7468C73.5002 12.0748 73.8518 11.5053 74.2897 11.04L74.2907 11.0389C74.7415 10.5749 75.2562 10.2158 75.8346 9.96229C76.4129 9.70883 77.0066 9.58167 77.6147 9.58167C78.3166 9.58167 78.9386 9.70079 79.4784 9.94187C80.0166 10.1822 80.4642 10.5222 80.8196 10.962C81.188 11.4006 81.4631 11.9228 81.646 12.5268C81.8288 13.1303 81.9197 13.7883 81.9197 14.5001C81.9197 14.7372 81.8811 15.1719 81.8811 15.1719C81.8811 15.1719 81.8427 15.5496 81.8137 15.6799L81.7968 15.7559H75.3623C75.4822 16.5962 75.7874 17.2404 76.2709 17.6981C76.7893 18.1621 77.4488 18.3968 78.2573 18.3968C78.69 18.3968 79.0869 18.3361 79.4487 18.2158C79.8282 18.0804 80.2015 17.8975 80.5688 17.6667L80.6563 17.6117L81.5566 19.2709L81.482 19.3198C80.9912 19.6418 80.4449 19.9073 79.8439 20.1166C79.2391 20.3273 78.6064 20.4324 77.9464 20.4324C77.2307 20.4324 76.5623 20.3133 75.9423 20.0742ZM79.1542 12.2617L79.1532 12.2603C78.8443 11.8364 78.3594 11.6173 77.6769 11.6173C77.0943 11.6173 76.5858 11.8212 76.1472 12.2326C75.732 12.6219 75.4612 13.19 75.343 13.9478H79.6519C79.6381 13.2221 79.469 12.664 79.1552 12.263L79.1542 12.2617Z" fill="#050A23"/>
<path d="M111.553 20.2222V7.40833H115.014C116.31 7.40833 117.341 7.66111 118.106 8.16666C118.87 8.65925 119.253 9.44351 119.253 10.5194C119.253 11.1935 119.084 11.7833 118.747 12.2889C118.41 12.7815 117.918 13.125 117.269 13.3194V13.3972C118.099 13.5398 118.767 13.8704 119.272 14.3889C119.778 14.8944 120.031 15.5944 120.031 16.4889C120.031 17.1111 119.914 17.6555 119.681 18.1222C119.46 18.5889 119.143 18.9778 118.728 19.2889C118.313 19.6 117.814 19.8333 117.231 19.9889C116.647 20.1444 115.993 20.2222 115.267 20.2222H111.553ZM112.447 13.0472H114.664C115.973 13.0472 116.913 12.8333 117.483 12.4056C118.067 11.9648 118.358 11.3685 118.358 10.6167C118.358 9.70925 118.054 9.07407 117.444 8.71111C116.835 8.33518 115.941 8.14722 114.761 8.14722H112.447V13.0472ZM112.447 19.4833H115.033C116.317 19.4833 117.321 19.2435 118.047 18.7639C118.786 18.2843 119.156 17.5324 119.156 16.5083C119.156 15.575 118.799 14.888 118.086 14.4472C117.373 14.0065 116.356 13.7861 115.033 13.7861H112.447V19.4833Z" fill="#050A23"/>
<path d="M123.455 20.4555C122.69 20.4555 122.308 19.963 122.308 18.9778V6.24166H123.163V19.0944C123.163 19.3018 123.202 19.4574 123.28 19.5611C123.358 19.6518 123.455 19.6972 123.572 19.6972C123.611 19.6972 123.65 19.6972 123.688 19.6972C123.74 19.6972 123.818 19.6843 123.922 19.6583L124.077 20.3583C123.987 20.3843 123.896 20.4037 123.805 20.4167C123.714 20.4426 123.598 20.4555 123.455 20.4555Z" fill="#050A23"/>
<path d="M128.575 20.4555C128.199 20.4555 127.849 20.4037 127.525 20.3C127.201 20.1963 126.916 20.0407 126.669 19.8333C126.423 19.6259 126.229 19.3602 126.086 19.0361C125.943 18.712 125.872 18.3296 125.872 17.8889C125.872 16.8518 126.352 16.0676 127.311 15.5361C128.283 14.9917 129.813 14.6028 131.9 14.3694C131.9 14.0194 131.874 13.6694 131.822 13.3194C131.77 12.9565 131.66 12.6389 131.492 12.3667C131.323 12.0815 131.096 11.8546 130.811 11.6861C130.526 11.5046 130.15 11.4139 129.683 11.4139C129.061 11.4139 128.491 11.537 127.972 11.7833C127.454 12.0296 127.032 12.2694 126.708 12.5028L126.319 11.8611C126.488 11.7444 126.689 11.6148 126.922 11.4722C127.168 11.3296 127.441 11.2 127.739 11.0833C128.037 10.9667 128.361 10.8694 128.711 10.7917C129.061 10.7009 129.424 10.6556 129.8 10.6556C130.344 10.6556 130.805 10.7528 131.181 10.9472C131.556 11.1287 131.861 11.3815 132.094 11.7056C132.328 12.0296 132.496 12.412 132.6 12.8528C132.704 13.2806 132.756 13.7472 132.756 14.2528V20.2222H132.017L131.939 19.0167H131.881C131.401 19.3926 130.882 19.7296 130.325 20.0278C129.781 20.313 129.197 20.4555 128.575 20.4555ZM128.731 19.7167C129.275 19.7167 129.793 19.587 130.286 19.3278C130.779 19.0685 131.317 18.6926 131.9 18.2V15.0306C130.941 15.1472 130.131 15.2898 129.469 15.4583C128.808 15.6268 128.277 15.8278 127.875 16.0611C127.473 16.2944 127.181 16.5602 127 16.8583C126.831 17.1565 126.747 17.487 126.747 17.85C126.747 18.187 126.799 18.4722 126.903 18.7055C127.006 18.9389 127.149 19.1333 127.331 19.2889C127.512 19.4315 127.719 19.5417 127.953 19.6194C128.199 19.6843 128.458 19.7167 128.731 19.7167Z" fill="#050A23"/>
<path d="M134.432 20.2222V19.7555L139.954 11.6278H135.035V10.8889H141.062V11.3361L135.56 19.4639H141.257V20.2222H134.432Z" fill="#050A23"/>
<path d="M146.381 20.4555C145.824 20.4555 145.292 20.3454 144.787 20.125C144.281 19.9046 143.834 19.587 143.445 19.1722C143.069 18.7574 142.764 18.2518 142.531 17.6556C142.311 17.0463 142.201 16.3528 142.201 15.575C142.201 14.7972 142.311 14.1037 142.531 13.4944C142.764 12.8722 143.069 12.3537 143.445 11.9389C143.834 11.5241 144.281 11.2065 144.787 10.9861C145.292 10.7657 145.824 10.6556 146.381 10.6556C146.938 10.6556 147.47 10.7657 147.976 10.9861C148.494 11.2065 148.941 11.5241 149.317 11.9389C149.706 12.3537 150.011 12.8722 150.231 13.4944C150.464 14.1037 150.581 14.7972 150.581 15.575C150.581 16.3528 150.464 17.0463 150.231 17.6556C150.011 18.2518 149.706 18.7574 149.317 19.1722C148.941 19.587 148.494 19.9046 147.976 20.125C147.47 20.3454 146.938 20.4555 146.381 20.4555ZM146.381 19.6972C146.848 19.6972 147.282 19.6 147.684 19.4056C148.099 19.1981 148.449 18.913 148.734 18.55C149.032 18.187 149.265 17.7528 149.434 17.2472C149.602 16.7417 149.687 16.1843 149.687 15.575C149.687 14.9528 149.602 14.3889 149.434 13.8833C149.265 13.3778 149.032 12.9435 148.734 12.5806C148.449 12.2046 148.099 11.9194 147.684 11.725C147.282 11.5176 146.848 11.4139 146.381 11.4139C145.914 11.4139 145.48 11.5176 145.078 11.725C144.676 11.9194 144.326 12.2046 144.028 12.5806C143.743 12.9435 143.516 13.3778 143.348 13.8833C143.179 14.3889 143.095 14.9528 143.095 15.575C143.095 16.1843 143.179 16.7417 143.348 17.2472C143.516 17.7528 143.743 18.187 144.028 18.55C144.326 18.913 144.676 19.1981 145.078 19.4056C145.48 19.6 145.914 19.6972 146.381 19.6972Z" fill="#050A23"/>
<path d="M152.995 20.2222V10.8889H153.734L153.812 12.6194H153.87C154.181 12.0361 154.557 11.563 154.998 11.2C155.452 10.837 155.957 10.6556 156.515 10.6556C156.696 10.6556 156.858 10.6685 157.001 10.6944C157.143 10.7204 157.292 10.7722 157.448 10.85L157.254 11.6278C157.098 11.563 156.962 11.5241 156.845 11.5111C156.729 11.4852 156.579 11.4722 156.398 11.4722C155.983 11.4722 155.542 11.6537 155.076 12.0167C154.622 12.3667 154.214 12.9824 153.851 13.8639V20.2222H152.995Z" fill="#050A23"/>
<path d="M166.929 20.4555C166.138 20.4555 165.412 20.3 164.751 19.9889C164.09 19.6778 163.519 19.237 163.04 18.6667C162.573 18.0833 162.21 17.3833 161.951 16.5667C161.692 15.737 161.562 14.8102 161.562 13.7861C161.562 12.775 161.692 11.8611 161.951 11.0444C162.223 10.2278 162.599 9.53425 163.079 8.96388C163.558 8.38055 164.129 7.93981 164.79 7.64166C165.464 7.33055 166.209 7.175 167.026 7.175C167.778 7.175 168.439 7.33055 169.009 7.64166C169.58 7.95277 170.033 8.30925 170.37 8.71111L169.845 9.31388C169.495 8.91203 169.087 8.59444 168.62 8.36111C168.154 8.11481 167.629 7.99166 167.045 7.99166C166.345 7.99166 165.71 8.12777 165.14 8.39999C164.582 8.67222 164.103 9.06111 163.701 9.56666C163.312 10.0593 163.014 10.662 162.806 11.375C162.599 12.088 162.495 12.8917 162.495 13.7861C162.495 14.6806 162.599 15.4907 162.806 16.2167C163.014 16.9296 163.312 17.5389 163.701 18.0444C164.09 18.55 164.556 18.9454 165.101 19.2305C165.658 19.5028 166.281 19.6389 166.968 19.6389C167.629 19.6389 168.218 19.5093 168.737 19.25C169.256 18.9778 169.748 18.5824 170.215 18.0639L170.74 18.6278C170.247 19.1981 169.696 19.6454 169.087 19.9694C168.478 20.2935 167.758 20.4555 166.929 20.4555Z" fill="#050A23"/>
<path d="M176.271 20.4555C175.713 20.4555 175.182 20.3454 174.676 20.125C174.171 19.9046 173.724 19.587 173.335 19.1722C172.959 18.7574 172.654 18.2518 172.421 17.6556C172.2 17.0463 172.09 16.3528 172.09 15.575C172.09 14.7972 172.2 14.1037 172.421 13.4944C172.654 12.8722 172.959 12.3537 173.335 11.9389C173.724 11.5241 174.171 11.2065 174.676 10.9861C175.182 10.7657 175.713 10.6556 176.271 10.6556C176.828 10.6556 177.36 10.7657 177.865 10.9861C178.384 11.2065 178.831 11.5241 179.207 11.9389C179.596 12.3537 179.9 12.8722 180.121 13.4944C180.354 14.1037 180.471 14.7972 180.471 15.575C180.471 16.3528 180.354 17.0463 180.121 17.6556C179.9 18.2518 179.596 18.7574 179.207 19.1722C178.831 19.587 178.384 19.9046 177.865 20.125C177.36 20.3454 176.828 20.4555 176.271 20.4555ZM176.271 19.6972C176.737 19.6972 177.172 19.6 177.574 19.4056C177.988 19.1981 178.338 18.913 178.624 18.55C178.922 18.187 179.155 17.7528 179.324 17.2472C179.492 16.7417 179.576 16.1843 179.576 15.575C179.576 14.9528 179.492 14.3889 179.324 13.8833C179.155 13.3778 178.922 12.9435 178.624 12.5806C178.338 12.2046 177.988 11.9194 177.574 11.725C177.172 11.5176 176.737 11.4139 176.271 11.4139C175.804 11.4139 175.37 11.5176 174.968 11.725C174.566 11.9194 174.216 12.2046 173.918 12.5806C173.633 12.9435 173.406 13.3778 173.237 13.8833C173.069 14.3889 172.985 14.9528 172.985 15.575C172.985 16.1843 173.069 16.7417 173.237 17.2472C173.406 17.7528 173.633 18.187 173.918 18.55C174.216 18.913 174.566 19.1981 174.968 19.4056C175.37 19.6 175.804 19.6972 176.271 19.6972Z" fill="#050A23"/>
<path d="M182.885 20.2222V10.8889H183.624L183.702 12.3278H183.76C184.175 11.8481 184.635 11.4528 185.141 11.1417C185.659 10.8176 186.178 10.6556 186.696 10.6556C187.448 10.6556 188.025 10.8306 188.427 11.1806C188.828 11.5176 189.114 11.9778 189.282 12.5611C189.827 11.9778 190.352 11.5176 190.857 11.1806C191.376 10.8306 191.907 10.6556 192.452 10.6556C194.318 10.6556 195.252 11.8481 195.252 14.2333V20.2222H194.377V14.35C194.377 13.3518 194.208 12.6194 193.871 12.1528C193.534 11.6731 193.009 11.4333 192.296 11.4333C191.453 11.4333 190.52 12.0167 189.496 13.1833V20.2222H188.641V14.35C188.641 13.3518 188.472 12.6194 188.135 12.1528C187.798 11.6731 187.266 11.4333 186.541 11.4333C185.698 11.4333 184.765 12.0167 183.741 13.1833V20.2222H182.885Z" fill="#050A23"/>
<path d="M198.276 24.4417V10.8889H199.015L199.092 12.0556H199.151C199.604 11.6926 200.097 11.3685 200.628 11.0833C201.173 10.7981 201.737 10.6556 202.32 10.6556C203.565 10.6556 204.498 11.0898 205.12 11.9583C205.742 12.8139 206.053 13.9676 206.053 15.4194C206.053 16.2102 205.943 16.9167 205.723 17.5389C205.503 18.1611 205.198 18.6926 204.809 19.1333C204.433 19.5611 203.992 19.8917 203.487 20.125C202.994 20.3454 202.476 20.4555 201.931 20.4555C201.491 20.4555 201.037 20.3583 200.57 20.1639C200.103 19.9565 199.624 19.6713 199.131 19.3083V24.4417H198.276ZM201.892 19.6972C202.359 19.6972 202.793 19.5935 203.195 19.3861C203.597 19.1787 203.941 18.887 204.226 18.5111C204.511 18.1352 204.731 17.688 204.887 17.1694C205.055 16.638 205.14 16.0546 205.14 15.4194C205.14 14.8491 205.081 14.3176 204.965 13.825C204.861 13.3324 204.692 12.9111 204.459 12.5611C204.226 12.1981 203.921 11.9194 203.545 11.725C203.169 11.5176 202.716 11.4139 202.184 11.4139C201.717 11.4139 201.231 11.55 200.726 11.8222C200.233 12.0815 199.702 12.4574 199.131 12.95V18.4917C199.676 18.9324 200.181 19.2435 200.648 19.425C201.115 19.6065 201.529 19.6972 201.892 19.6972Z" fill="#050A23"/>
<path d="M211.866 20.4555C211.309 20.4555 210.777 20.3454 210.272 20.125C209.766 19.9046 209.319 19.587 208.93 19.1722C208.554 18.7574 208.25 18.2518 208.016 17.6556C207.796 17.0463 207.686 16.3528 207.686 15.575C207.686 14.7972 207.796 14.1037 208.016 13.4944C208.25 12.8722 208.554 12.3537 208.93 11.9389C209.319 11.5241 209.766 11.2065 210.272 10.9861C210.777 10.7657 211.309 10.6556 211.866 10.6556C212.424 10.6556 212.955 10.7657 213.461 10.9861C213.979 11.2065 214.426 11.5241 214.802 11.9389C215.191 12.3537 215.496 12.8722 215.716 13.4944C215.95 14.1037 216.066 14.7972 216.066 15.575C216.066 16.3528 215.95 17.0463 215.716 17.6556C215.496 18.2518 215.191 18.7574 214.802 19.1722C214.426 19.587 213.979 19.9046 213.461 20.125C212.955 20.3454 212.424 20.4555 211.866 20.4555ZM211.866 19.6972C212.333 19.6972 212.767 19.6 213.169 19.4056C213.584 19.1981 213.934 18.913 214.219 18.55C214.517 18.187 214.751 17.7528 214.919 17.2472C215.088 16.7417 215.172 16.1843 215.172 15.575C215.172 14.9528 215.088 14.3889 214.919 13.8833C214.751 13.3778 214.517 12.9435 214.219 12.5806C213.934 12.2046 213.584 11.9194 213.169 11.725C212.767 11.5176 212.333 11.4139 211.866 11.4139C211.4 11.4139 210.965 11.5176 210.564 11.725C210.162 11.9194 209.812 12.2046 209.514 12.5806C209.228 12.9435 209.001 13.3778 208.833 13.8833C208.664 14.3889 208.58 14.9528 208.58 15.575C208.58 16.1843 208.664 16.7417 208.833 17.2472C209.001 17.7528 209.228 18.187 209.514 18.55C209.812 18.913 210.162 19.1981 210.564 19.4056C210.965 19.6 211.4 19.6972 211.866 19.6972Z" fill="#050A23"/>
<path d="M218.48 20.2222V10.8889H219.219L219.297 12.3278H219.355C219.835 11.8481 220.328 11.4528 220.833 11.1417C221.339 10.8176 221.916 10.6556 222.564 10.6556C223.536 10.6556 224.249 10.9472 224.703 11.5306C225.156 12.1139 225.383 13.0148 225.383 14.2333V20.2222H224.528V14.35C224.528 13.3518 224.359 12.6194 224.022 12.1528C223.698 11.6731 223.154 11.4333 222.389 11.4333C221.831 11.4333 221.326 11.5824 220.872 11.8806C220.418 12.1657 219.906 12.6 219.336 13.1833V20.2222H218.48Z" fill="#050A23"/>
<path d="M231.979 20.4555C231.383 20.4555 230.819 20.3454 230.288 20.125C229.769 19.9046 229.315 19.587 228.927 19.1722C228.538 18.7444 228.227 18.2324 227.993 17.6361C227.773 17.0268 227.663 16.3398 227.663 15.575C227.663 14.8102 227.773 14.1231 227.993 13.5139C228.227 12.9046 228.531 12.3926 228.907 11.9778C229.296 11.55 229.73 11.2259 230.21 11.0055C230.702 10.7722 231.208 10.6556 231.727 10.6556C232.841 10.6556 233.716 11.0315 234.352 11.7833C234.987 12.5352 235.304 13.5981 235.304 14.9722C235.304 15.0889 235.304 15.2056 235.304 15.3222C235.304 15.4389 235.291 15.5555 235.265 15.6722H228.538C228.551 16.2555 228.641 16.8 228.81 17.3056C228.978 17.7981 229.212 18.2259 229.51 18.5889C229.821 18.9389 230.19 19.2176 230.618 19.425C231.046 19.6194 231.526 19.7167 232.057 19.7167C232.563 19.7167 233.016 19.6454 233.418 19.5028C233.833 19.3472 234.215 19.1398 234.565 18.8805L234.915 19.5417C234.539 19.762 234.125 19.9694 233.671 20.1639C233.23 20.3583 232.666 20.4555 231.979 20.4555ZM228.538 14.9722H234.488C234.488 13.7667 234.241 12.8722 233.749 12.2889C233.256 11.6926 232.589 11.3944 231.746 11.3944C231.344 11.3944 230.962 11.4787 230.599 11.6472C230.236 11.8028 229.905 12.0361 229.607 12.3472C229.322 12.6583 229.082 13.0343 228.888 13.475C228.706 13.9157 228.589 14.4148 228.538 14.9722Z" fill="#050A23"/>
<path d="M237.451 20.2222V10.8889H238.19L238.268 12.3278H238.326C238.806 11.8481 239.298 11.4528 239.804 11.1417C240.309 10.8176 240.886 10.6556 241.534 10.6556C242.507 10.6556 243.219 10.9472 243.673 11.5306C244.127 12.1139 244.354 13.0148 244.354 14.2333V20.2222H243.498V14.35C243.498 13.3518 243.33 12.6194 242.993 12.1528C242.669 11.6731 242.124 11.4333 241.359 11.4333C240.802 11.4333 240.296 11.5824 239.843 11.8806C239.389 12.1657 238.877 12.6 238.306 13.1833V20.2222H237.451Z" fill="#050A23"/>
<path d="M249.958 20.4555C249.504 20.4555 249.129 20.3843 248.83 20.2417C248.532 20.112 248.292 19.9241 248.111 19.6778C247.929 19.4315 247.8 19.1333 247.722 18.7833C247.657 18.4333 247.625 18.0509 247.625 17.6361V11.6278H246.166V10.9667L247.644 10.8889L247.761 8.18611H248.5V10.8889H251.203V11.6278H248.5V17.7139C248.5 18.012 248.519 18.2843 248.558 18.5306C248.61 18.7639 248.694 18.9713 248.811 19.1528C248.928 19.3213 249.083 19.4574 249.278 19.5611C249.485 19.6518 249.751 19.6972 250.075 19.6972C250.256 19.6972 250.451 19.6713 250.658 19.6194C250.878 19.5546 251.073 19.4833 251.241 19.4056L251.475 20.1055C251.203 20.2093 250.93 20.2935 250.658 20.3583C250.386 20.4231 250.153 20.4555 249.958 20.4555Z" fill="#050A23"/>
<path d="M255.145 20.4555C254.445 20.4555 253.803 20.3324 253.22 20.0861C252.637 19.8268 252.138 19.5222 251.723 19.1722L252.228 18.5306C252.63 18.8676 253.058 19.1528 253.512 19.3861C253.965 19.6065 254.529 19.7167 255.203 19.7167C255.942 19.7167 256.493 19.5352 256.856 19.1722C257.232 18.7963 257.42 18.362 257.42 17.8694C257.42 17.5843 257.349 17.3315 257.206 17.1111C257.077 16.8907 256.902 16.7028 256.681 16.5472C256.461 16.3917 256.215 16.2556 255.942 16.1389C255.683 16.0222 255.417 15.912 255.145 15.8083C254.795 15.6787 254.439 15.5426 254.076 15.4C253.726 15.2574 253.408 15.0889 253.123 14.8944C252.838 14.687 252.604 14.4472 252.423 14.175C252.254 13.8898 252.17 13.5463 252.17 13.1444C252.17 12.8074 252.235 12.4898 252.365 12.1917C252.494 11.8806 252.689 11.6148 252.948 11.3944C253.207 11.1611 253.518 10.9796 253.881 10.85C254.257 10.7204 254.691 10.6556 255.184 10.6556C255.677 10.6556 256.156 10.7463 256.623 10.9278C257.102 11.1093 257.511 11.3426 257.848 11.6278L257.381 12.2306C257.07 11.9972 256.74 11.8028 256.39 11.6472C256.04 11.4787 255.625 11.3944 255.145 11.3944C254.782 11.3944 254.471 11.4463 254.212 11.55C253.952 11.6407 253.732 11.7639 253.551 11.9194C253.382 12.075 253.252 12.2565 253.162 12.4639C253.084 12.6713 253.045 12.8787 253.045 13.0861C253.045 13.3583 253.103 13.5917 253.22 13.7861C253.35 13.9676 253.518 14.1296 253.726 14.2722C253.933 14.4148 254.166 14.5444 254.426 14.6611C254.698 14.7648 254.97 14.8685 255.242 14.9722C255.605 15.1148 255.968 15.2574 256.331 15.4C256.694 15.5426 257.018 15.7176 257.303 15.925C257.602 16.1324 257.841 16.3917 258.023 16.7028C258.204 17.0009 258.295 17.3768 258.295 17.8306C258.295 18.1806 258.224 18.5176 258.081 18.8417C257.952 19.1528 257.751 19.4315 257.478 19.6778C257.206 19.9111 256.876 20.0991 256.487 20.2417C256.098 20.3843 255.651 20.4555 255.145 20.4555Z" fill="#050A23"/>
<rect x="101.889" y="4" width="1" height="20" fill="#E8E9ED"/>
</svg>
