<svg id="tile" viewBox="0 0 264 168" width="264" height="168" xmlns="http://www.w3.org/2000/svg"><rect width="264" height="168" fill="var(--rz-base-background-color, #ffffff)"/><g transform="translate(132.0 84.0) scale(0.84) translate(-132.0 -84.0)"><rect x="18" y="56" width="48" height="16" rx="8" fill="none" stroke="var(--rz-text-secondary-color, #45494f)" stroke-opacity="0.14" stroke-width="1"/><rect x="28" y="62" width="28" height="4" rx="2.0" fill="var(--rz-text-secondary-color, #45494f)" fill-opacity="0.3"/><rect x="78" y="56" width="48" height="16" rx="8" fill="none" stroke="var(--rz-text-secondary-color, #45494f)" stroke-opacity="0.14" stroke-width="1"/><rect x="88" y="62" width="28" height="4" rx="2.0" fill="var(--rz-text-secondary-color, #45494f)" fill-opacity="0.3"/><rect x="138" y="56" width="48" height="16" rx="8" fill="none" stroke="var(--rz-text-secondary-color, #45494f)" stroke-opacity="0.14" stroke-width="1"/><rect x="148" y="62" width="28" height="4" rx="2.0" fill="var(--rz-text-secondary-color, #45494f)" fill-opacity="0.3"/><rect x="198" y="56" width="48" height="16" rx="8" fill="none" stroke="var(--rz-text-secondary-color, #45494f)" stroke-opacity="0.14" stroke-width="1"/><rect x="208" y="62" width="28" height="4" rx="2.0" fill="var(--rz-text-secondary-color, #45494f)" fill-opacity="0.3"/><rect x="18" y="88" width="48" height="16" rx="8" fill="none" stroke="var(--rz-text-secondary-color, #45494f)" stroke-opacity="0.14" stroke-width="1"/><rect x="28" y="94" width="28" height="4" rx="2.0" fill="var(--rz-text-secondary-color, #45494f)" fill-opacity="0.3"/><rect x="78" y="88" width="48" height="16" rx="8" fill="none" stroke="var(--rz-text-secondary-color, #45494f)" stroke-opacity="0.14" stroke-width="1"/><rect x="88" y="94" width="28" height="4" rx="2.0" fill="var(--rz-text-secondary-color, #45494f)" fill-opacity="0.3"/><rect x="138" y="88" width="48" height="16" rx="8" fill="none" stroke="var(--rz-text-secondary-color, #45494f)" stroke-opacity="0.14" stroke-width="1"/><rect x="148" y="94" width="28" height="4" rx="2.0" fill="var(--rz-text-secondary-color, #45494f)" fill-opacity="0.3"/><rect x="198" y="88" width="48" height="16" rx="8" fill="none" stroke="var(--rz-text-secondary-color, #45494f)" stroke-opacity="0.14" stroke-width="1"/><rect x="208" y="94" width="28" height="4" rx="2.0" fill="var(--rz-text-secondary-color, #45494f)" fill-opacity="0.3"/></g></svg>