<svg id="tile" viewBox="0 0 264 168" width="264" height="168" xmlns="http://www.w3.org/2000/svg"><rect width="264" height="168" fill="var(--rz-base-background-color, #ffffff)"/><g transform="translate(132.0 84.0) scale(0.84) translate(-132.0 -84.0)"><rect x="14" y="50" width="72" height="68" rx="7" fill="var(--rz-base-background-color, #ffffff)" stroke="var(--rz-text-secondary-color, #45494f)" stroke-opacity=".14" stroke-width="1"/><rect x="23" y="60" width="30" height="4" rx="2.0" fill="var(--rz-text-secondary-color, #45494f)" fill-opacity="0.25"/><text x="23" y="86" font-family="var(--rz-text-font-family, ui-sans-serif, system-ui, sans-serif)" font-size="13" font-weight="600" text-anchor="start" fill="var(--rz-text-color, #1b1d20)" fill-opacity="1">31.8k</text><path d="M23 104 l12 -7 l10 5 l16 -11" stroke="var(--rz-primary, #3481e5)" stroke-width="1.6" fill="none" stroke-linecap="round"/><rect x="96" y="50" width="72" height="68" rx="7" fill="var(--rz-base-background-color, #ffffff)" stroke="var(--rz-text-secondary-color, #45494f)" stroke-opacity=".14" stroke-width="1"/><rect x="105" y="60" width="30" height="4" rx="2.0" fill="var(--rz-text-secondary-color, #45494f)" fill-opacity="0.25"/><text x="105" y="86" font-family="var(--rz-text-font-family, ui-sans-serif, system-ui, sans-serif)" font-size="13" font-weight="600" text-anchor="start" fill="var(--rz-text-color, #1b1d20)" fill-opacity="1">64%</text><rect x="105" y="98" width="40" height="4" rx="2.0" fill="var(--rz-text-secondary-color, #45494f)" fill-opacity="0.16"/><rect x="178" y="50" width="72" height="68" rx="7" fill="var(--rz-base-background-color, #ffffff)" stroke="var(--rz-text-secondary-color, #45494f)" stroke-opacity=".14" stroke-width="1"/><rect x="187" y="60" width="30" height="4" rx="2.0" fill="var(--rz-text-secondary-color, #45494f)" fill-opacity="0.25"/><text x="187" y="86" font-family="var(--rz-text-font-family, ui-sans-serif, system-ui, sans-serif)" font-size="13" font-weight="600" text-anchor="start" fill="var(--rz-text-color, #1b1d20)" fill-opacity="1">+2.4k</text><path d="M187 104 l12 -7 l10 5 l16 -11" stroke="var(--rz-primary, #3481e5)" stroke-width="1.6" fill="none" stroke-linecap="round"/></g></svg>