<svg id="tile" viewBox="0 0 264 168" width="264" height="168" xmlns="http://www.w3.org/2000/svg"><rect width="264" height="168" fill="var(--rz-base-background-color, #ffffff)"/><g transform="translate(132.0 84.0) scale(0.84) translate(-132.0 -84.0)"><rect x="24" y="38" width="160" height="5.5" rx="2.75" fill="var(--rz-text-secondary-color, #45494f)" fill-opacity="0.4"/><path d="M232 37 v8 M228 41 h8" stroke="var(--rz-primary, #3481e5)" stroke-width="1.6" stroke-linecap="round"/><line x1="24" y1="55" x2="240" y2="55" stroke="var(--rz-text-secondary-color, #45494f)" stroke-opacity=".14"/><rect x="24" y="66" width="160" height="5.5" rx="2.75" fill="var(--rz-text-secondary-color, #45494f)" fill-opacity="0.4"/><path d="M232 65 v8 M228 69 h8" stroke="var(--rz-primary, #3481e5)" stroke-width="1.6" stroke-linecap="round"/><line x1="24" y1="83" x2="240" y2="83" stroke="var(--rz-text-secondary-color, #45494f)" stroke-opacity=".14"/><rect x="24" y="94" width="160" height="5.5" rx="2.75" fill="var(--rz-text-secondary-color, #45494f)" fill-opacity="0.4"/><path d="M232 93 v8 M228 97 h8" stroke="var(--rz-primary, #3481e5)" stroke-width="1.6" stroke-linecap="round"/><line x1="24" y1="111" x2="240" y2="111" stroke="var(--rz-text-secondary-color, #45494f)" stroke-opacity=".14"/><rect x="24" y="122" width="160" height="5.5" rx="2.75" fill="var(--rz-text-secondary-color, #45494f)" fill-opacity="0.4"/><path d="M232 121 v8 M228 125 h8" stroke="var(--rz-primary, #3481e5)" stroke-width="1.6" stroke-linecap="round"/><line x1="24" y1="139" x2="240" y2="139" stroke="var(--rz-text-secondary-color, #45494f)" stroke-opacity=".14"/></g></svg>