<svg id="tile" viewBox="0 0 264 168" width="264" height="168" xmlns="http://www.w3.org/2000/svg"><rect width="264" height="168" fill="var(--rz-base-background-color, #ffffff)"/><g transform="translate(132.0 84.0) scale(0.84) translate(-132.0 -84.0)"><rect x="14" y="30" width="26" height="26" rx="5" fill="var(--rz-text-secondary-color, #45494f)" fill-opacity=".1"/><circle cx="23.88" cy="40.4" r="2.08" fill="var(--rz-text-secondary-color, #45494f)" fill-opacity=".3"/><path d="M19.2 48.72 l4.68 -5.2 l3.12 3.12 l2.6 -2.6 l5.2 4.68 z" fill="var(--rz-text-secondary-color, #45494f)" fill-opacity=".3"/><rect x="48" y="34" width="60" height="4.5" rx="2.25" fill="var(--rz-text-secondary-color, #45494f)" fill-opacity="0.4"/><rect x="48" y="43" width="40" height="4" rx="2.0" fill="var(--rz-text-secondary-color, #45494f)" fill-opacity="0.16"/><rect x="118" y="38" width="22" height="4.5" rx="2.25" fill="var(--rz-text-secondary-color, #45494f)" fill-opacity="0.4"/><rect x="14" y="66" width="26" height="26" rx="5" fill="var(--rz-text-secondary-color, #45494f)" fill-opacity=".1"/><circle cx="23.88" cy="76.4" r="2.08" fill="var(--rz-text-secondary-color, #45494f)" fill-opacity=".3"/><path d="M19.2 84.72 l4.68 -5.2 l3.12 3.12 l2.6 -2.6 l5.2 4.68 z" fill="var(--rz-text-secondary-color, #45494f)" fill-opacity=".3"/><rect x="48" y="70" width="60" height="4.5" rx="2.25" fill="var(--rz-text-secondary-color, #45494f)" fill-opacity="0.4"/><rect x="48" y="79" width="40" height="4" rx="2.0" fill="var(--rz-text-secondary-color, #45494f)" fill-opacity="0.16"/><rect x="118" y="74" width="22" height="4.5" rx="2.25" fill="var(--rz-text-secondary-color, #45494f)" fill-opacity="0.4"/><line x1="14" y1="106" x2="140" y2="106" stroke="var(--rz-text-secondary-color, #45494f)" stroke-opacity=".15"/><rect x="158" y="26" width="92" height="116" rx="7" fill="var(--rz-base-background-color, #ffffff)" stroke="var(--rz-text-secondary-color, #45494f)" stroke-opacity=".14" stroke-width="1"/><rect x="168" y="38" width="44" height="5" rx="2.5" fill="var(--rz-text-secondary-color, #45494f)" fill-opacity="0.5"/><rect x="168" y="52" width="56" height="4" rx="2.0" fill="var(--rz-text-secondary-color, #45494f)" fill-opacity="0.16"/><rect x="168" y="62" width="48" height="4" rx="2.0" fill="var(--rz-text-secondary-color, #45494f)" fill-opacity="0.16"/><line x1="168" y1="76" x2="240" y2="76" stroke="var(--rz-text-secondary-color, #45494f)" stroke-opacity=".18"/><rect x="168" y="84" width="30" height="5" rx="2.5" fill="var(--rz-text-secondary-color, #45494f)" fill-opacity="0.5"/><rect x="214" y="84" width="26" height="5" rx="2.5" fill="var(--rz-text-secondary-color, #45494f)" fill-opacity="0.5"/><rect x="168" y="102" width="72" height="15" rx="7.5" fill="var(--rz-primary, #3481e5)" fill-opacity="1"/><rect x="184" y="128" width="40" height="3.5" rx="1.75" fill="var(--rz-text-secondary-color, #45494f)" fill-opacity="0.2"/></g></svg>