<svg id="tile" viewBox="0 0 264 168" width="264" height="168" xmlns="http://www.w3.org/2000/svg"><rect width="264" height="168" fill="var(--rz-base-background-color, #ffffff)"/><g transform="translate(132.0 84.0) scale(0.84) translate(-132.0 -84.0)"><rect x="46" y="16" width="172" height="136" rx="7" fill="var(--rz-base-background-color, #ffffff)" stroke="var(--rz-text-secondary-color, #45494f)" stroke-opacity=".14" stroke-width="1"/><path d="M132 36 C133.2 44.4 135.6 46.8 144 48 C135.6 49.2 133.2 51.6 132 60 C130.8 51.6 128.4 49.2 120 48 C128.4 46.8 130.8 44.4 132 36 Z" fill="var(--rz-primary, #3481e5)"/><text x="132" y="78" font-family="var(--rz-text-font-family, ui-sans-serif, system-ui, sans-serif)" font-size="11" font-weight="600" text-anchor="middle" fill="var(--rz-text-color, #1b1d20)" fill-opacity="1">Ask AI anything</text><rect x="58" y="88" width="46" height="14" rx="7" fill="none" stroke="var(--rz-text-secondary-color, #45494f)" stroke-opacity="0.18" stroke-width="1"/><rect x="66" y="93" width="30" height="3.5" rx="1.75" fill="var(--rz-text-secondary-color, #45494f)" fill-opacity="0.25"/><rect x="110" y="88" width="46" height="14" rx="7" fill="none" stroke="var(--rz-text-secondary-color, #45494f)" stroke-opacity="0.18" stroke-width="1"/><rect x="118" y="93" width="30" height="3.5" rx="1.75" fill="var(--rz-text-secondary-color, #45494f)" fill-opacity="0.25"/><rect x="162" y="88" width="46" height="14" rx="7" fill="none" stroke="var(--rz-text-secondary-color, #45494f)" stroke-opacity="0.18" stroke-width="1"/><rect x="170" y="93" width="30" height="3.5" rx="1.75" fill="var(--rz-text-secondary-color, #45494f)" fill-opacity="0.25"/><rect x="58" y="116" width="126" height="16" rx="4" fill="none" stroke="var(--rz-text-secondary-color, #45494f)" stroke-opacity="0.2" stroke-width="1"/><rect x="64" y="122.0" width="34" height="4" rx="2.0" fill="var(--rz-text-secondary-color, #45494f)" fill-opacity="0.18"/><circle cx="198" cy="124" r="8" fill="var(--rz-primary, #3481e5)" fill-opacity="1"/><path d="M195 124 h6 m-2.5 -2.5 l2.5 2.5 l-2.5 2.5" stroke="var(--rz-on-primary, #ffffff)" stroke-width="1.3" fill="none"/></g></svg>