<svg width="170" height="32" viewBox="0 0 170 32" fill="none" xmlns="http://www.w3.org/2000/svg">
<path fill-rule="evenodd" clip-rule="evenodd" d="M16 32C24.8366 32 32 24.8366 32 16C32 7.16344 24.8366 0 16 0C7.16344 0 0 7.16344 0 16C0 22.1647 3.48645 27.5152 8.59515 30.1871L8.60504 30L8.23495 23H12.4509C12.4509 23 12.045 26.2015 12.045 30C12.045 30.5176 12.0529 31.0241 12.0666 31.5129C13.325 31.831 14.6427 32 16 32ZM17.3583 10.5781C15.6839 11.5449 14.8003 13.1574 14.4561 13.9242L12.0526 15.8883C12.0477 15.5968 12.045 15.3003 12.045 15C12.045 11.2015 12.4703 8.00001 12.4703 8.00001H8.23495C8.23495 8.00001 8.60504 11.2015 8.60504 15C8.60504 18.7985 8.23495 22 8.23495 22H12.4703C12.4703 22 12.1537 19.6165 12.0669 16.5224L12.4577 16.203C12.8043 16.6722 13.7376 17.7179 15.4161 18.143C17.6119 18.699 21.6318 18.3314 21.6318 18.3314C21.6318 18.3314 18.2166 16.3105 16.0208 15.7546C14.7561 15.4344 13.7138 15.5541 13.0574 15.713L14.6887 14.3799C15.471 14.404 17.2648 14.3439 19.0271 13.4686C21.3715 12.3039 25.9736 7.60479 25.9736 7.60479C25.9736 7.60479 19.6139 9.27583 17.3583 10.5781Z" fill="#FF504D"/>
<path fill-rule="evenodd" clip-rule="evenodd" d="M60.3319 21.4484L60.3308 21.447C59.4572 20.3487 59.0275 18.8233 59.0275 16.8847C59.0275 15.9284 59.1632 15.0642 59.4366 14.2935L59.4373 14.2917C59.7255 13.5244 60.103 12.8738 60.5712 12.3419C61.0383 11.8113 61.5711 11.3999 62.1696 11.1093L62.1707 11.1088C62.7848 10.8184 63.4168 10.6725 64.0659 10.6725C64.7413 10.6725 65.3199 10.7927 65.7973 11.0388C66.1991 11.2326 66.5995 11.491 66.9983 11.813L66.9163 10.1949V6.85712H69.8623V22.7895H67.4055L67.2219 21.5754C66.8037 21.9786 66.3215 22.3237 65.7758 22.6113C65.1916 22.919 64.5737 23.0733 63.9237 23.0733C62.4246 23.0733 61.2233 22.5324 60.3319 21.4484ZM65.7814 13.3471L65.78 13.3467C65.4131 13.2093 65.0393 13.1409 64.6581 13.1409C63.9381 13.1409 63.3292 13.453 62.8263 14.0918C62.3262 14.7273 62.0683 15.6452 62.0683 16.8611C62.0683 18.1114 62.2878 19.0473 62.712 19.6834C63.1475 20.2971 63.7675 20.605 64.587 20.605C65.4039 20.605 66.18 20.2036 66.9163 19.3733V14.0499C66.5263 13.7116 66.1479 13.4789 65.7814 13.3471ZM38.8572 10.9562H41.3197L41.4991 12.9046C41.898 12.217 42.3751 11.683 42.9325 11.3069C43.5321 10.8864 44.1539 10.6725 44.7958 10.6725H45.9964V13.33H44.8886C44.184 13.33 43.6318 13.4193 43.0599 13.8295L43.0581 13.8309C42.5815 14.1579 42.1607 14.7438 41.8032 15.606V22.7895H38.8572V10.9562ZM71.9339 22.7895V21.178L77.33 13.33H71.9339V10.9562H81.063V12.5441L75.69 20.3922H81.063V22.7895H71.9339ZM94.4393 22.7895V10.9562H96.899L97.0836 12.4759C97.5891 11.9965 98.1311 11.582 98.7097 11.2324L98.7108 11.2317C99.3459 10.8578 100.076 10.6725 100.899 10.6725C102.172 10.6725 103.119 11.084 103.714 11.9249C104.301 12.7396 104.587 13.9012 104.587 15.3948V22.7895H101.641V15.7495C101.641 14.7921 101.498 14.1447 101.236 13.7806C100.979 13.4245 100.553 13.2355 99.9279 13.2355C99.4419 13.2355 99.0128 13.3564 98.6372 13.5964L98.6363 13.597C98.2749 13.8225 97.8581 14.1606 97.3854 14.6143V22.7895H94.4393ZM48.2829 22.1199L48.2819 22.1189C47.6213 21.4644 47.2943 20.6068 47.2943 19.5571C47.2943 18.9266 47.4249 18.3641 47.6894 17.8727L47.6901 17.8716C47.9712 17.3637 48.3995 16.9329 48.9696 16.5778L48.9709 16.5771C49.5548 16.2235 50.2809 15.9284 51.1471 15.69L51.1476 15.6899C52.0043 15.4585 53.0172 15.2799 54.1857 15.154C54.1655 14.9012 54.1215 14.661 54.0539 14.4332L54.0528 14.4295L54.052 14.4259C53.9919 14.1582 53.8803 13.9307 53.7179 13.7405L53.7149 13.7371L53.7121 13.7333C53.5661 13.5307 53.3685 13.3777 53.1158 13.2746L53.1133 13.2735L53.1108 13.2724C52.859 13.1549 52.5419 13.0935 52.1551 13.0935C51.5971 13.0935 51.0462 13.201 50.5017 13.4166C49.9664 13.635 49.4385 13.9004 48.9182 14.2129L48.8196 14.2722L47.7111 12.2587L47.7997 12.203C48.4593 11.7885 49.1983 11.4306 50.0163 11.1286C50.8411 10.8242 51.7294 10.6725 52.6803 10.6725C54.1661 10.6725 55.292 11.1133 56.0351 12.0126C56.7902 12.8914 57.1592 14.1586 57.1592 15.7969V22.7895H54.6853L54.4988 21.5422C53.9861 21.9647 53.4363 22.3214 52.8494 22.6122C52.2443 22.9201 51.5825 23.0733 50.8662 23.0733C49.8084 23.0733 48.9436 22.7581 48.2829 22.1199ZM52.9845 20.4061C53.3621 20.1966 53.7648 19.898 54.1925 19.5083V17.0809C53.4552 17.1732 52.8345 17.2933 52.3294 17.4405C51.7941 17.5965 51.3664 17.7745 51.0435 17.9725L51.0419 17.9735L51.0401 17.9745C50.718 18.1569 50.4965 18.3649 50.3659 18.5949C50.2319 18.8308 50.1655 19.0801 50.1655 19.3442C50.1655 19.8414 50.3164 20.1811 50.5982 20.3903C50.8931 20.6095 51.274 20.7233 51.7494 20.7233C52.2089 20.7233 52.6191 20.6172 52.9828 20.407L52.9845 20.4061ZM85.6484 22.6639L85.6463 22.6631C84.9381 22.3739 84.3175 21.9637 83.7857 21.4329C83.2532 20.9012 82.8347 20.2577 82.5295 19.5041L82.5284 19.5014C82.2387 18.7301 82.0949 17.8573 82.0949 16.8847C82.0949 15.927 82.2469 15.0615 82.5528 14.2898C82.8574 13.5218 83.2592 12.8709 83.7597 12.3391L83.7608 12.3379C84.276 11.8076 84.8643 11.3972 85.5253 11.1075C86.1862 10.8178 86.8647 10.6725 87.5597 10.6725C88.3619 10.6725 89.0727 10.8086 89.6896 11.0841C90.3047 11.3588 90.8163 11.7474 91.2224 12.25C91.6435 12.7513 91.9579 13.3481 92.1669 14.0383C92.3758 14.7281 92.4797 15.4801 92.4797 16.2935C92.4797 16.5645 92.4356 17.0613 92.4356 17.0613C92.4356 17.0613 92.3917 17.493 92.3585 17.6419L92.3392 17.7287H84.9855C85.1225 18.6891 85.4713 19.4253 86.0239 19.9484C86.6164 20.4787 87.3701 20.7469 88.2941 20.7469C88.7886 20.7469 89.2422 20.6775 89.6557 20.5401C90.0894 20.3853 90.516 20.1763 90.9358 19.9125L91.0358 19.8497L92.0647 21.7459L91.9795 21.8018C91.4185 22.1698 90.7942 22.4732 90.1073 22.7124C89.4161 22.9532 88.6931 23.0733 87.9388 23.0733C87.1208 23.0733 86.3569 22.9372 85.6484 22.6639ZM89.3191 13.7354L89.318 13.7338C88.9649 13.2493 88.4108 12.9989 87.6308 12.9989C86.9649 12.9989 86.3838 13.2319 85.8825 13.7021C85.408 14.147 85.0985 14.7963 84.9635 15.6623H89.8879C89.8721 14.833 89.6789 14.1951 89.3203 13.7369L89.3191 13.7354Z" fill="#050A23"/>
<path d="M112 22.7988V6.98285H116.272C117.872 6.98285 119.144 7.29485 120.088 7.91885C121.032 8.52685 121.504 9.49485 121.504 10.8228C121.504 11.6548 121.296 12.3828 120.88 13.0068C120.464 13.6148 119.856 14.0388 119.056 14.2788V14.3748C120.08 14.5508 120.904 14.9588 121.528 15.5988C122.152 16.2228 122.464 17.0868 122.464 18.1908C122.464 18.9588 122.32 19.6308 122.032 20.2068C121.76 20.7828 121.368 21.2628 120.856 21.6468C120.344 22.0308 119.728 22.3188 119.008 22.5108C118.288 22.7028 117.48 22.7988 116.584 22.7988H112ZM113.104 13.9428H115.84C117.456 13.9428 118.616 13.6788 119.32 13.1508C120.04 12.6068 120.4 11.8708 120.4 10.9428C120.4 9.82285 120.024 9.03885 119.272 8.59085C118.52 8.12685 117.416 7.89485 115.96 7.89485H113.104V13.9428ZM113.104 21.8868H116.296C117.88 21.8868 119.12 21.5908 120.016 20.9988C120.928 20.4068 121.384 19.4788 121.384 18.2148C121.384 17.0628 120.944 16.2148 120.064 15.6708C119.184 15.1268 117.928 14.8548 116.296 14.8548H113.104V21.8868Z" fill="black"/>
<path d="M126.691 23.0868C125.747 23.0868 125.275 22.4788 125.275 21.2628V5.54285H126.331V21.4068C126.331 21.6628 126.379 21.8548 126.475 21.9828C126.571 22.0948 126.691 22.1508 126.835 22.1508C126.883 22.1508 126.931 22.1508 126.979 22.1508C127.043 22.1508 127.139 22.1348 127.267 22.1028L127.459 22.9668C127.347 22.9988 127.235 23.0228 127.123 23.0388C127.011 23.0708 126.867 23.0868 126.691 23.0868Z" fill="black"/>
<path d="M133.01 23.0868C132.546 23.0868 132.114 23.0228 131.714 22.8948C131.314 22.7668 130.962 22.5748 130.658 22.3188C130.354 22.0628 130.114 21.7348 129.938 21.3348C129.762 20.9348 129.674 20.4628 129.674 19.9188C129.674 18.6388 130.266 17.6708 131.45 17.0148C132.65 16.3428 134.538 15.8628 137.114 15.5748C137.114 15.1428 137.082 14.7108 137.018 14.2788C136.954 13.8308 136.818 13.4388 136.61 13.1028C136.402 12.7508 136.122 12.4708 135.77 12.2628C135.418 12.0388 134.954 11.9268 134.378 11.9268C133.61 11.9268 132.906 12.0788 132.266 12.3828C131.626 12.6868 131.106 12.9828 130.706 13.2708L130.226 12.4788C130.434 12.3348 130.682 12.1748 130.97 11.9988C131.274 11.8228 131.61 11.6628 131.978 11.5188C132.346 11.3748 132.746 11.2548 133.178 11.1588C133.61 11.0468 134.058 10.9908 134.522 10.9908C135.194 10.9908 135.762 11.1108 136.226 11.3508C136.69 11.5748 137.066 11.8868 137.354 12.2868C137.642 12.6868 137.85 13.1588 137.978 13.7028C138.106 14.2308 138.17 14.8068 138.17 15.4308V22.7988H137.258L137.162 21.3108H137.09C136.498 21.7748 135.858 22.1908 135.17 22.5588C134.498 22.9108 133.778 23.0868 133.01 23.0868ZM133.202 22.1748C133.874 22.1748 134.514 22.0148 135.122 21.6948C135.73 21.3748 136.394 20.9108 137.114 20.3028V16.3908C135.93 16.5348 134.93 16.7108 134.114 16.9188C133.298 17.1268 132.642 17.3748 132.146 17.6628C131.65 17.9508 131.29 18.2788 131.066 18.6468C130.858 19.0148 130.754 19.4228 130.754 19.8708C130.754 20.2868 130.818 20.6388 130.946 20.9268C131.074 21.2148 131.25 21.4548 131.474 21.6468C131.698 21.8228 131.954 21.9588 132.242 22.0548C132.546 22.1348 132.866 22.1748 133.202 22.1748Z" fill="black"/>
<path d="M140.239 22.7988V22.2228L147.055 12.1908H140.983V11.2788H148.423V11.8308L141.631 21.8628H148.663V22.7988H140.239Z" fill="black"/>
<path d="M154.988 23.0868C154.3 23.0868 153.644 22.9508 153.02 22.6788C152.396 22.4068 151.844 22.0148 151.364 21.5028C150.9 20.9908 150.524 20.3668 150.236 19.6308C149.964 18.8788 149.828 18.0228 149.828 17.0628C149.828 16.1028 149.964 15.2468 150.236 14.4948C150.524 13.7268 150.9 13.0868 151.364 12.5748C151.844 12.0628 152.396 11.6708 153.02 11.3988C153.644 11.1268 154.3 10.9908 154.988 10.9908C155.676 10.9908 156.332 11.1268 156.956 11.3988C157.596 11.6708 158.148 12.0628 158.612 12.5748C159.092 13.0868 159.468 13.7268 159.74 14.4948C160.028 15.2468 160.172 16.1028 160.172 17.0628C160.172 18.0228 160.028 18.8788 159.74 19.6308C159.468 20.3668 159.092 20.9908 158.612 21.5028C158.148 22.0148 157.596 22.4068 156.956 22.6788C156.332 22.9508 155.676 23.0868 154.988 23.0868ZM154.988 22.1508C155.564 22.1508 156.1 22.0308 156.596 21.7908C157.108 21.5348 157.54 21.1828 157.892 20.7348C158.26 20.2868 158.548 19.7508 158.756 19.1268C158.964 18.5028 159.068 17.8148 159.068 17.0628C159.068 16.2948 158.964 15.5988 158.756 14.9748C158.548 14.3508 158.26 13.8148 157.892 13.3668C157.54 12.9028 157.108 12.5508 156.596 12.3108C156.1 12.0548 155.564 11.9268 154.988 11.9268C154.412 11.9268 153.876 12.0548 153.38 12.3108C152.884 12.5508 152.452 12.9028 152.084 13.3668C151.732 13.8148 151.452 14.3508 151.244 14.9748C151.036 15.5988 150.932 16.2948 150.932 17.0628C150.932 17.8148 151.036 18.5028 151.244 19.1268C151.452 19.7508 151.732 20.2868 152.084 20.7348C152.452 21.1828 152.884 21.5348 153.38 21.7908C153.876 22.0308 154.412 22.1508 154.988 22.1508Z" fill="black"/>
<path d="M163.152 22.7988V11.2788H164.064L164.16 13.4148H164.232C164.616 12.6948 165.08 12.1108 165.624 11.6628C166.184 11.2148 166.808 10.9908 167.496 10.9908C167.72 10.9908 167.92 11.0068 168.096 11.0388C168.272 11.0708 168.456 11.1348 168.648 11.2308L168.408 12.1908C168.216 12.1108 168.048 12.0628 167.904 12.0468C167.76 12.0148 167.576 11.9988 167.352 11.9988C166.84 11.9988 166.296 12.2228 165.72 12.6708C165.16 13.1028 164.656 13.8628 164.208 14.9508V22.7988H163.152Z" fill="black"/>
</svg>
