<svg width="300" height="220" viewBox="0 0 300 220" fill="none" xmlns="http://www.w3.org/2000/svg">
<path d="M247.831 42H57.7308C57.0068 42.0007 56.3125 42.2883 55.8005 42.7998C55.2886 43.3112 55.0006 44.0048 55 44.7281V173.412C55.0006 174.135 55.2886 174.828 55.8005 175.34C56.3125 175.851 57.0068 176.139 57.7308 176.14H247.831C248.226 176.14 248.616 176.054 248.974 175.889C249.333 175.724 249.651 175.482 249.907 175.182C249.929 175.159 249.949 175.134 249.967 175.107C250.13 174.908 250.262 174.686 250.358 174.447C250.496 174.119 250.566 173.767 250.565 173.412V44.7281C250.564 44.0043 250.276 43.3104 249.763 42.7988C249.25 42.2873 248.555 42 247.831 42V42ZM249.785 173.412C249.785 173.792 249.673 174.164 249.462 174.482C249.275 174.761 249.021 174.989 248.723 175.145C248.447 175.287 248.141 175.361 247.831 175.361H57.7308C57.2136 175.36 56.7177 175.154 56.3519 174.789C55.9861 174.424 55.7804 173.928 55.7797 173.412V44.7281C55.7804 44.2114 55.9861 43.716 56.3519 43.3506C56.7177 42.9852 57.2136 42.7796 57.7308 42.779H247.831C248.349 42.7789 248.845 42.9842 249.212 43.3496C249.578 43.7151 249.784 44.2109 249.785 44.7281V173.412Z" fill="#3F3D56"/>
<path d="M250.426 52.934H55.6416V53.7139H250.426V52.934Z" fill="#3F3D56"/>
<path d="M62.2776 50.1888C63.5711 50.1888 64.6197 49.1413 64.6197 47.8492C64.6197 46.557 63.5711 45.5095 62.2776 45.5095C60.9841 45.5095 59.9355 46.557 59.9355 47.8492C59.9355 49.1413 60.9841 50.1888 62.2776 50.1888Z" fill="#3F3D56"/>
<path d="M69.011 50.1888C70.3045 50.1888 71.3531 49.1413 71.3531 47.8492C71.3531 46.557 70.3045 45.5095 69.011 45.5095C67.7175 45.5095 66.6689 46.557 66.6689 47.8492C66.6689 49.1413 67.7175 50.1888 69.011 50.1888Z" fill="#3F3D56"/>
<path d="M75.7444 50.1888C77.0379 50.1888 78.0865 49.1413 78.0865 47.8492C78.0865 46.557 77.0379 45.5095 75.7444 45.5095C74.4509 45.5095 73.4023 46.557 73.4023 47.8492C73.4023 49.1413 74.4509 50.1888 75.7444 50.1888Z" fill="#3F3D56"/>
<path d="M70.5 198C86.2401 198 99 195.761 99 193C99 190.239 86.2401 188 70.5 188C54.7599 188 42 190.239 42 193C42 195.761 54.7599 198 70.5 198Z" fill="#E6E6E6"/>
<path d="M226.493 192.504C246.096 192.504 261.987 190.377 261.987 187.752C261.987 185.128 246.096 183 226.493 183C206.891 183 191 185.128 191 187.752C191 190.377 206.891 192.504 226.493 192.504Z" fill="#E6E6E6"/>
<path d="M56.0762 186.405L59.8994 187.33L65.2838 173.016L59.6412 171.651L56.0762 186.405Z" fill="#A0616A"/>
<path d="M54.2661 189.84L55.4401 184.981L62.9201 186.791C64.179 187.097 65.2651 187.89 65.9402 188.996C66.6153 190.102 66.8243 191.431 66.5213 192.692L66.4954 192.799L54.2661 189.84Z" fill="#2F2E41"/>
<path d="M73.001 189.011L76.9344 189.011L78.8053 173.831L73.0005 173.831L73.001 189.011Z" fill="#A0616A"/>
<path d="M72.0479 187.777L79.7434 187.776H79.7436C81.0394 187.776 82.2822 188.291 83.1985 189.208C84.1148 190.125 84.6296 191.369 84.6296 192.665V192.775L72.0481 192.776L72.0479 187.777Z" fill="#2F2E41"/>
<path d="M72.0777 183.759L72.7244 160.143L71.8533 150.567L70.1536 157.936L62.7265 182.17L56.3237 180.484L63.739 154.354L62.1285 137.594L66.7557 134.618L66.8181 134.629L82.6271 137.545L78.8082 183.085L72.0777 183.759Z" fill="#2F2E41"/>
<path d="M78.3345 140.833C77.0614 140.833 75.5725 140.423 73.9151 139.252C68.6116 135.507 62.2879 139.536 62.2245 139.577L61.9678 139.744L61.9768 139.437C61.9832 139.219 62.6184 117.53 62.6184 110.551C62.6184 103.341 67.32 98.0761 68.761 96.6343C70.1753 95.2189 71.3654 95.2503 72.872 95.2895C73.1315 95.2961 73.4021 95.3033 73.6868 95.3033C75.6555 95.3033 77.5696 97.1958 77.6501 97.2763L77.6885 97.3149L77.6957 97.3688L83.1586 138.525L83.1168 138.578C83.0915 138.61 81.2976 140.833 78.3345 140.833Z" fill="#C9CACD"/>
<path d="M81.437 88.7711C83.5244 84.9503 82.121 80.1598 78.3025 78.0712C74.4839 75.9826 69.6961 77.3867 67.6087 81.2075C65.5213 85.0283 66.9247 89.8188 70.7432 91.9074C74.5618 93.9961 79.3496 92.5919 81.437 88.7711Z" fill="#A0616A"/>
<path d="M86.5854 147.423C86.2126 147.134 85.9077 146.766 85.6921 146.347C85.4765 145.927 85.3556 145.465 85.3377 144.994C85.3199 144.522 85.4056 144.052 85.5888 143.617C85.7721 143.182 86.0483 142.793 86.3982 142.477L81.9233 131.915L87.7825 132.994L91.1337 142.858C91.626 143.482 91.8727 144.264 91.8271 145.057C91.7814 145.85 91.4465 146.599 90.8859 147.162C90.3252 147.725 89.5778 148.062 88.7852 148.11C87.9926 148.158 87.2099 147.914 86.5854 147.423V147.423Z" fill="#A0616A"/>
<path d="M85.3182 141.411L77.2324 124.907L73.687 112.485L73.6898 101.694C73.6978 101.651 74.5313 97.4535 77.6206 97.7438C80.4218 98.0153 81.9305 99.3858 82.6653 102.327C83.2895 104.825 82.4358 112.236 82.3532 112.936C82.8952 114.222 91.0272 133.608 89.6809 135.943C89.6305 136.034 89.5571 136.11 89.4681 136.164L90.909 139.208L85.3182 141.411Z" fill="#C9CACD"/>
<path d="M73.5155 87.9597C74.4601 88.0826 75.1726 87.1156 75.5031 86.2217C75.8336 85.3278 76.0854 84.2871 76.9066 83.8043C78.0286 83.1446 79.4642 83.938 80.7472 83.7204C82.1962 83.4746 83.1383 81.938 83.2122 80.4694C83.286 79.0007 82.7019 77.5882 82.1288 76.2341L81.9287 77.9169C81.9554 77.3466 81.8355 76.7789 81.5803 76.2682C81.3251 75.7575 80.9433 75.3208 80.4712 75L80.7291 77.4693C80.6742 77.1286 80.5527 76.8021 80.3714 76.5086C80.1901 76.215 79.9526 75.9602 79.6726 75.7587C79.3927 75.5572 79.0757 75.4131 78.7399 75.3344C78.404 75.2558 78.056 75.2444 77.7158 75.3007L77.7564 76.772C76.0828 76.5729 74.3946 76.3735 72.7161 76.5252C71.0376 76.6769 69.3473 77.2082 68.0751 78.3143C66.1721 79.9688 65.4771 82.6932 65.7104 85.2049C65.9438 87.7166 66.98 90.0761 68.06 92.3554C68.3317 92.9289 68.7075 93.5761 69.3376 93.6491C69.9037 93.7147 70.4218 93.2412 70.5977 92.6988C70.7333 92.1423 70.7281 91.5608 70.5825 91.0068C70.4232 90.1602 70.2225 89.2949 70.3722 88.4465C70.5219 87.5982 71.1319 86.7599 71.9865 86.6559C72.8412 86.552 73.7157 87.5295 73.3048 88.2865L73.5155 87.9597Z" fill="#2F2E41"/>
<path d="M235.556 142.372C235.293 142.072 235.098 141.718 234.987 141.334C234.876 140.951 234.849 140.548 234.91 140.154C234.971 139.76 235.118 139.384 235.34 139.052C235.562 138.721 235.854 138.442 236.195 138.236L234.179 128.749L238.869 130.587L240.065 139.314C240.373 139.911 240.452 140.6 240.287 141.251C240.121 141.902 239.723 142.47 239.167 142.847C238.611 143.224 237.937 143.384 237.271 143.296C236.605 143.208 235.995 142.879 235.556 142.372V142.372Z" fill="#FFB8B8"/>
<path d="M235.023 134.969L234.998 134.876C232.462 125.493 229.841 115.793 226.642 105.231L226.621 105.162L226.691 105.121C228.475 104.08 231.155 104.149 232.927 105.282C233.728 105.799 234.352 106.55 234.713 107.433C235.074 108.316 235.156 109.289 234.946 110.22L237.279 122.395C238.228 126.375 239.21 130.494 240.149 134.556L240.175 134.671L240.03 134.681C238.321 134.789 236.556 134.902 235.141 134.964L235.023 134.969Z" fill="#C9CACD"/>
<path d="M213.475 185.471H210.149L208.567 172.636H213.475V185.471Z" fill="#FFB8B8"/>
<path d="M214.324 188.697H203.6V188.561C203.601 187.454 204.042 186.392 204.824 185.609C205.607 184.826 206.667 184.386 207.774 184.385H214.324L214.324 188.697Z" fill="#2F2E41"/>
<path d="M244.813 182.726L241.644 183.736L236.242 171.988L240.919 170.497L244.813 182.726Z" fill="#FFB8B8"/>
<path d="M236.383 188.799L236.342 188.67C236.007 187.615 236.104 186.469 236.612 185.486C237.12 184.502 237.997 183.76 239.051 183.423L245.292 181.433L246.6 185.542L236.383 188.799Z" fill="#2F2E41"/>
<path d="M227.98 96.6325C231.66 96.6325 234.643 93.6478 234.643 89.9661C234.643 86.2843 231.66 83.2996 227.98 83.2996C224.301 83.2996 221.318 86.2843 221.318 89.9661C221.318 93.6478 224.301 96.6325 227.98 96.6325Z" fill="#FFB8B8"/>
<path d="M230.972 88.7305C231.01 86.0417 229.885 83.3788 228.146 82.04C227.327 81.3903 226.307 81.0453 225.262 81.0638C224.217 81.0822 223.21 81.4631 222.414 82.1413C220.702 83.5412 219.63 86.2429 219.721 88.9295C223.557 88.9404 227.393 88.9513 230.972 88.7305Z" fill="#2F2E41"/>
<path d="M215.374 181.34L215.24 181.327C212.347 181.043 209.355 180.749 206.528 180.715L206.374 180.714L206.395 180.561C207.065 175.707 207.349 170.66 207.624 165.779C207.895 160.96 208.175 155.976 208.828 151.243C209.104 149.976 209.374 148.724 209.642 147.476C211.863 137.15 213.96 127.397 218.289 117.743L218.33 117.651L218.429 117.663C222.491 118.155 226.395 119.638 229.42 121.839L229.478 121.881L229.475 121.954C229.417 123.453 229.357 125.003 229.446 126.416C230.819 128.325 231.729 130.527 232.103 132.849C232.478 135.171 232.307 137.548 231.604 139.792C232.795 143.775 234.026 147.893 235.283 151.955C238.334 160.325 241.492 168.987 244.728 177.767L244.781 177.911L244.632 177.946C242.303 178.493 239.901 179.057 237.531 179.276L237.442 179.284L237.399 179.205C231.356 167.952 226.441 156.127 222.727 143.905C221.918 146.373 220.753 148.6 219.624 150.758C218.545 152.721 217.595 154.752 216.781 156.838C216.281 160.943 216.149 165.389 216.021 169.689C215.9 173.755 215.785 177.595 215.388 181.206L215.374 181.34Z" fill="#2F2E41"/>
<path d="M225.706 82.1633C228.594 81.5407 231.788 82.133 234.056 84.0826C236.324 86.0322 237.476 89.405 236.544 92.2976C235.612 95.1901 232.449 97.2253 229.589 96.4783C230.408 94.1679 229.486 91.3312 227.483 90.0004C225.108 88.4221 224.454 84.6541 225.706 82.1633Z" fill="#2F2E41"/>
<path d="M229.212 122.129L229.107 122.08C225.423 120.399 221.81 119.108 218.425 117.931L218.322 117.908L218.321 117.607L218.389 117.631C218.403 117.599 218.419 117.564 218.435 117.528C218.481 117.426 218.513 117.356 218.539 117.31L218.539 117.31C218.821 116.735 219.045 116.179 219.262 115.641C219.486 115.086 219.717 114.513 220.016 113.907C219.292 113.181 218.796 112.259 218.59 111.254C218.384 110.249 218.476 109.206 218.855 108.254C219.603 106.48 221.51 105.099 223.513 104.87C224.247 102.849 225.882 98.6004 225.882 98.6004C225.882 98.6004 229.321 98.5059 230.704 98.3303L230.728 98.3274L230.751 98.3325C233.77 98.9945 236.291 101.853 236.881 105.285C237.379 108.181 236.623 111.493 234.752 114.612C233.792 116.138 232.731 117.596 231.576 118.979C230.733 120.033 229.937 121.029 229.276 122.032L229.212 122.129Z" fill="#C9CACD"/>
<path d="M235.881 86.1138C233.859 85.8118 232.272 83.7441 232.502 81.7119C232.731 79.6797 234.74 78.0191 236.778 78.1767C238.816 78.3343 240.546 80.2841 240.461 82.3275C240.376 84.371 238.462 86.4993 235.881 86.1138Z" fill="#2F2E41"/>
<path d="M235.566 84.796C233.544 84.4941 231.957 82.4264 232.187 80.3942C232.287 79.7029 232.56 79.0483 232.982 78.4914C233.403 77.9345 233.958 77.4934 234.596 77.2092C232.966 77.5662 231.562 78.9877 231.373 80.6656C231.143 82.6978 232.73 84.7655 234.752 85.0674C235.505 85.1857 236.277 85.0778 236.968 84.7572C236.507 84.8542 236.032 84.8673 235.566 84.796V84.796Z" fill="#2F2E41"/>
<path d="M196.351 120.618C196.546 120.27 196.815 119.969 197.139 119.736C197.463 119.503 197.834 119.344 198.226 119.27C198.618 119.197 199.021 119.21 199.407 119.309C199.794 119.408 200.154 119.59 200.462 119.843L208.73 114.78L208.56 119.817L200.734 123.853C200.275 124.343 199.652 124.647 198.983 124.708C198.315 124.769 197.647 124.582 197.107 124.184C196.566 123.785 196.191 123.202 196.052 122.544C195.913 121.887 196.019 121.202 196.351 120.618V120.618Z" fill="#FFB8B8"/>
<path d="M203.149 117.649L203.228 117.594C211.226 112.076 219.493 106.371 228.379 99.8339L228.437 99.791L228.499 99.8439C230.075 101.179 230.903 103.732 230.425 105.78C230.205 106.709 229.706 107.547 228.994 108.182C228.282 108.817 227.392 109.218 226.445 109.33L215.75 115.588C212.316 117.81 208.761 120.108 205.246 122.347L205.146 122.411L205.089 122.277C204.417 120.701 203.723 119.073 203.193 117.759L203.149 117.649Z" fill="#C9CACD"/>
<path d="M130.17 121.816L109 107.084V104.764L130.17 90.032V92.816L111.494 105.808V106.04L130.17 119.032V121.816Z" fill="#FF504D"/>
<path d="M142.095 134.46L161.061 84H163.671L144.705 134.46H142.095Z" fill="#FF504D"/>
<path d="M175.597 121.816V119.032L194.273 106.04V105.808L175.597 92.816V90.032L196.767 104.764V107.084L175.597 121.816Z" fill="#FF504D"/>
</svg>
