<svg width="300" height="220" viewBox="0 0 300 220" fill="none" xmlns="http://www.w3.org/2000/svg">
<path d="M94.9807 61.6521C94.4101 61.6521 93.8628 61.8788 93.4593 62.2823C93.0558 62.6858 92.8291 63.2331 92.8291 63.8037C92.8291 64.3744 93.0558 64.9217 93.4593 65.3252C93.8628 65.7287 94.4101 65.9554 94.9807 65.9554H122.026V65.0167C122.026 64.3497 122.192 63.693 122.508 63.1057C122.824 62.5185 123.282 62.019 123.839 61.6521H94.9807Z" fill="#E6E6E6"/>
<path d="M103.493 197.504C123.096 197.504 138.987 195.377 138.987 192.752C138.987 190.128 123.096 188 103.493 188C83.8909 188 68 190.128 68 192.752C68 195.377 83.8909 197.504 103.493 197.504Z" fill="#E6E6E6"/>
<path d="M119.591 56.8109H110.447C109.876 56.8109 109.329 56.5842 108.925 56.1807C108.522 55.7772 108.295 55.2299 108.295 54.6592C108.295 54.0886 108.522 53.5413 108.925 53.1378C109.329 52.7343 109.876 52.5076 110.447 52.5076H119.591C120.161 52.5076 120.709 52.7343 121.112 53.1378C121.516 53.5413 121.742 54.0886 121.742 54.6592C121.742 55.2299 121.516 55.7772 121.112 56.1807C120.709 56.5842 120.161 56.8109 119.591 56.8109Z" fill="#E6E6E6"/>
<path d="M121.756 104.926H88.2889C87.0767 104.924 85.9146 104.442 85.0575 103.585C84.2003 102.728 83.7182 101.566 83.7168 100.353V47.4121C83.7182 46.1999 84.2003 45.0377 85.0575 44.1806C85.9146 43.3234 87.0767 42.8412 88.2889 42.8399H141.749C142.961 42.8412 144.123 43.3234 144.98 44.1806C145.837 45.0377 146.32 46.1999 146.321 47.4121V60.5338H145.783V47.4121C145.782 46.3425 145.356 45.3171 144.6 44.5608C143.844 43.8044 142.818 43.379 141.749 43.3778H88.2889C87.2194 43.379 86.1939 43.8044 85.4376 44.5608C84.6813 45.3171 84.2559 46.3425 84.2547 47.4121V100.353C84.2559 101.423 84.6813 102.448 85.4376 103.205C86.1939 103.961 87.2194 104.386 88.2889 104.388H121.756V104.926Z" fill="#CCCCCC"/>
<path d="M192.878 61.6521C193.435 62.019 193.892 62.5185 194.209 63.1057C194.525 63.693 194.691 64.3497 194.691 65.0167V65.9554H221.736C222.307 65.9554 222.854 65.7287 223.257 65.3252C223.661 64.9217 223.888 64.3744 223.888 63.8037C223.888 63.2331 223.661 62.6858 223.257 62.2823C222.854 61.8788 222.307 61.6521 221.736 61.6521H192.878Z" fill="#E6E6E6"/>
<path d="M194.974 54.6592C194.975 54.0888 195.202 53.5419 195.605 53.1385C196.008 52.7351 196.555 52.5082 197.126 52.5076H206.27C206.841 52.5076 207.388 52.7343 207.791 53.1378C208.195 53.5413 208.422 54.0886 208.422 54.6592C208.422 55.2299 208.195 55.7772 207.791 56.1807C207.388 56.5842 206.841 56.8109 206.27 56.8109H197.126C196.555 56.8102 196.008 56.5833 195.605 56.1799C195.202 55.7766 194.975 55.2297 194.974 54.6592Z" fill="#E6E6E6"/>
<path d="M194.961 104.926H228.428C229.64 104.924 230.802 104.442 231.659 103.585C232.517 102.728 232.999 101.566 233 100.353V47.4121C232.999 46.1999 232.517 45.0377 231.659 44.1806C230.802 43.3234 229.64 42.8412 228.428 42.8399H174.968C173.756 42.8412 172.594 43.3234 171.737 44.1806C170.88 45.0377 170.397 46.1999 170.396 47.4121V60.5338H170.934V47.4121C170.935 46.3425 171.361 45.3171 172.117 44.5608C172.873 43.8044 173.899 43.379 174.968 43.3778H228.428C229.498 43.379 230.523 43.8044 231.279 44.5608C232.036 45.3171 232.461 46.3425 232.462 47.4121V100.353C232.461 101.423 232.036 102.448 231.279 103.205C230.523 103.961 229.498 104.386 228.428 104.388H194.961V104.926Z" fill="#CCCCCC"/>
<path d="M190.543 60.4445H126.06C124.849 60.4469 123.687 60.9294 122.83 61.7863C121.973 62.6432 121.491 63.8048 121.488 65.0167V128.891C121.49 130.103 121.972 131.266 122.829 132.123C123.686 132.98 124.848 133.462 126.06 133.463H190.543C191.756 133.462 192.918 132.98 193.775 132.123C194.632 131.266 195.114 130.103 195.116 128.891V65.0167C195.114 63.8045 194.632 62.6422 193.775 61.785C192.918 60.9279 191.756 60.4457 190.543 60.4445V60.4445ZM194.578 128.891C194.576 129.961 194.151 130.986 193.395 131.742C192.638 132.499 191.613 132.924 190.543 132.925H126.06C124.991 132.924 123.965 132.499 123.209 131.742C122.453 130.986 122.027 129.961 122.026 128.891V65.0167C122.028 63.9472 122.453 62.9221 123.21 62.1658C123.966 61.4096 124.991 60.984 126.06 60.9824H190.543C191.613 60.9837 192.638 61.4091 193.395 62.1654C194.151 62.9217 194.576 63.9471 194.578 65.0167V128.891Z" fill="#3F3D56"/>
<path d="M185.466 85.3202H131.138C130.567 85.3202 130.02 85.0935 129.617 84.69C129.213 84.2865 128.986 83.7392 128.986 83.1686C128.986 82.5979 129.213 82.0506 129.617 81.6471C130.02 81.2436 130.567 81.0169 131.138 81.0169H185.466C186.036 81.0169 186.583 81.2436 186.987 81.6471C187.39 82.0506 187.617 82.5979 187.617 83.1686C187.617 83.7392 187.39 84.2865 186.987 84.69C186.583 85.0935 186.036 85.3202 185.466 85.3202Z" fill="#CCCCCC"/>
<path d="M170.001 76.1757H146.602C146.032 76.1757 145.484 75.949 145.081 75.5455C144.677 75.142 144.451 74.5947 144.451 74.024C144.451 73.4534 144.677 72.9061 145.081 72.5026C145.484 72.0991 146.032 71.8724 146.602 71.8724H170.001C170.571 71.8724 171.119 72.0991 171.522 72.5026C171.926 72.9061 172.152 73.4534 172.152 74.024C172.152 74.5947 171.926 75.142 171.522 75.5455C171.119 75.949 170.571 76.1757 170.001 76.1757Z" fill="#FF504D"/>
<path d="M154.402 98.2301H131.003C130.433 98.2301 129.885 98.0034 129.482 97.5999C129.078 97.1964 128.852 96.6491 128.852 96.0784C128.852 95.5078 129.078 94.9605 129.482 94.557C129.885 94.1535 130.433 93.9268 131.003 93.9268H154.402C154.972 93.9268 155.52 94.1535 155.923 94.557C156.327 94.9605 156.553 95.5078 156.553 96.0784C156.553 96.6491 156.327 97.1964 155.923 97.5999C155.52 98.0034 154.972 98.2301 154.402 98.2301Z" fill="#CCCCCC"/>
<path d="M154.402 107.644H131.003C130.433 107.644 129.885 107.417 129.482 107.013C129.078 106.61 128.852 106.063 128.852 105.492C128.852 104.921 129.078 104.374 129.482 103.97C129.885 103.567 130.433 103.34 131.003 103.34H154.402C154.972 103.34 155.52 103.567 155.923 103.97C156.327 104.374 156.553 104.921 156.553 105.492C156.553 106.063 156.327 106.61 155.923 107.013C155.52 107.417 154.972 107.644 154.402 107.644Z" fill="#CCCCCC"/>
<path d="M154.402 117.057H131.003C130.433 117.057 129.885 116.83 129.482 116.427C129.078 116.023 128.852 115.476 128.852 114.905C128.852 114.335 129.078 113.787 129.482 113.384C129.885 112.98 130.433 112.754 131.003 112.754H154.402C154.972 112.754 155.52 112.98 155.923 113.384C156.327 113.787 156.553 114.335 156.553 114.905C156.553 115.476 156.327 116.023 155.923 116.427C155.52 116.83 154.972 117.057 154.402 117.057Z" fill="#CCCCCC"/>
<path d="M183.584 100.075C185.802 100.075 187.6 98.277 187.6 96.0594C187.6 93.8418 185.802 92.0441 183.584 92.0441C181.367 92.0441 179.569 93.8418 179.569 96.0594C179.569 98.277 181.367 100.075 183.584 100.075Z" fill="#FF504D"/>
<path d="M183.187 97.5911C183.096 97.5913 183.008 97.562 182.936 97.5078L182.932 97.5045L181.988 96.7826C181.9 96.715 181.842 96.615 181.827 96.5047C181.813 96.3945 181.843 96.283 181.91 96.1947C181.978 96.1064 182.078 96.0487 182.188 96.0341C182.298 96.0195 182.41 96.0494 182.498 96.117L183.109 96.5857L184.554 94.7014C184.587 94.6577 184.629 94.6211 184.677 94.5935C184.724 94.566 184.777 94.5481 184.831 94.5409C184.886 94.5337 184.942 94.5373 184.995 94.5515C185.048 94.5657 185.098 94.5903 185.141 94.6238L185.142 94.6239L185.133 94.6363L185.142 94.6239C185.23 94.6916 185.288 94.7916 185.302 94.9018C185.317 95.012 185.287 95.1234 185.219 95.2117L183.52 97.4271C183.481 97.4781 183.431 97.5194 183.373 97.5478C183.315 97.5761 183.251 97.5908 183.187 97.5906L183.187 97.5911Z" fill="white"/>
<path d="M120.919 37.482C119.685 37.482 118.479 37.116 117.452 36.4302C116.426 35.7444 115.626 34.7697 115.154 33.6293C114.681 32.4889 114.558 31.234 114.799 30.0234C115.039 28.8128 115.634 27.7007 116.507 26.8279C117.379 25.9551 118.491 25.3607 119.702 25.1199C120.913 24.8791 122.167 25.0027 123.308 25.4751C124.448 25.9474 125.423 26.7474 126.109 27.7737C126.794 28.8 127.16 30.0067 127.16 31.241C127.159 32.8957 126.5 34.482 125.33 35.652C124.16 36.822 122.574 37.4802 120.919 37.482V37.482ZM120.919 25.5379C119.792 25.5379 118.689 25.8724 117.751 26.4991C116.813 27.1258 116.082 28.0165 115.651 29.0586C115.219 30.1007 115.106 31.2474 115.326 32.3537C115.546 33.46 116.089 34.4762 116.887 35.2737C117.685 36.0713 118.701 36.6145 119.807 36.8345C120.913 37.0546 122.06 36.9416 123.102 36.51C124.144 36.0783 125.035 35.3474 125.661 34.4095C126.288 33.4716 126.623 32.369 126.623 31.241C126.621 29.729 126.019 28.2793 124.95 27.2102C123.881 26.141 122.431 25.5396 120.919 25.5379V25.5379Z" fill="#CCCCCC"/>
<path d="M120.327 33.5192C120.193 33.5194 120.062 33.4759 119.955 33.3953L119.948 33.3903L118.545 32.3167C118.413 32.216 118.327 32.0674 118.306 31.9034C118.284 31.7394 118.328 31.5735 118.429 31.4422C118.53 31.3109 118.678 31.225 118.842 31.2034C119.006 31.1817 119.172 31.2261 119.303 31.3267L120.213 32.0238L122.361 29.2212C122.411 29.1563 122.473 29.1017 122.544 29.0608C122.614 29.0198 122.693 28.9932 122.774 28.9825C122.855 28.9718 122.937 28.9771 123.017 28.9983C123.096 29.0194 123.17 29.056 123.235 29.1058L123.235 29.1059L123.222 29.1244L123.235 29.1059C123.366 29.2067 123.452 29.3553 123.474 29.5192C123.495 29.6831 123.451 29.8489 123.351 29.9802L120.824 33.2752C120.765 33.3511 120.69 33.4126 120.604 33.4547C120.518 33.4969 120.424 33.5187 120.328 33.5184L120.327 33.5192Z" fill="#CCCCCC"/>
<path d="M183.584 109.488C185.802 109.488 187.6 107.69 187.6 105.473C187.6 103.255 185.802 101.458 183.584 101.458C181.367 101.458 179.569 103.255 179.569 105.473C179.569 107.69 181.367 109.488 183.584 109.488Z" fill="#FF504D"/>
<path d="M183.187 107.005C183.096 107.005 183.008 106.975 182.936 106.921L182.932 106.918L181.988 106.196C181.944 106.163 181.908 106.121 181.88 106.073C181.852 106.025 181.835 105.973 181.827 105.918C181.82 105.864 181.824 105.808 181.838 105.755C181.852 105.702 181.877 105.652 181.91 105.608C181.944 105.564 181.986 105.528 182.033 105.5C182.081 105.473 182.134 105.455 182.188 105.448C182.243 105.44 182.298 105.444 182.351 105.458C182.405 105.472 182.454 105.497 182.498 105.53L183.109 105.999L184.554 104.115C184.587 104.071 184.629 104.035 184.677 104.007C184.724 103.979 184.777 103.962 184.831 103.954C184.886 103.947 184.942 103.951 184.995 103.965C185.048 103.979 185.098 104.004 185.141 104.037L185.142 104.037L185.133 104.05L185.142 104.037C185.23 104.105 185.288 104.205 185.302 104.315C185.317 104.425 185.287 104.537 185.219 104.625L183.52 106.841C183.481 106.892 183.431 106.933 183.373 106.961C183.315 106.99 183.251 107.004 183.187 107.004L183.187 107.005Z" fill="white"/>
<path d="M183.584 118.921C185.802 118.921 187.6 117.123 187.6 114.905C187.6 112.688 185.802 110.89 183.584 110.89C181.367 110.89 179.569 112.688 179.569 114.905C179.569 117.123 181.367 118.921 183.584 118.921Z" fill="#FF504D"/>
<path d="M183.186 116.437C183.096 116.437 183.008 116.408 182.936 116.354L182.931 116.35L181.988 115.629C181.899 115.561 181.842 115.461 181.827 115.351C181.813 115.241 181.843 115.129 181.91 115.041C181.978 114.953 182.078 114.895 182.188 114.88C182.298 114.866 182.41 114.895 182.498 114.963L183.109 115.432L184.553 113.547C184.587 113.504 184.629 113.467 184.676 113.439C184.724 113.412 184.777 113.394 184.831 113.387C184.886 113.38 184.941 113.383 184.994 113.397C185.048 113.412 185.097 113.436 185.141 113.47L185.141 113.47L185.132 113.482L185.141 113.47C185.23 113.538 185.287 113.638 185.302 113.748C185.316 113.858 185.286 113.969 185.219 114.058L183.52 116.273C183.481 116.324 183.43 116.365 183.372 116.394C183.315 116.422 183.251 116.437 183.187 116.437L183.186 116.437Z" fill="white"/>
<path d="M158.307 54.9642C154.072 54.8919 152.147 51.6781 152.147 48.7226C152.147 45.7671 154.072 42.5537 158.299 42.4821H158.308C162.534 42.5542 164.459 45.7681 164.459 48.7236C164.459 51.679 162.534 54.8926 158.307 54.9642ZM158.303 43.0201C154.443 43.0876 152.685 46.0229 152.685 48.7226C152.685 51.4235 154.444 54.3603 158.307 54.4263C162.161 54.3609 163.921 51.4243 163.921 48.7236C163.921 46.0239 162.163 43.0885 158.303 43.0201V43.0201Z" fill="#FF504D"/>
<path d="M196.225 37.482C194.99 37.482 193.784 37.116 192.757 36.4302C191.731 35.7444 190.931 34.7697 190.459 33.6293C189.987 32.4889 189.863 31.234 190.104 30.0234C190.345 28.8128 190.939 27.7007 191.812 26.8279C192.685 25.9551 193.797 25.3607 195.007 25.1199C196.218 24.8791 197.473 25.0027 198.613 25.4751C199.753 25.9474 200.728 26.7474 201.414 27.7737C202.1 28.8 202.466 30.0067 202.466 31.241C202.464 32.8957 201.806 34.482 200.636 35.652C199.466 36.822 197.879 37.4802 196.225 37.482V37.482ZM196.225 25.5379C195.097 25.5379 193.994 25.8724 193.056 26.4991C192.118 27.1258 191.388 28.0165 190.956 29.0586C190.524 30.1007 190.411 31.2474 190.631 32.3537C190.851 33.46 191.395 34.4762 192.192 35.2737C192.99 36.0713 194.006 36.6145 195.112 36.8345C196.218 37.0546 197.365 36.9416 198.407 36.51C199.449 36.0783 200.34 35.3474 200.967 34.4095C201.593 33.4716 201.928 32.369 201.928 31.241C201.926 29.729 201.325 28.2793 200.255 27.2102C199.186 26.141 197.737 25.5396 196.225 25.5379V25.5379Z" fill="#CCCCCC"/>
<path d="M88.8565 143.3C88.6933 142.94 88.611 142.549 88.6154 142.153C88.6198 141.758 88.7109 141.368 88.8822 141.012C89.0535 140.656 89.3008 140.341 89.6068 140.091C89.9127 139.84 90.2699 139.66 90.6531 139.563L91.4684 129.986L95.3894 133.079L94.0141 141.699C94.1351 142.354 94.0119 143.03 93.6677 143.6C93.3234 144.17 92.7822 144.593 92.1464 144.791C91.5107 144.988 90.8246 144.945 90.2183 144.671C89.6119 144.396 89.1274 143.908 88.8565 143.3H88.8565Z" fill="#FFB8B8"/>
<path d="M91.3782 138.557C91.096 138.52 90.8361 138.385 90.644 138.174C90.452 137.964 90.3402 137.693 90.3284 137.409L89.8744 126.541C89.7112 122.635 90.5062 118.748 92.19 115.22L96.2155 106.784C96.4852 106.277 96.872 105.841 97.3439 105.513C97.8157 105.186 98.3589 104.975 98.9285 104.899C99.4813 104.821 100.045 104.878 100.571 105.065C101.097 105.252 101.57 105.563 101.95 105.972C102.143 106.178 102.316 106.401 102.467 106.64C102.771 107.132 102.947 107.693 102.979 108.271C103.011 108.849 102.898 109.426 102.651 109.949L96.478 126.812L96.0031 137.798C95.9958 137.965 95.9543 138.128 95.8811 138.278C95.8079 138.427 95.7046 138.56 95.5777 138.668C95.4507 138.776 95.3029 138.857 95.1434 138.905C94.9838 138.953 94.8161 138.968 94.6507 138.948L91.3942 138.56L91.3782 138.557Z" fill="#C9CACD"/>
<path d="M79.8296 186.041L82.8488 187.366L89.3972 176.351L84.9412 174.395L79.8296 186.041Z" fill="#FFB8B8"/>
<path d="M79.4922 184.717L85.4381 187.327L85.4383 187.327C85.9359 187.545 86.3856 187.86 86.7618 188.252C87.1379 188.644 87.4331 189.107 87.6305 189.613C87.8279 190.119 87.9236 190.659 87.9122 191.203C87.9008 191.746 87.7825 192.282 87.5641 192.779L87.51 192.903L77.7749 188.629L79.4922 184.717Z" fill="#2F2E41"/>
<path d="M120.364 189.706H123.661L125.23 176.988L120.363 176.988L120.364 189.706Z" fill="#FFB8B8"/>
<path d="M119.522 188.63L126.016 188.629H126.016C126.56 188.629 127.098 188.736 127.6 188.944C128.102 189.152 128.558 189.457 128.942 189.841C129.327 190.226 129.631 190.682 129.839 191.184C130.047 191.686 130.154 192.224 130.154 192.768V192.902L119.523 192.903L119.522 188.63Z" fill="#2F2E41"/>
<path d="M87.1531 186.09C87.0263 186.09 86.9002 186.07 86.7796 186.031L81.1888 184.234C80.8869 184.136 80.6354 183.923 80.4883 183.642C80.3412 183.36 80.3101 183.032 80.4017 182.728L98.9418 123.688L112.829 120.965L112.878 121.044C122.059 135.984 125.123 158.806 127.068 182.987C127.091 183.303 126.991 183.615 126.788 183.859C126.585 184.102 126.296 184.256 125.981 184.289L119.869 184.901C119.584 184.93 119.297 184.858 119.061 184.695C118.825 184.532 118.654 184.291 118.58 184.014L107.389 144.421C107.367 144.341 107.321 144.269 107.256 144.216C107.191 144.162 107.112 144.131 107.028 144.125C106.945 144.119 106.862 144.139 106.79 144.183C106.719 144.226 106.662 144.291 106.629 144.368L88.2613 185.358C88.1685 185.575 88.0141 185.761 87.8171 185.891C87.62 186.021 87.3892 186.09 87.1531 186.09V186.09Z" fill="#2F2E41"/>
<path d="M106.117 100.047C109.765 100.047 112.723 97.0893 112.723 93.441C112.723 89.7927 109.765 86.8352 106.117 86.8352C102.469 86.8352 99.5112 89.7927 99.5112 93.441C99.5112 97.0893 102.469 100.047 106.117 100.047Z" fill="#FFB8B8"/>
<path d="M97.7601 125.436L97.7148 125.342C97.6841 125.277 94.6407 118.821 94.9239 111.374C95.0177 108.929 96.042 106.613 97.7872 104.899C99.5325 103.185 101.867 102.203 104.312 102.153V102.153C106.566 102.109 108.764 102.862 110.517 104.278C112.271 105.695 113.468 107.686 113.898 109.899C114.746 114.228 114.725 118.33 113.835 122.087L113.815 122.171L113.731 122.188L97.7601 125.436Z" fill="#C9CACD"/>
<path d="M131.439 134.755C131.048 134.698 130.674 134.555 130.344 134.337C130.014 134.119 129.736 133.831 129.529 133.494C129.323 133.157 129.192 132.779 129.147 132.386C129.103 131.993 129.144 131.596 129.27 131.221L121.662 125.349L126.386 123.728L132.886 129.552C133.502 129.805 134.004 130.275 134.297 130.873C134.589 131.471 134.652 132.156 134.474 132.797C134.295 133.438 133.888 133.992 133.328 134.353C132.769 134.714 132.097 134.857 131.439 134.755H131.439Z" fill="#FFB8B8"/>
<path d="M112.768 121.81L112.75 121.782L104.729 108.792C104.449 108.29 104.292 107.729 104.272 107.155C104.252 106.581 104.369 106.01 104.614 105.49C104.848 104.983 105.201 104.54 105.643 104.199C106.085 103.858 106.603 103.629 107.153 103.531V103.531C107.43 103.48 107.711 103.456 107.993 103.458C108.572 103.469 109.139 103.625 109.642 103.911C110.145 104.197 110.569 104.604 110.875 105.096L121.707 119.418L130.685 125.768C130.821 125.864 130.936 125.987 131.022 126.13C131.108 126.272 131.164 126.431 131.186 126.596C131.208 126.762 131.196 126.929 131.15 127.09C131.104 127.25 131.025 127.399 130.919 127.527L128.829 130.054C128.646 130.277 128.39 130.426 128.107 130.476C127.823 130.526 127.531 130.473 127.284 130.327L112.768 121.81Z" fill="#C9CACD"/>
<path d="M104.935 93.0312C105.422 92.2303 106.496 92.004 107.429 92.0954C108.362 92.1867 109.269 92.5146 110.206 92.5073C112.809 92.4872 114.817 89.3153 113.723 86.954C112.826 85.0174 110.585 84.167 108.558 83.4996C104.307 82.1003 99.4247 80.7558 95.5676 83.0247C94.3385 83.7691 93.3304 84.8282 92.6474 86.0926C91.9645 87.357 91.6314 88.7807 91.6827 90.2169C91.7695 92.0025 92.4533 93.8367 91.875 95.5283C91.2078 97.4798 89.0923 98.5269 87.093 99.0334C83.5885 99.9212 79.8934 99.7782 76.3669 100.575C72.8404 101.371 69.2267 103.485 68.2761 106.974C67.6517 109.265 68.3033 111.731 69.3822 113.847C70.4831 116.005 72.0129 117.916 73.878 119.462C75.7431 121.009 77.9043 122.158 80.2291 122.84C82.5539 123.522 84.9935 123.722 87.3984 123.428C89.8032 123.134 92.1228 122.352 94.215 121.131C98.4783 118.641 101.556 114.434 103.391 109.851C104.432 107.177 105.164 104.394 105.574 101.554C105.985 98.8963 105.637 96.2103 104.892 93.6258C104.857 93.5293 104.843 93.4264 104.85 93.3239C104.858 93.2214 104.887 93.1217 104.935 93.0312V93.0312Z" fill="#2F2E41"/>
</svg>
