<svg width="300" height="220" viewBox="0 0 300 220" fill="none" xmlns="http://www.w3.org/2000/svg">
<path d="M263.083 42H72.9833C72.2592 42.0007 71.565 42.2883 71.053 42.7998C70.541 43.3112 70.2531 44.0048 70.2524 44.7281V173.412C70.2531 174.135 70.541 174.828 71.053 175.34C71.565 175.851 72.2592 176.139 72.9833 176.14H263.083C263.478 176.14 263.868 176.054 264.227 175.889C264.585 175.724 264.904 175.482 265.16 175.182C265.181 175.159 265.201 175.134 265.219 175.107C265.382 174.908 265.514 174.686 265.611 174.447C265.748 174.119 265.818 173.767 265.817 173.412V44.7281C265.817 44.0043 265.528 43.3104 265.015 42.7988C264.503 42.2873 263.808 42 263.083 42V42ZM265.038 173.412C265.038 173.792 264.926 174.164 264.715 174.482C264.528 174.761 264.274 174.989 263.976 175.145C263.7 175.287 263.394 175.361 263.083 175.361H72.9833C72.466 175.36 71.9701 175.154 71.6043 174.789C71.2386 174.424 71.0328 173.928 71.0322 173.412V44.7281C71.0328 44.2114 71.2386 43.716 71.6043 43.3506C71.9701 42.9852 72.466 42.7796 72.9833 42.779H263.083C263.601 42.7789 264.098 42.9842 264.464 43.3496C264.831 43.7151 265.037 44.2109 265.038 44.7281V173.412Z" fill="#3F3D56"/>
<path d="M265.426 52.934H70.6416V53.7139H265.426V52.934Z" fill="#3F3D56"/>
<path d="M77.2776 50.1888C78.5711 50.1888 79.6197 49.1413 79.6197 47.8492C79.6197 46.557 78.5711 45.5095 77.2776 45.5095C75.9841 45.5095 74.9355 46.557 74.9355 47.8492C74.9355 49.1413 75.9841 50.1888 77.2776 50.1888Z" fill="#3F3D56"/>
<path d="M84.011 50.1888C85.3045 50.1888 86.3531 49.1413 86.3531 47.8492C86.3531 46.557 85.3045 45.5095 84.011 45.5095C82.7175 45.5095 81.6689 46.557 81.6689 47.8492C81.6689 49.1413 82.7175 50.1888 84.011 50.1888Z" fill="#3F3D56"/>
<path d="M90.7444 50.1888C92.0379 50.1888 93.0865 49.1413 93.0865 47.8492C93.0865 46.557 92.0379 45.5095 90.7444 45.5095C89.4509 45.5095 88.4023 46.557 88.4023 47.8492C88.4023 49.1413 89.4509 50.1888 90.7444 50.1888Z" fill="#3F3D56"/>
<path d="M216.921 70.9866H119.209C118.129 70.9866 117.093 70.5581 116.33 69.7954C115.566 69.0327 115.137 67.9982 115.137 66.9195C115.137 65.8408 115.566 64.8064 116.33 64.0436C117.093 63.2809 118.129 62.8524 119.209 62.8524H216.921C218 62.8524 219.036 63.2809 219.799 64.0436C220.563 64.8064 220.992 65.8408 220.992 66.9195C220.992 67.9982 220.563 69.0327 219.799 69.7954C219.036 70.5581 218 70.9866 216.921 70.9866ZM119.209 63.4781C118.295 63.4781 117.419 63.8407 116.773 64.4861C116.127 65.1315 115.764 66.0068 115.764 66.9195C115.764 67.8322 116.127 68.7076 116.773 69.3529C117.419 69.9983 118.295 70.3609 119.209 70.3609H216.921C217.834 70.3609 218.71 69.9983 219.357 69.3529C220.003 68.7076 220.366 67.8322 220.366 66.9195C220.366 66.0068 220.003 65.1315 219.357 64.4861C218.71 63.8407 217.834 63.4781 216.921 63.4781H119.209Z" fill="#3F3D56"/>
<path d="M120.024 95.8586H111.255C110.591 95.8586 109.954 95.5949 109.484 95.1255C109.014 94.6561 108.75 94.0195 108.75 93.3557C108.75 92.692 109.014 92.0554 109.484 91.586C109.954 91.1166 110.591 90.8529 111.255 90.8529H120.024C120.689 90.8529 121.326 91.1166 121.796 91.586C122.266 92.0554 122.53 92.692 122.53 93.3557C122.53 94.0195 122.266 94.6561 121.796 95.1255C121.326 95.5949 120.689 95.8586 120.024 95.8586Z" fill="#CCCCCC"/>
<path d="M130.359 104.306H111.255C110.591 104.306 109.954 104.042 109.484 103.573C109.014 103.103 108.75 102.467 108.75 101.803C108.75 101.139 109.014 100.502 109.484 100.033C109.954 99.5637 110.591 99.3 111.255 99.3H130.359C131.024 99.3 131.661 99.5637 132.131 100.033C132.601 100.502 132.865 101.139 132.865 101.803C132.865 102.467 132.601 103.103 132.131 103.573C131.661 104.042 131.024 104.306 130.359 104.306Z" fill="#CCCCCC"/>
<path d="M121.59 132.775H112.821C112.157 132.775 111.52 132.512 111.05 132.042C110.58 131.573 110.316 130.936 110.316 130.273C110.316 129.609 110.58 128.972 111.05 128.503C111.52 128.033 112.157 127.77 112.821 127.77H121.59C122.255 127.77 122.892 128.033 123.362 128.503C123.832 128.972 124.096 129.609 124.096 130.273C124.096 130.936 123.832 131.573 123.362 132.042C122.892 132.512 122.255 132.775 121.59 132.775Z" fill="#CCCCCC"/>
<path d="M131.925 141.223H112.821C112.157 141.223 111.52 140.959 111.05 140.489C110.58 140.02 110.316 139.383 110.316 138.72C110.316 138.056 110.58 137.419 111.05 136.95C111.52 136.481 112.157 136.217 112.821 136.217H131.925C132.59 136.217 133.227 136.481 133.697 136.95C134.167 137.419 134.431 138.056 134.431 138.72C134.431 139.383 134.167 140.02 133.697 140.489C133.227 140.959 132.59 141.223 131.925 141.223Z" fill="#CCCCCC"/>
<path d="M179.215 131.837H170.446C169.782 131.837 169.145 131.573 168.675 131.104C168.205 130.634 167.941 129.998 167.941 129.334C167.941 128.67 168.205 128.034 168.675 127.564C169.145 127.095 169.782 126.831 170.446 126.831H179.215C179.88 126.831 180.517 127.095 180.987 127.564C181.457 128.034 181.721 128.67 181.721 129.334C181.721 129.998 181.457 130.634 180.987 131.104C180.517 131.573 179.88 131.837 179.215 131.837Z" fill="#CCCCCC"/>
<path d="M189.55 140.284H170.446C169.782 140.284 169.145 140.02 168.675 139.551C168.205 139.082 167.941 138.445 167.941 137.781C167.941 137.117 168.205 136.481 168.675 136.011C169.145 135.542 169.782 135.278 170.446 135.278H189.55C190.215 135.278 190.852 135.542 191.322 136.011C191.792 136.481 192.056 137.117 192.056 137.781C192.056 138.445 191.792 139.082 191.322 139.551C190.852 140.02 190.215 140.284 189.55 140.284Z" fill="#CCCCCC"/>
<path d="M178.276 97.4229H169.507C168.842 97.4229 168.205 97.1592 167.735 96.6898C167.265 96.2204 167.001 95.5838 167.001 94.92C167.001 94.2562 167.265 93.6196 167.735 93.1502C168.205 92.6809 168.842 92.4172 169.507 92.4172H178.276C178.94 92.4172 179.578 92.6809 180.048 93.1502C180.517 93.6196 180.781 94.2562 180.781 94.92C180.781 95.5838 180.517 96.2204 180.048 96.6898C179.578 97.1592 178.94 97.4229 178.276 97.4229Z" fill="#CCCCCC"/>
<path d="M188.611 105.87H169.507C168.842 105.87 168.205 105.606 167.735 105.137C167.265 104.667 167.001 104.031 167.001 103.367C167.001 102.703 167.265 102.067 167.735 101.597C168.205 101.128 168.842 100.864 169.507 100.864H188.611C189.275 100.864 189.913 101.128 190.382 101.597C190.852 102.067 191.116 102.703 191.116 103.367C191.116 104.031 190.852 104.667 190.382 105.137C189.913 105.606 189.275 105.87 188.611 105.87Z" fill="#CCCCCC"/>
<path d="M236.84 95.5457H228.071C227.407 95.5457 226.77 95.282 226.3 94.8127C225.83 94.3433 225.566 93.7067 225.566 93.0429C225.566 92.3791 225.83 91.7425 226.3 91.2731C226.77 90.8037 227.407 90.54 228.071 90.54H236.84C237.505 90.54 238.142 90.8037 238.612 91.2731C239.082 91.7425 239.346 92.3791 239.346 93.0429C239.346 93.7067 239.082 94.3433 238.612 94.8127C238.142 95.282 237.505 95.5457 236.84 95.5457Z" fill="#CCCCCC"/>
<path d="M247.175 103.993H228.071C227.407 103.993 226.77 103.729 226.3 103.26C225.83 102.79 225.566 102.154 225.566 101.49C225.566 100.826 225.83 100.19 226.3 99.7202C226.77 99.2508 227.407 98.9871 228.071 98.9871H247.175C247.84 98.9871 248.477 99.2508 248.947 99.7202C249.417 100.19 249.681 100.826 249.681 101.49C249.681 102.154 249.417 102.79 248.947 103.26C248.477 103.729 247.84 103.993 247.175 103.993Z" fill="#CCCCCC"/>
<path d="M95.7841 106.965C100.973 106.965 105.179 102.763 105.179 97.5793C105.179 92.3957 100.973 88.1936 95.7841 88.1936C90.5951 88.1936 86.3887 92.3957 86.3887 97.5793C86.3887 102.763 90.5951 106.965 95.7841 106.965Z" fill="#FF504D"/>
<path d="M100.169 101.803H91.3995C91.1504 101.803 90.9116 101.704 90.7354 101.528C90.5593 101.352 90.4602 101.113 90.46 100.864V94.2943C90.4602 94.0455 90.5593 93.8069 90.7354 93.631C90.9116 93.455 91.1504 93.3561 91.3995 93.3558H93.8681C94.0286 93.3552 94.1866 93.396 94.3268 93.4742C94.467 93.5524 94.5846 93.6654 94.6683 93.8023L95.3568 94.9201H100.169C100.418 94.9203 100.656 95.0193 100.833 95.1953C101.009 95.3712 101.108 95.6098 101.108 95.8586V100.864C101.108 101.113 101.009 101.352 100.833 101.528C100.656 101.704 100.418 101.803 100.169 101.803V101.803ZM91.3995 93.9815C91.3165 93.9816 91.2369 94.0146 91.1782 94.0732C91.1195 94.1319 91.0864 94.2114 91.0863 94.2943V100.864C91.0864 100.947 91.1195 101.027 91.1782 101.085C91.2369 101.144 91.3165 101.177 91.3995 101.177H100.169C100.252 101.177 100.331 101.144 100.39 101.085C100.449 101.027 100.482 100.947 100.482 100.864V95.8586C100.482 95.7757 100.449 95.6962 100.39 95.6375C100.331 95.5789 100.252 95.5459 100.169 95.5458H95.0069L94.1349 94.1303C94.107 94.0847 94.0678 94.047 94.021 94.0209C93.9743 93.9949 93.9216 93.9813 93.8681 93.9815H91.3995Z" fill="white"/>
<path d="M153.409 108.529C158.598 108.529 162.804 104.327 162.804 99.1436C162.804 93.96 158.598 89.7579 153.409 89.7579C148.22 89.7579 144.014 93.96 144.014 99.1436C144.014 104.327 148.22 108.529 153.409 108.529Z" fill="#FF504D"/>
<path d="M157.481 105.088H149.338C149.089 105.088 148.85 104.989 148.674 104.813C148.498 104.637 148.399 104.398 148.398 104.149V94.1379C148.399 93.8891 148.498 93.6505 148.674 93.4746C148.85 93.2986 149.089 93.1996 149.338 93.1994H155.238C155.452 93.1996 155.66 93.2726 155.827 93.4064L158.069 95.2065C158.179 95.2942 158.268 95.4055 158.328 95.5322C158.389 95.6589 158.42 95.7976 158.42 95.9381V104.149C158.42 104.398 158.321 104.637 158.145 104.813C157.969 104.989 157.73 105.088 157.481 105.088V105.088ZM149.338 93.8251C149.255 93.8252 149.175 93.8582 149.117 93.9168C149.058 93.9755 149.025 94.055 149.025 94.1379V104.149C149.025 104.232 149.058 104.312 149.117 104.37C149.175 104.429 149.255 104.462 149.338 104.462H157.481C157.564 104.462 157.643 104.429 157.702 104.37C157.761 104.312 157.794 104.232 157.794 104.149V95.9381C157.794 95.8913 157.783 95.845 157.763 95.8028C157.743 95.7606 157.713 95.7235 157.677 95.6943L155.434 93.894C155.378 93.8494 155.309 93.8251 155.238 93.8251H149.338Z" fill="white"/>
<path d="M155.915 97.5793H150.904C150.821 97.5793 150.741 97.5464 150.683 97.4877C150.624 97.429 150.591 97.3494 150.591 97.2665C150.591 97.1835 150.624 97.1039 150.683 97.0452C150.741 96.9866 150.821 96.9536 150.904 96.9536H155.915C155.998 96.9536 156.078 96.9866 156.136 97.0452C156.195 97.1039 156.228 97.1835 156.228 97.2665C156.228 97.3494 156.195 97.429 156.136 97.4877C156.078 97.5464 155.998 97.5793 155.915 97.5793Z" fill="white"/>
<path d="M155.915 99.4565H150.904C150.821 99.4565 150.741 99.4235 150.683 99.3648C150.624 99.3061 150.591 99.2266 150.591 99.1436C150.591 99.0606 150.624 98.981 150.683 98.9224C150.741 98.8637 150.821 98.8307 150.904 98.8307H155.915C155.998 98.8307 156.078 98.8637 156.136 98.9224C156.195 98.981 156.228 99.0606 156.228 99.1436C156.228 99.2266 156.195 99.3061 156.136 99.3648C156.078 99.4235 155.998 99.4565 155.915 99.4565Z" fill="white"/>
<path d="M155.915 101.334H150.904C150.821 101.334 150.741 101.301 150.683 101.242C150.624 101.183 150.591 101.104 150.591 101.021C150.591 100.938 150.624 100.858 150.683 100.8C150.741 100.741 150.821 100.708 150.904 100.708H155.915C155.998 100.708 156.078 100.741 156.136 100.8C156.195 100.858 156.228 100.938 156.228 101.021C156.228 101.104 156.195 101.183 156.136 101.242C156.078 101.301 155.998 101.334 155.915 101.334Z" fill="white"/>
<path d="M211.348 106.652C216.536 106.652 220.743 102.45 220.743 97.2664C220.743 92.0829 216.536 87.8808 211.348 87.8808C206.159 87.8808 201.952 92.0829 201.952 97.2664C201.952 102.45 206.159 106.652 211.348 106.652Z" fill="#FF504D"/>
<path d="M215.732 100.708H206.963C206.714 100.708 206.475 100.609 206.299 100.433C206.123 100.257 206.024 100.018 206.023 99.7693V94.7636C206.024 94.5148 206.123 94.2762 206.299 94.1003C206.475 93.9243 206.714 93.8253 206.963 93.8251H215.732C215.981 93.8253 216.22 93.9243 216.396 94.1003C216.572 94.2762 216.671 94.5148 216.672 94.7636V99.7693C216.671 100.018 216.572 100.257 216.396 100.433C216.22 100.609 215.981 100.708 215.732 100.708V100.708ZM206.963 94.4508C206.88 94.4509 206.8 94.4839 206.742 94.5425C206.683 94.6012 206.65 94.6807 206.65 94.7636V99.7693C206.65 99.8523 206.683 99.9318 206.742 99.9904C206.8 100.049 206.88 100.082 206.963 100.082H215.732C215.815 100.082 215.895 100.049 215.953 99.9904C216.012 99.9318 216.045 99.8523 216.045 99.7693V94.7636C216.045 94.6807 216.012 94.6012 215.953 94.5425C215.895 94.4839 215.815 94.4509 215.732 94.4508H206.963Z" fill="white"/>
<path d="M211.347 98.0918C211.171 98.0921 210.999 98.043 210.849 97.9502L206.17 95.029C206.1 94.9849 206.05 94.9148 206.031 94.834C206.013 94.7532 206.027 94.6683 206.071 94.5981C206.115 94.5278 206.185 94.4778 206.266 94.4591C206.347 94.4404 206.432 94.4545 206.502 94.4983L211.181 97.4195C211.231 97.4504 211.289 97.4667 211.347 97.4667C211.406 97.4667 211.463 97.4504 211.513 97.4195L216.192 94.4983C216.262 94.4545 216.347 94.4404 216.428 94.4591C216.509 94.4778 216.579 94.5278 216.623 94.5981C216.667 94.6683 216.681 94.7532 216.663 94.834C216.644 94.9148 216.594 94.9849 216.524 95.029L211.845 97.9502C211.696 98.0431 211.523 98.0921 211.347 98.0918V98.0918Z" fill="white"/>
<path d="M95.7841 143.882C100.973 143.882 105.179 139.68 105.179 134.496C105.179 129.313 100.973 125.111 95.7841 125.111C90.5951 125.111 86.3887 129.313 86.3887 134.496C86.3887 139.68 90.5951 143.882 95.7841 143.882Z" fill="#FF504D"/>
<path d="M100.169 137.938H91.3995C91.1504 137.937 90.9116 137.838 90.7354 137.662C90.5593 137.486 90.4602 137.248 90.46 136.999V131.993C90.4602 131.745 90.5593 131.506 90.7354 131.33C90.9116 131.154 91.1504 131.055 91.3995 131.055H100.169C100.418 131.055 100.656 131.154 100.833 131.33C101.009 131.506 101.108 131.745 101.108 131.993V136.999C101.108 137.248 101.009 137.486 100.833 137.662C100.656 137.838 100.418 137.937 100.169 137.938ZM91.3995 131.681C91.3165 131.681 91.2369 131.714 91.1781 131.772C91.1194 131.831 91.0864 131.91 91.0863 131.993V136.999C91.0864 137.082 91.1194 137.162 91.1781 137.22C91.2369 137.279 91.3165 137.312 91.3995 137.312H100.169C100.252 137.312 100.331 137.279 100.39 137.22C100.449 137.162 100.482 137.082 100.482 136.999V131.993C100.482 131.91 100.449 131.831 100.39 131.772C100.331 131.714 100.252 131.681 100.169 131.681H91.3995Z" fill="white"/>
<path d="M98.7785 137.938H92.476C92.3661 137.938 92.258 137.909 92.1628 137.854C92.0676 137.799 91.9885 137.72 91.9335 137.625C91.8785 137.53 91.8496 137.422 91.8496 137.312C91.8496 137.202 91.8786 137.094 91.9336 136.999L93.832 133.714C93.887 133.619 93.966 133.54 94.0613 133.485C94.1565 133.43 94.2645 133.401 94.3745 133.401C94.4844 133.401 94.5924 133.43 94.6876 133.485C94.7829 133.54 94.862 133.619 94.9169 133.714L96.143 135.836L96.8533 134.606C96.9083 134.511 96.9874 134.432 97.0826 134.377C97.1779 134.323 97.2859 134.294 97.3958 134.294C97.5058 134.294 97.6138 134.323 97.709 134.377C97.8042 134.432 97.8833 134.511 97.9383 134.606L99.321 136.999C99.376 137.094 99.4049 137.202 99.4049 137.312C99.4049 137.422 99.376 137.53 99.321 137.625C99.266 137.72 99.1869 137.799 99.0917 137.854C98.9964 137.909 98.8884 137.938 98.7784 137.938H98.7785ZM98.7785 137.312L97.3958 134.919L96.4143 136.618C96.3868 136.665 96.3473 136.705 96.2997 136.732C96.2521 136.76 96.198 136.774 96.143 136.774V136.774C96.0881 136.774 96.034 136.76 95.9864 136.732C95.9388 136.705 95.8993 136.665 95.8718 136.618L94.3745 134.027L92.476 137.312H98.7785Z" fill="white"/>
<path d="M99.2289 133.558C99.5748 133.558 99.8553 133.277 99.8553 132.932C99.8553 132.586 99.5748 132.306 99.2289 132.306C98.883 132.306 98.6025 132.586 98.6025 132.932C98.6025 133.277 98.883 133.558 99.2289 133.558Z" fill="white"/>
<path d="M154.036 142.943C159.224 142.943 163.431 138.741 163.431 133.558C163.431 128.374 159.224 124.172 154.036 124.172C148.847 124.172 144.64 128.374 144.64 133.558C144.64 138.741 148.847 142.943 154.036 142.943Z" fill="#FF504D"/>
<path d="M61.5 197C78.897 197 93 195.209 93 193C93 190.791 78.897 189 61.5 189C44.103 189 30 190.791 30 193C30 195.209 44.103 197 61.5 197Z" fill="#E6E6E6"/>
<path d="M154.035 133.714C153.478 133.714 152.933 133.549 152.469 133.24C152.006 132.93 151.645 132.49 151.431 131.976C151.218 131.461 151.162 130.895 151.271 130.349C151.38 129.803 151.648 129.301 152.042 128.907C152.437 128.514 152.939 128.245 153.486 128.137C154.032 128.028 154.599 128.084 155.114 128.297C155.629 128.51 156.069 128.871 156.379 129.334C156.689 129.797 156.854 130.341 156.854 130.898C156.853 131.645 156.556 132.361 156.028 132.888C155.499 133.416 154.783 133.713 154.035 133.714V133.714ZM154.035 128.708C153.602 128.708 153.178 128.837 152.817 129.077C152.457 129.318 152.176 129.66 152.01 130.06C151.844 130.46 151.801 130.901 151.885 131.326C151.97 131.75 152.179 132.141 152.485 132.447C152.792 132.753 153.182 132.962 153.608 133.046C154.033 133.131 154.474 133.087 154.874 132.922C155.275 132.756 155.617 132.475 155.858 132.115C156.099 131.755 156.228 131.332 156.228 130.898C156.227 130.318 155.996 129.761 155.585 129.351C155.174 128.94 154.617 128.709 154.035 128.708Z" fill="white"/>
<path d="M156.541 139.033H151.53C151.24 139.032 150.961 138.917 150.756 138.712C150.55 138.506 150.434 138.228 150.434 137.938C150.434 136.983 150.814 136.068 151.489 135.394C152.164 134.719 153.08 134.34 154.036 134.34C154.991 134.34 155.907 134.719 156.582 135.394C157.258 136.068 157.637 136.983 157.637 137.938C157.637 138.228 157.521 138.506 157.316 138.712C157.11 138.917 156.832 139.032 156.541 139.033ZM154.036 134.965C153.247 134.966 152.491 135.28 151.933 135.837C151.375 136.394 151.061 137.15 151.06 137.938C151.061 138.062 151.11 138.181 151.198 138.269C151.286 138.357 151.406 138.407 151.53 138.407H156.541C156.666 138.407 156.785 138.357 156.873 138.269C156.961 138.181 157.011 138.062 157.011 137.938C157.01 137.15 156.696 136.394 156.138 135.837C155.581 135.28 154.824 134.966 154.036 134.965V134.965Z" fill="white"/>
<path d="M63.3478 189.417H67.1874L69.0138 174.622L63.3472 174.623L63.3478 189.417Z" fill="#FFB8B8"/>
<path d="M74.5923 192.978L62.5252 192.978L62.525 188.321L69.9298 188.321C71.1663 188.321 72.3522 188.811 73.2266 189.685C74.101 190.558 74.5922 191.743 74.5923 192.978V192.978L74.5923 192.978Z" fill="#2F2E41"/>
<path d="M48.9415 189.417H52.7811L54.6076 174.622L48.9409 174.623L48.9415 189.417Z" fill="#FFB8B8"/>
<path d="M60.186 192.978L48.119 192.978L48.1188 188.321L55.5236 188.321C56.7601 188.321 57.946 188.811 58.8203 189.685C59.6947 190.558 60.186 191.743 60.186 192.978V192.978L60.186 192.978Z" fill="#2F2E41"/>
<path d="M49.4106 145.355C49.8243 145.089 50.1746 144.736 50.4368 144.32C50.6991 143.904 50.8669 143.436 50.9285 142.949C50.9901 142.461 50.9439 141.966 50.7932 141.499C50.6426 141.031 50.3911 140.602 50.0565 140.242L52.5846 104.402L45.3023 105.107L45.1022 140.205C44.5339 140.807 44.2062 141.596 44.1812 142.423C44.1563 143.25 44.4358 144.057 44.9669 144.692C45.498 145.326 46.2437 145.745 47.0627 145.867C47.8817 145.989 48.7171 145.807 49.4107 145.355H49.4106Z" fill="#FFB8B8"/>
<path d="M63.462 181.965C63.1175 181.964 62.7852 181.838 62.5276 181.609C62.2699 181.381 62.1045 181.066 62.0625 180.725L59.8307 162.078C59.7993 161.815 59.6738 161.573 59.4775 161.396C59.2811 161.218 59.0272 161.118 58.7625 161.113C58.4979 161.108 58.2404 161.199 58.0376 161.369C57.8349 161.539 57.7005 161.777 57.6594 162.038L54.848 179.892C54.7971 180.224 54.6286 180.526 54.3731 180.744C54.1175 180.963 53.792 181.082 53.4559 181.081H48.8991C48.7131 181.081 48.529 181.044 48.3573 180.972C48.1856 180.901 48.0298 180.796 47.8988 180.665C47.7678 180.533 47.6642 180.376 47.594 180.204C47.5238 180.032 47.4884 179.848 47.4898 179.662L49.6646 140.075C49.6654 139.738 49.7879 139.413 50.0096 139.159C50.2313 138.905 50.5373 138.739 50.8714 138.693L67.7811 136.24C67.982 136.211 68.1869 136.226 68.3816 136.283C68.5764 136.341 68.7564 136.439 68.9095 136.572C69.0625 136.706 69.1849 136.87 69.2684 137.055C69.3518 137.24 69.3943 137.441 69.3929 137.644L69.0979 180.366C69.0954 180.726 68.9549 181.072 68.7052 181.331C68.4555 181.591 68.1157 181.745 67.7557 181.762L63.5289 181.964C63.5065 181.965 63.4842 181.965 63.462 181.965Z" fill="#2F2E41"/>
<path d="M54.6955 141.571C53.069 141.565 51.4558 141.278 49.9271 140.723C49.668 140.627 49.4429 140.457 49.2803 140.234C49.1176 140.011 49.0247 139.745 49.0133 139.47C48.8674 136.236 48.0139 119.59 45.5293 109.436C45.0464 107.444 45.1645 105.354 45.8687 103.429C46.573 101.504 47.8319 99.8309 49.4868 98.6196C49.6204 98.5237 49.7567 98.4295 49.8955 98.337C51.3326 97.3814 52.9904 96.8089 54.7115 96.6742C56.4325 96.5394 58.1594 96.8468 59.728 97.5671C61.3484 98.2914 62.7563 99.4178 63.8178 100.839C64.8792 102.261 65.559 103.93 65.7922 105.688L69.844 135.738C69.87 135.926 69.8576 136.117 69.8075 136.3C69.7573 136.483 69.6705 136.654 69.5524 136.802C69.4368 136.949 69.2924 137.072 69.128 137.162C68.9636 137.252 68.7827 137.307 68.5961 137.325C67.1921 137.465 64.2803 138.009 60.5537 140.077C58.7616 141.069 56.7442 141.583 54.6955 141.571V141.571Z" fill="#C9CACD"/>
<path d="M49.7421 116.662L43.0743 114.856C42.7138 114.758 42.407 114.521 42.2211 114.197C42.0353 113.873 41.9856 113.489 42.0829 113.129L44.4269 104.492C44.678 103.567 45.263 102.768 46.0692 102.248C46.8754 101.728 47.8457 101.525 48.793 101.678C49.7402 101.83 50.5973 102.328 51.1991 103.074C51.8008 103.821 52.1046 104.764 52.0517 105.721L51.5181 115.381C51.5066 115.59 51.4483 115.794 51.3476 115.978C51.2469 116.162 51.1063 116.322 50.9361 116.444C50.7659 116.567 50.5703 116.65 50.3637 116.688C50.1572 116.726 49.9448 116.717 49.7421 116.662V116.662Z" fill="#C9CACD"/>
<path d="M57.1647 93.4868C61.4129 93.4868 64.8567 90.0466 64.8567 85.8028C64.8567 81.559 61.4129 78.1188 57.1647 78.1188C52.9165 78.1188 49.4727 81.559 49.4727 85.8028C49.4727 90.0466 52.9165 93.4868 57.1647 93.4868Z" fill="#FFB8B8"/>
<path d="M85.0388 100.9C85.0004 101.068 84.9753 101.24 84.9639 101.413L71.5105 109.166L68.2404 107.285L64.7544 111.844L71.7499 116.825L87.0982 104.729C87.7242 104.961 88.4059 104.996 89.0526 104.831C89.6993 104.666 90.2804 104.308 90.7185 103.805C91.1567 103.302 91.4312 102.678 91.5056 102.015C91.5799 101.353 91.4505 100.683 91.1347 100.096C90.8188 99.5084 90.3314 99.031 89.7373 98.727C89.1432 98.4231 88.4706 98.307 87.8088 98.3943C87.1471 98.4815 86.5276 98.7679 86.0328 99.2155C85.538 99.663 85.1913 100.25 85.0388 100.9V100.9Z" fill="#FFB8B8"/>
<path d="M70.3955 109.54L64.6004 113.297C64.2867 113.5 63.9053 113.57 63.5399 113.492C63.1744 113.415 62.8547 113.195 62.651 112.882L57.7748 105.376C57.2524 104.572 57.0466 103.603 57.1969 102.657C57.3472 101.71 57.8431 100.853 58.5888 100.249C59.3346 99.6464 60.2775 99.3406 61.2357 99.3908C62.1938 99.4411 63.0994 99.844 63.7779 100.522L70.625 107.364C70.7735 107.512 70.8869 107.691 70.957 107.889C71.0271 108.087 71.052 108.298 71.03 108.506C71.008 108.715 70.9396 108.916 70.8299 109.095C70.7201 109.274 70.5717 109.426 70.3955 109.54Z" fill="#C9CACD"/>
<path d="M51.7213 91.8821C53.1563 93.4091 55.8213 92.5893 56.0083 90.5033C56.0229 90.3413 56.0219 90.1783 56.0051 90.0166C55.9085 89.0925 55.3741 88.2536 55.5022 87.278C55.5311 87.0351 55.6217 86.8037 55.7653 86.6057C56.9088 85.076 59.593 87.2898 60.6722 85.9051C61.334 85.056 60.5561 83.7191 61.0639 82.7701C61.7341 81.5176 63.7193 82.1355 64.9642 81.4495C66.3493 80.6863 66.2665 78.5633 65.3547 77.2721C64.2427 75.6973 62.2931 74.857 60.3678 74.7359C58.4425 74.6148 56.5305 75.1347 54.733 75.8344C52.6907 76.6295 50.6655 77.7283 49.4087 79.5222C47.8804 81.7038 47.7333 84.6368 48.4976 87.1877C48.9626 88.7395 50.5495 90.6351 51.7213 91.8821Z" fill="#2F2E41"/>
</svg>
