<svg width="107" height="110" viewBox="0 0 107 110" fill="none" xmlns="http://www.w3.org/2000/svg">
<path d="M2.84099 54.4961C2.84099 54.7734 2.74566 55.0074 2.55499 55.1981C2.36432 55.3801 2.12165 55.4711 1.82699 55.4711C1.53232 55.4711 1.28965 55.3801 1.09899 55.1981C0.908321 55.0074 0.812988 54.7734 0.812988 54.4961C0.812988 54.2188 0.908321 53.9891 1.09899 53.8071C1.28965 53.6251 1.53232 53.5341 1.82699 53.5341C2.12165 53.5341 2.36432 53.6251 2.55499 53.8071C2.74566 53.9891 2.84099 54.2188 2.84099 54.4961Z" fill="white"/>
<path d="M10.9535 34.0946L3.5906 29.8436L6.1516 25.4078L7.25492 26.0448L5.44792 29.1746L7.32806 30.2601L8.85556 27.6144L9.95887 28.2514L8.43137 30.8971L10.6042 32.1516L12.4762 28.9092L13.5795 29.5462L10.9535 34.0946Z" fill="white"/>
<path d="M15.7059 19.8424L16.2299 20.7892L17.765 19.2541L16.8182 18.7301C16.4015 18.5095 15.9786 18.2766 15.5497 18.0315C15.1268 17.7802 14.707 17.532 14.2903 17.2869L14.2535 17.3237C14.5048 17.7465 14.7561 18.1694 15.0073 18.5922C15.2524 19.0089 15.4853 19.4257 15.7059 19.8424ZM16.8918 25.0545L12.8379 17.0847L14.0881 15.8345L22.0579 19.8883L20.9364 21.0098L18.8405 19.8516L16.8182 21.8739L17.9765 23.9698L16.8918 25.0545Z" fill="white"/>
<path d="M29.0953 15.2879C28.6 15.5739 28.0654 15.7574 27.4918 15.8385C26.9256 15.9152 26.3664 15.8827 25.8144 15.7411L26.0664 14.4097C26.4721 14.5057 26.8893 14.535 27.3181 14.4977C27.7425 14.4528 28.1236 14.3328 28.4613 14.1378C28.8816 13.8952 29.1508 13.6247 29.2688 13.3264C29.3868 13.0281 29.3635 12.7363 29.1988 12.4511C29.1121 12.301 29.0084 12.1908 28.8877 12.1203C28.7745 12.0456 28.6437 12.001 28.4953 11.9866C28.3501 11.9604 28.1866 11.9547 28.005 11.9695C27.8309 11.9799 27.6418 11.999 27.4377 12.0268L26.1709 12.1728C25.9475 12.2017 25.7132 12.2119 25.468 12.2033C25.2304 12.1904 24.9948 12.1463 24.7612 12.071C24.5276 11.9957 24.3051 11.879 24.0937 11.7208C23.8898 11.5583 23.7098 11.342 23.5538 11.0718C23.3848 10.7791 23.2889 10.4742 23.266 10.1572C23.2462 9.82835 23.291 9.50727 23.4004 9.19396C23.5097 8.88065 23.6841 8.5848 23.9237 8.30639C24.1707 8.02364 24.4744 7.77827 24.8347 7.57027C25.2625 7.32327 25.7251 7.17125 26.2226 7.11421C26.7157 7.04966 27.1872 7.07766 27.6371 7.19821L27.4539 8.41483C27.101 8.35835 26.7645 8.34748 26.4443 8.38223C26.1241 8.41698 25.8064 8.52536 25.4912 8.70736C25.1384 8.91103 24.9025 9.15233 24.7833 9.43128C24.6598 9.70273 24.6761 9.97355 24.8321 10.2438C24.9144 10.3864 25.0159 10.4929 25.1366 10.5633C25.2605 10.6218 25.3988 10.6621 25.5516 10.684C25.7075 10.694 25.8763 10.6917 26.0579 10.6769C26.2351 10.6546 26.4162 10.6301 26.6009 10.6035L27.8434 10.4416C28.1131 10.406 28.3727 10.3962 28.6221 10.4123C28.8716 10.4284 29.1056 10.4784 29.3242 10.5624C29.5503 10.642 29.7616 10.7652 29.9579 10.932C30.15 11.0913 30.324 11.3061 30.48 11.5763C30.6534 11.8765 30.7558 12.1926 30.7874 12.5247C30.819 12.8567 30.7769 13.1912 30.6613 13.5282C30.5488 13.8533 30.362 14.1713 30.1011 14.482C29.8434 14.781 29.5081 15.0496 29.0953 15.2879Z" fill="white"/>
<path d="M39.3646 10.7631L37.1641 2.55078L38.6207 2.16048L40.8212 10.3728L39.3646 10.7631Z" fill="white"/>
<path d="M49.5814 9.00005V0.498047L54.7034 0.498047V1.77205L51.0894 1.77205V3.94305L54.1444 3.94305V5.21705H51.0894V7.72605H54.8334V9.00005H49.5814Z" fill="white"/>
<path d="M61.5511 9.93637L63.7516 1.72407L66.5267 2.46765C66.9537 2.58205 67.3401 2.73046 67.686 2.91287C68.0319 3.09528 68.313 3.31864 68.5293 3.58296C68.7478 3.83891 68.891 4.14194 68.9586 4.49206C69.0347 4.84442 69.0111 5.25081 68.8877 5.71124C68.7194 6.33909 68.4331 6.80518 68.0285 7.10951C67.6323 7.41608 67.1648 7.58691 66.6261 7.622L67.6664 11.575L66.034 11.1375L65.1248 7.44853L63.8691 7.11207L63.0078 10.3267L61.5511 9.93637ZM64.1787 5.95682L65.3465 6.26973C65.9073 6.42002 66.3657 6.41722 66.7215 6.26133C67.0857 6.10768 67.3306 5.79646 67.4562 5.32767C67.584 4.8505 67.522 4.47945 67.2699 4.21453C67.0263 3.95185 66.624 3.74537 66.0631 3.59508L64.8953 3.28217L64.1787 5.95682Z" fill="white"/>
<path d="M83.9942 21.9406L89.1052 16.8296L87.3678 15.0923L88.2687 14.1914L92.8097 18.7324L91.9089 19.6333L90.1715 17.8959L85.0606 23.0069L83.9942 21.9406Z" fill="white"/>
<path d="M90.2216 29.2021L97.5846 24.9511L98.3386 26.2571L95.3776 27.9666L97.1001 30.95L100.061 29.2405L100.815 30.5465L93.4521 34.7975L92.6981 33.4915L95.9631 31.6065L94.2406 28.6231L90.9756 30.5081L90.2216 29.2021Z" fill="white"/>
<path d="M100.594 41.1473L99.5126 41.1277L100.074 43.2247L101.002 42.6667C101.401 42.4162 101.814 42.1664 102.241 41.9175C102.67 41.6769 103.095 41.4374 103.515 41.1991L103.502 41.1489C103.01 41.1551 102.518 41.1612 102.026 41.1674C101.543 41.1713 101.066 41.1646 100.594 41.1473ZM95.4878 39.5682L104.417 40.0424L104.874 41.7502L97.3787 46.6253L96.9682 45.0933L99.0192 43.8574L98.279 41.0948L95.8848 41.05L95.4878 39.5682Z" fill="white"/>
<path d="M98 51.8134H106.502V53.3604L101.718 56.0124L99.911 56.8834V56.9354C100.353 56.9008 100.825 56.8574 101.328 56.8054C101.839 56.7621 102.333 56.7404 102.81 56.7404L106.502 56.7404V58.1834H98V56.6364L102.784 53.9844L104.591 53.1134V53.0614C104.14 53.0961 103.668 53.1351 103.174 53.1784C102.68 53.2304 102.195 53.2564 101.718 53.2564H98V51.8134Z" fill="white"/>
<path d="M92.2174 77.3417L94.9531 78.9212L100.854 79.386L100.048 80.7821L97.7067 80.4959C97.3683 80.4407 97.0374 80.3897 96.7141 80.3432C96.3982 80.3009 96.063 80.2575 95.7085 80.2129L95.6825 80.2579C95.8983 80.5427 96.1014 80.815 96.2916 81.0749C96.4893 81.3392 96.6966 81.604 96.9137 81.8694L98.3323 83.7543L97.5458 85.1165L94.1991 80.2271L91.4634 78.6476L92.2174 77.3417Z" fill="white"/>
<path d="M84.4158 87.4173C84.8081 87.0251 85.237 86.7371 85.7028 86.5533C86.1747 86.3755 86.6619 86.3051 87.1644 86.3418C87.673 86.3847 88.1847 86.5349 88.6995 86.7923C89.2143 87.0496 89.7168 87.4235 90.207 87.9137C90.6912 88.3979 91.0589 88.8942 91.3101 89.4029C91.5675 89.9177 91.7115 90.4232 91.7422 90.9196C91.7728 91.416 91.6962 91.8971 91.5124 92.3628C91.3285 92.8286 91.0405 93.2576 90.6483 93.6498C90.2561 94.042 89.8271 94.33 89.3614 94.5139C88.8956 94.6977 88.4145 94.7743 87.9181 94.7437C87.4156 94.7192 86.907 94.5782 86.3922 94.3208C85.8836 94.0696 85.3872 93.7019 84.903 93.2177C84.4128 92.7275 84.039 92.225 83.7816 91.7102C83.5242 91.1954 83.3771 90.6806 83.3403 90.1659C83.3036 89.6633 83.374 89.1761 83.5518 88.7043C83.7356 88.2385 84.0236 87.8095 84.4158 87.4173ZM85.3443 88.3458C85.1053 88.5848 84.9429 88.8513 84.8571 89.1455C84.7713 89.4397 84.756 89.7491 84.8111 90.0739C84.8724 90.4049 85.0011 90.7419 85.1972 91.0851C85.3994 91.4344 85.6691 91.7776 86.0061 92.1146C86.6802 92.7888 87.3482 93.1748 88.0101 93.2729C88.6719 93.3832 89.2419 93.1993 89.7199 92.7213C90.1979 92.2433 90.3848 91.6703 90.2806 91.0024C90.1764 90.3466 89.7873 89.6817 89.1132 89.0076C88.7761 88.6706 88.4329 88.4009 88.0836 88.1987C87.7404 88.0026 87.4034 87.8739 87.0724 87.8126C86.7477 87.7575 86.4382 87.7728 86.144 87.8586C85.8499 87.9444 85.5833 88.1068 85.3443 88.3458Z" fill="white"/>
<path d="M74.9179 94.7045C75.3457 94.4575 75.7669 94.2944 76.1815 94.2151C76.5929 94.1477 77.0005 94.1776 77.4042 94.3048C77.8003 94.4363 78.1873 94.6733 78.5651 95.0156C78.9397 95.3697 79.3025 95.8508 79.6535 96.4587L82.039 100.591L80.733 101.345L78.289 97.1114C78.0593 96.7136 77.8306 96.3954 77.6027 96.1566C77.3716 95.9298 77.1446 95.7706 76.9217 95.6792C76.6913 95.592 76.4643 95.563 76.2408 95.5919C76.0217 95.6283 75.7996 95.7116 75.5744 95.8416C75.3492 95.9716 75.1623 96.1245 75.0137 96.3004C74.8694 96.4838 74.7773 96.697 74.7376 96.9402C74.6978 97.1833 74.7184 97.4616 74.7993 97.7751C74.8846 98.0962 75.0421 98.4556 75.2718 98.8534L77.7158 103.087L76.4661 103.808L74.0806 99.6762C73.7296 99.0683 73.4944 98.5136 73.375 98.0121C73.2599 97.5181 73.2482 97.0645 73.3399 96.6513C73.4241 96.2424 73.602 95.8745 73.8736 95.5476C74.142 95.2325 74.4901 94.9515 74.9179 94.7045Z" fill="white"/>
<path d="M52.7533 101V108.228H55.2103V109.502H48.7883V108.228H51.2453V101H52.7533Z" fill="white"/>
<path d="M43.2153 100.269L41.0148 108.481L39.5582 108.091L40.4431 104.788L37.1155 103.897L36.2306 107.199L34.7739 106.809L36.9744 98.5966L38.431 98.9869L37.4553 102.628L40.7829 103.52L41.7587 99.8785L43.2153 100.269Z" fill="white"/>
<path d="M29.6543 95.2151L25.4033 102.578L24.0973 101.824L28.3483 94.4611L29.6543 95.2151Z" fill="white"/>
<path d="M21.7263 89.7802L15.7145 95.792L14.6206 94.6981L16.1282 89.44L16.79 87.5464L16.7533 87.5097C16.4652 87.8467 16.1619 88.2113 15.8432 88.6035C15.5123 88.9958 15.1783 89.3604 14.8413 89.6974L12.2306 92.3081L11.2103 91.2877L17.2221 85.2759L18.316 86.3698L16.8084 91.6278L16.1466 93.5215L16.1833 93.5582C16.4775 93.2151 16.7839 92.8535 17.1026 92.4735C17.4151 92.0875 17.7399 91.7259 18.077 91.3888L20.706 88.7598L21.7263 89.7802Z" fill="white"/>
<path d="M13.3975 80.1385L6.03453 84.3895L5.28053 83.0836L8.62425 81.1531L8.60475 81.1193L3.74653 80.4266L2.90803 78.9743L7.0854 79.5797L10.05 74.3405L10.882 75.7816L8.56491 79.7763L10.4931 80.0741L12.6435 78.8326L13.3975 80.1385Z" fill="white"/>
<path fill-rule="evenodd" clip-rule="evenodd" d="M36.839 88.8338L34.8754 87.8068C23.0651 81.6299 15 69.258 15 55C15 34.5655 31.5655 18 52 18C72.4345 18 89 34.5655 89 55C89 75.4346 72.4345 92 52 92C48.8635 92 45.8163 91.6095 42.905 90.8736L41.8613 90.6097L41.8313 89.5336C41.8006 88.4346 41.7828 87.2951 41.7828 86.1299C41.7828 81.8588 42.0108 77.9283 42.2385 75.0672C42.3378 73.8191 42.4371 72.7726 42.5178 71.988H36.2343L36.9819 86.1299L36.839 88.8338ZM34.734 70.565L35.5569 86.1299L35.5349 86.5458C35.2991 86.4225 35.0649 86.2966 34.8322 86.1682C34.7813 86.1401 34.7304 86.1118 34.6797 86.0835C34.4894 85.9773 34.3003 85.8694 34.1122 85.7598C23.5331 79.5943 16.4231 68.1275 16.4231 55C16.4231 35.3515 32.3514 19.4231 52 19.4231C71.6486 19.4231 87.5769 35.3515 87.5769 55C87.5769 74.6486 71.6486 90.577 52 90.577C48.9821 90.577 46.0519 90.2012 43.2538 89.4939C43.2235 88.407 43.2059 87.2807 43.2059 86.1299C43.2059 79.9478 43.6893 74.4769 43.9484 71.988C44.0433 71.0765 44.1082 70.565 44.1082 70.565H34.734ZM62.2618 58.9129C63.6308 59.6564 64.5227 60.1841 64.5227 60.1841C64.5227 60.1841 63.4892 60.2786 61.9331 60.3547C58.9128 60.5024 53.9239 60.5809 50.7016 59.765C47.6951 59.0038 45.7638 57.3468 44.7236 56.1858C44.708 56.1683 44.6925 56.151 44.6772 56.1337C44.6738 56.1298 44.6704 56.126 44.667 56.1221C44.5335 55.9708 44.4156 55.8286 44.3128 55.6988C44.2427 55.6103 44.1797 55.5275 44.1236 55.4515L43.2544 56.1617C43.2581 56.2932 43.262 56.424 43.266 56.5543C43.2672 56.5938 43.2685 56.6334 43.2697 56.6728C43.4144 61.19 43.7713 64.9689 43.984 66.9183C44.0834 67.8299 44.1514 68.3414 44.1514 68.3414H34.734C34.734 68.3414 34.7931 67.8299 34.8797 66.9183C35.116 64.4295 35.5569 58.9586 35.5569 52.7765C35.5569 46.5944 35.116 41.1236 34.8797 38.6347C34.7931 37.7231 34.734 37.2116 34.734 37.2116H44.1514C44.1514 37.2116 44.0834 37.7231 43.984 38.6347C43.7124 41.1236 43.2059 46.5944 43.2059 52.7765C43.2059 52.827 43.2059 52.8774 43.206 52.9277C43.2067 53.4082 43.2103 53.8842 43.2167 54.3548C43.2185 54.4876 43.2205 54.6199 43.2227 54.7519L48.5672 50.3845C48.6254 50.2548 48.6906 50.1141 48.763 49.9641C49.6416 48.142 51.5803 44.9302 55.0202 42.9442C58.6387 40.8551 67.0066 38.3393 71.3878 37.0997C73.0795 36.6211 74.1768 36.3328 74.1768 36.3328C74.1768 36.3328 73.382 37.1443 72.1227 38.3711C68.8631 41.5463 62.4911 47.5033 58.7308 49.3712C55.1396 51.1551 51.4894 51.4164 49.5658 51.4063C49.5093 51.406 49.4543 51.4055 49.4008 51.4047C49.2884 51.4032 49.1828 51.4008 49.0843 51.3977L45.4568 54.362C45.6619 54.3123 45.8839 54.2644 46.1218 54.2206C46.7028 54.1138 47.3788 54.0319 48.1352 54.0111C49.2736 53.9798 50.594 54.0867 52.0463 54.4544C55.2555 55.2669 59.6362 57.4868 62.2618 58.9129ZM59.4001 59.0156C56.9132 57.7518 53.9505 56.4045 51.697 55.8339C49.3984 55.2519 47.4801 55.3953 46.1844 55.6579C47.1543 56.6194 48.7411 57.8006 51.0509 58.3855C53.2879 58.9519 56.5677 59.0644 59.4001 59.0156ZM50.3552 49.9713C52.259 49.9044 55.2105 49.5309 58.0977 48.0967C60.4949 46.9059 64.2128 43.7901 67.4482 40.8308C68.0532 40.2775 68.635 39.7355 69.1807 39.2206C68.4567 39.4354 67.69 39.6671 66.9009 39.9118C62.7121 41.2109 58.0785 42.8217 55.7317 44.1767C52.9862 45.7618 51.2762 48.2473 50.3552 49.9713ZM41.8819 57.6853L41.8491 57.7121L41.7998 54.7757C41.7888 54.12 41.7828 53.4526 41.7828 52.7765C41.7828 48.5031 42.0219 44.5708 42.2605 41.7085C42.3643 40.4634 42.4681 39.4189 42.5526 38.6347H36.3091C36.3827 39.4198 36.4738 40.4699 36.5648 41.7238C36.7722 44.5826 36.9799 48.5096 36.9799 52.7765C36.9799 57.0434 36.7722 60.9704 36.5648 63.8293C36.4738 65.0831 36.3827 66.1332 36.3091 66.9183H42.5526C42.4948 66.3815 42.4279 65.7227 42.3581 64.9612C42.1853 63.0737 41.9945 60.5509 41.8819 57.6853Z" fill="white"/>
</svg>
