<?xml version="1.0" encoding="UTF-8" standalone="no"?>
<!-- Generator: Adobe Illustrator 16.0.0, SVG Export Plug-In . SVG Version: 6.00 Build 0)  -->

<svg
   xmlns:dc="http://purl.org/dc/elements/1.1/"
   xmlns:cc="http://creativecommons.org/ns#"
   xmlns:rdf="http://www.w3.org/1999/02/22-rdf-syntax-ns#"
   xmlns:svg="http://www.w3.org/2000/svg"
   xmlns="http://www.w3.org/2000/svg"
   xmlns:sodipodi="http://sodipodi.sourceforge.net/DTD/sodipodi-0.dtd"
   xmlns:inkscape="http://www.inkscape.org/namespaces/inkscape"
   version="1.1"
   id="Layer_1"
   x="0px"
   y="0px"
   width="123"
   height="38"
   viewBox="0 0 123 38"
   enable-background="new 0 0 156 38"
   xml:space="preserve"
   inkscape:version="0.48.4 r9939"
   sodipodi:docname="Eurobank.svg"><metadata
   id="metadata3069"><rdf:RDF><cc:Work
       rdf:about=""><dc:format>image/svg+xml</dc:format><dc:type
         rdf:resource="http://purl.org/dc/dcmitype/StillImage" /><dc:title></dc:title></cc:Work></rdf:RDF></metadata><defs
   id="defs3067" /><sodipodi:namedview
   pagecolor="#d3d3d3"
   bordercolor="#666666"
   borderopacity="1"
   objecttolerance="10"
   gridtolerance="10"
   guidetolerance="10"
   inkscape:pageopacity="1"
   inkscape:pageshadow="2"
   inkscape:window-width="1920"
   inkscape:window-height="1017"
   id="namedview3065"
   showgrid="false"
   showguides="true"
   inkscape:guide-bbox="true"
   inkscape:zoom="7.977615"
   inkscape:cx="71.290435"
   inkscape:cy="26.149078"
   inkscape:window-x="-8"
   inkscape:window-y="-8"
   inkscape:window-maximized="1"
   inkscape:current-layer="Layer_1" />
<path
   d="m 120.375,15.254 c -1.51,-1.512 -3.512,-2.339 -5.639,-2.339 l -85.753,0 C 28.175,5.657 22.02,0 14.538,0 6.509,0 0,6.51 0,14.54 c 0,8.03 6.509,14.545 14.538,14.545 0.415,0 0.821,-0.033 1.229,-0.06 l 0,0.322 c 0,2.133 0.82,4.135 2.327,5.639 1.511,1.505 3.512,2.33 5.643,2.33 l 98.971,0 0,-1.193 0.003,-15.232 c 0,-2.125 -0.831,-4.134 -2.336,-5.637"
   id="path3029"
   inkscape:connector-curvature="0"
   style="fill:#ffffff"
   sodipodi:nodetypes="cscssscscscccc" />

<path
   d="m 121.512,36.12 -97.775,0 c -3.74,0 -6.774,-3.026 -6.774,-6.772 l 0,-15.227 97.773,-0.002 c 3.744,0 6.781,3.033 6.781,6.77 l -0.005,15.231"
   id="path3033"
   inkscape:connector-curvature="0"
   style="fill:#0d1f7e"
   sodipodi:nodetypes="csscccc" />
<path
   d="M 14.538,29.085 C 22.569,29.085 29.08,22.57 29.08,14.54 29.08,6.51 22.569,0 14.538,0 6.509,0 0,6.51 0,14.54 0,22.57 6.509,29.085 14.538,29.085"
   id="path3035"
   inkscape:connector-curvature="0"
   style="fill:#ffffff" />
<path
   d="m 14.538,27.884 c 7.37,0 13.344,-5.974 13.344,-13.344 0,-7.373 -5.974,-13.347 -13.344,-13.347 -7.367,0 -13.342,5.974 -13.342,13.347 0,7.37 5.975,13.344 13.342,13.344"
   id="path3037"
   inkscape:connector-curvature="0"
   style="fill:#de2402" />
<path
   d="M 16.118,5.112 C 15.944,5.004 15.753,4.918 15.554,4.842 13.955,4.243 12.157,5.019 11.062,6.663 l -6.049,8.964 c -0.896,1.378 -0.736,3.232 0.465,4.438 0.687,0.688 1.596,1.027 2.496,1.027 H 22.397 L 19.621,17.794 H 7.602 L 16.118,5.112"
   id="path3039"
   inkscape:connector-curvature="0"
   style="fill:#ffffff" />
<path
   d="m 17.962,12.376 -1.957,3.049 h -3.987 l 5.561,-8.624 6.362,7.391 c 1.586,1.757 1.35,3.809 0.221,5.354 l -6.2,-7.17"
   id="path3041"
   inkscape:connector-curvature="0"
   style="fill:#ffffff" />
<path
   d="m 40.896,25.813 h -4.403 v 2.371 c 0,0 -0.038,0.575 0.551,1.058 0.35,0.286 0.979,0.262 0.979,0.262 h 3.685 v 1.879 h -4.437 c 0,0 -1.355,0.12 -2.304,-0.606 -0.922,-0.702 -0.819,-2.188 -0.819,-2.188 v -9.646 h 6.771 v 1.762 h -4.426 v 3.242 h 4.403 v 1.866"
   id="path3043"
   inkscape:connector-curvature="0"
   style="fill:#ffffff" />
<path
   d="m 52.007,28.664 c 0,1.08 0.042,1.977 0.08,2.718 h -2.043 l -0.113,-1.354 h -0.056 c -0.401,0.631 -1.317,1.561 -2.994,1.561 -1.676,0 -3.22,-0.99 -3.22,-3.947 v -5.336 h 2.344 v 4.94 c 0,1.513 0.496,2.479 1.734,2.479 0.953,0 1.564,-0.63 1.792,-1.232 0.094,-0.188 0.131,-0.445 0.131,-0.702 v -5.485 h 2.345 v 6.358"
   id="path3045"
   inkscape:connector-curvature="0"
   style="fill:#ffffff" />
<path
   d="m 54.543,25.229 c 0,-1.229 -0.019,-2.121 -0.072,-2.924 h 2.021 l 0.092,1.715 h 0.06 c 0.454,-1.267 1.543,-1.92 2.555,-1.92 0.229,0 0.766,0.131 0.971,0.24 l -0.58,1.942 c -0.208,-0.036 -0.258,-0.036 -0.548,-0.036 -1.104,0 -1.883,0.688 -2.093,1.729 -0.041,0.207 -0.06,0.453 -0.06,0.695 v 4.711 h -2.345 l -10e-4,-6.152"
   id="path3047"
   inkscape:connector-curvature="0"
   style="fill:#ffffff" />
<path
   d="m 65.295,29.934 c 1.335,0 2.271,-1.27 2.271,-3.117 0,-1.414 -0.647,-3.06 -2.253,-3.06 -1.654,0 -2.325,1.588 -2.325,3.099 0,1.752 0.897,3.078 2.289,3.078 h 0.018 m -0.075,1.654 c -2.61,0 -4.65,-1.752 -4.65,-4.68 0,-2.982 2,-4.807 4.802,-4.807 2.765,0 4.613,1.897 4.613,4.655 0,3.345 -2.399,4.831 -4.745,4.831 h -0.02 z"
   id="path3049"
   inkscape:connector-curvature="0"
   style="fill:#ffffff" />
<path
   d="m 74.255,27.641 c 0,0.184 0.019,0.37 0.058,0.537 0.246,0.934 1.066,1.605 2.076,1.605 1.468,0 2.363,-1.141 2.363,-2.985 0,-1.603 -0.778,-2.909 -2.341,-2.909 -0.954,0 -1.833,0.672 -2.081,1.682 -0.037,0.17 -0.075,0.371 -0.075,0.594 v 1.476 m -2.342,-9.172 h 2.342 v 5.088 h 0.038 c 0.571,-0.88 1.581,-1.455 2.975,-1.455 2.269,-0.002 3.886,1.842 3.867,4.605 0,3.261 -2.113,4.879 -4.214,4.881 -1.2,0 -2.265,-0.443 -2.934,-1.561 H 73.95 l -0.114,1.354 h -2.002 c 0.038,-0.608 0.079,-1.616 0.079,-2.53 V 18.469 z"
   id="path3051"
   inkscape:connector-curvature="0"
   style="fill:#ffffff" />
<path
   d="m 87.979,26.945 c -1.656,-0.014 -3.24,0.322 -3.24,1.697 0,0.896 0.592,1.31 1.334,1.31 0.953,0 1.621,-0.599 1.85,-1.252 0.059,-0.168 0.059,-0.339 0.059,-0.505 v -1.25 m 2.284,2.259 c 0,0.823 0.037,1.622 0.152,2.178 h -2.113 l -0.173,-1.006 h -0.057 c -0.554,0.711 -1.526,1.21 -2.745,1.21 -1.869,0 -2.916,-1.318 -2.916,-2.695 0,-2.281 2.078,-3.455 5.508,-3.431 v -0.151 c 0,-0.597 -0.248,-1.584 -1.889,-1.584 -0.911,0 -1.869,0.274 -2.494,0.672 L 83.08,22.903 c 0.684,-0.41 1.886,-0.803 3.355,-0.803 2.973,0 3.828,1.844 3.828,3.84 v 3.265 h 0.003 z"
   id="path3053"
   inkscape:connector-curvature="0"
   style="fill:#ffffff" />
<path
   d="m 92.745,25.009 c 0,-1.045 -0.038,-1.92 -0.077,-2.704 h 2.04 l 0.114,1.358 h 0.057 c 0.419,-0.707 1.434,-1.563 2.975,-1.563 1.623,0 3.299,1.024 3.299,3.899 v 5.383 h -2.344 v -5.124 c 0,-1.309 -0.498,-2.294 -1.774,-2.294 -0.935,0 -1.581,0.653 -1.83,1.345 -0.076,0.185 -0.115,0.463 -0.115,0.725 v 5.349 h -2.343 l -0.002,-6.374"
   id="path3055"
   inkscape:connector-curvature="0"
   style="fill:#ffffff" />
<path
   d="m 105.992,26.295 h 0.039 c 0.226,-0.355 0.496,-0.746 0.721,-1.064 l 2.271,-2.926 h 2.463 l -3.479,4.418 3.598,4.62 h -2.879 l -2.729,-3.635 -0.005,0.581 v 3.093 h -2.345 V 18.469 h 2.345 l 0,7.826"
   id="path3057"
   inkscape:connector-curvature="0"
   style="fill:#ffffff" />



</svg>