<?xml version="1.0" encoding="utf-8"?>
<!-- Generator: Adobe Illustrator 20.0.0, SVG Export Plug-In . SVG Version: 6.00 Build 0)  -->
<svg version="1.1"
	 id="svg2" xmlns:cc="http://creativecommons.org/ns#" xmlns:dc="http://purl.org/dc/elements/1.1/" xmlns:rdf="http://www.w3.org/1999/02/22-rdf-syntax-ns#" xmlns:svg="http://www.w3.org/2000/svg"
	 xmlns="http://www.w3.org/2000/svg" xmlns:xlink="http://www.w3.org/1999/xlink" x="0px" y="0px" width="400px" height="232.1px"
	 viewBox="0 0 400 232.1" style="enable-background:new 0 0 400 232.1;" xml:space="preserve">
<style type="text/css">
	.st0{fill:#FFFFFF;}
	.st1{fill:#007EC5;}
	.st2{fill:#231F20;}
</style>
<g id="g10" transform="matrix(1, 0, 0, 1, 0, 0)">
	<g id="g12" transform="scale(0.1)">
		<path id="path14" class="st0" d="M1038.1,863.3c112.9,2.8,658.5,25.3,935.4,24.3c276.8,1,822.5-21.4,935.4-24.3
			c7.8-0.2,11.7,3.7,12.2,9.5c0.4-9.4,0.5-18.9,0.5-28.5c0-9.5-0.2-18.9-0.5-28.5c-0.5,6-4.4,9.7-12.2,9.6
			c-112.9-3-658.7-25.5-935.4-24.1c-277-1.3-822.5,21.1-935.4,24.1c-7.7,0.2-11.6-3.3-12.3-9.1c-0.3,9.2-0.5,18.6-0.5,28
			c0,9.4,0.2,18.8,0.5,28C1026.5,866.7,1030.4,863.1,1038.1,863.3"/>
		<path id="path16" class="st0" d="M1031.7,749.2c2.2-8.4,8.5-12.7,17.1-12.4c8.5,0.2,641.5,36.4,924.7,38.7
			c283-2.4,916.2-38.6,924.7-38.7c8.7-0.3,15.2,4.4,17.2,13.1c-2.7-20.1-6.2-39.9-10.4-59.5c0.2,7.7-6.2,12.7-13.6,12.7
			c-117.6-2.2-729.2-15.6-918-15.6c-188.6,0-800.2,13.4-917.8,15.6c-7.7,0-14.1-5.4-13.6-13.2
			C1037.8,709.5,1034.4,729.3,1031.7,749.2"/>
		<path id="path18" class="st0" d="M1059.4,625.2c2.8-6,6.7-8.9,13.6-8.7c117.1,6.5,900.6,50.3,900.6,50.3s783.6-43.8,900.9-50.3
			c6.4,0,10.2,2.5,12.9,8c-5.7-18.1-12.2-36-19.4-53.6c3.3,9.6-1.7,15.6-11.1,15.7c-19.8,0-426.4,5.1-426.4,5.1h-913.8
			c0,0-406.7-5.1-426.3-5.1c-9.4-0.2-14.4-6-11.4-15C1071.8,589,1065.2,607.1,1059.4,625.2"/>
		<path id="path20" class="st0" d="M2887.3,1064.3c-2.7,5.5-6.5,8.1-12.9,7.9c-117.3-6.4-900.9-50.3-900.9-50.3
			s-783.5,43.9-900.6,50.3c-6.9,0.2-10.7-2.5-13.6-8.6c5.8,18.1,12.4,35.9,19.6,53.5c-3-9.1,2-15.1,11.2-15.1
			c19.8-0.2,426.4-5,426.4-5h913.8c0,0,406.7,4.8,426.4,5c9.4,0,14.4,6.4,11.1,15.6C2875.1,1100,2881.6,1082.4,2887.3,1064.3"/>
		<path id="path22" class="st0" d="M2915.5,938.8c-2,8.7-8.5,13.4-17.2,13.1c-8.5-0.3-641.7-36.4-924.7-38.7
			c-283.1,2.3-916.1,38.4-924.7,38.7c-8.6,0.4-14.9-4-17.1-12.6c2.7,20.1,6,40.1,10.4,59.7c-0.5-8.1,6-13.6,13.6-13.4
			c117.6,2.2,729.2,15.6,917.8,15.6c188.8,0,800.4-13.4,918-15.6c7.4-0.2,13.8,5,13.6,12.7C2909.3,978.9,2912.8,959,2915.5,938.8"/>
		<path id="path24" class="st1" d="M1973.5,23.2c413,0,765.2,229.3,894,546.9c4,9.9-1,16.6-10.7,16.6c-19.8,0-426.4,5.1-426.4,5.1
			h-913.8c0,0-406.7-5.1-426.4-5.1c-9.7,0-14.7-6.7-10.7-16.6C1208.3,252.6,1560.5,23.2,1973.5,23.2"/>
		<path id="path26" class="st1" d="M1973.5,687.5c188.8,0,800.4,13.4,918,15.6c8.1,0,14.9-6,13.4-14.8
			c-1.8-10.7-13.6-52.8-16.4-61.1c-2.7-7.6-6.7-10.9-14.1-10.7c-117.3,6.5-900.9,50.3-900.9,50.3S1190,623,1072.9,616.5
			c-7.6-0.2-11.6,3.2-14.2,10.7c-3,8.4-14.6,50.4-16.4,61.1c-1.5,8.7,5.2,14.8,13.4,14.8C1173.3,700.9,1784.9,687.5,1973.5,687.5"/>
		<path id="path28" class="st1" d="M1973.5,801.3c276.8-1.3,822.5,21.1,935.4,24.1c8.5,0.2,12.2-4.4,12.2-11.1c0-13.4-4-54.5-5.4-63
			c-1.5-9.7-8.4-15.1-17.6-14.6c-8.5,0.2-641.7,36.4-924.7,38.7c-283.1-2.4-916.1-38.6-924.7-38.7c-9.2-0.5-16.1,4.9-17.6,14.6
			c-1.5,8.5-5.4,49.6-5.4,63c-0.2,6.7,3.7,11.2,12.3,11.1C1151,822.4,1696.6,800,1973.5,801.3"/>
		<path id="path30" class="st1" d="M1973.5,1665.7c413,0,765.2-229.4,894-547c4-10.1-1-16.6-10.7-16.6c-19.8-0.2-426.4-5-426.4-5
			h-913.8c0,0-406.7,4.8-426.4,5c-9.7,0-14.7,6.5-10.7,16.6C1208.3,1436.3,1560.5,1665.7,1973.5,1665.7"/>
		<path id="path32" class="st1" d="M1973.5,1001.2c188.8,0,800.4-13.4,918-15.6c8.1-0.2,14.9,6,13.4,14.9
			c-1.8,10.5-13.6,52.8-16.4,61c-2.7,7.7-6.7,10.9-14.1,10.7c-117.3-6.6-900.9-50.3-900.9-50.3s-783.5,43.7-900.6,50.3
			c-7.6,0.2-11.6-3-14.2-10.7c-3-8.2-14.6-50.5-16.4-61c-1.5-8.9,5.2-15.1,13.4-14.9C1173.3,987.8,1784.9,1001.2,1973.5,1001.2"/>
		<path id="path34" class="st1" d="M1973.5,887.4c276.8,1.2,822.5-21.3,935.4-24.1c8.5-0.2,12.2,4.2,12.2,11c0,13.3-4,54.3-5.4,63
			c-1.5,9.7-8.4,14.9-17.6,14.6c-8.5-0.3-641.7-36.4-924.7-38.7c-283.1,2.3-916.1,38.4-924.7,38.7c-9.2,0.4-16.1-4.8-17.6-14.6
			c-1.5-8.7-5.4-49.8-5.4-63c-0.2-6.8,3.7-11.2,12.3-11C1151,866.1,1696.6,888.6,1973.5,887.4"/>
		<path id="path36" class="st2" d="M520.3,2249.6c-39.5,0-101.7-29.3-101.7-123.7c0-94.5,62-124.6,101.7-124.6
			c39.7,0,101.5,30.1,101.5,124.6C621.9,2220.6,559.9,2249.6,520.3,2249.6z M520,1953.7c-91.3,0-165.5,77.1-165.5,172.3
			c0,95,74.2,172.3,165.5,172.3c91.5,0,165.7-77.3,165.7-172.3C685.8,2030.8,611.5,1953.7,520,1953.7"/>
		<path id="path38" class="st2" d="M3066.6,2249.6c-39.5,0-101.7-29.3-101.7-123.7c0-94.5,62-124.6,101.7-124.6
			c39.7,0,101.6,30.1,101.6,124.6C3168.2,2220.6,3106.1,2249.6,3066.6,2249.6z M3066.3,1953.7c-91.3,0-165.4,77.1-165.4,172.3
			c0,95,74.1,172.3,165.4,172.3c91.5,0,165.7-77.3,165.7-172.3C3232,2030.8,3157.8,1953.7,3066.3,1953.7"/>
		<path id="path40" class="st2" d="M40,1961.6h59.8v328.7H40V1961.6z"/>
		<path id="path42" class="st2" d="M1107.9,1961.6h59.8v328.7h-59.8V1961.6z"/>
		<path id="path44" class="st2" d="M2419.4,1961.6h59.8v328.7h-59.8V1961.6z"/>
		<path id="path46" class="st2" d="M1440.9,2005.6h26.2l3-42.4c-13.1-1.5-22.9-2.2-36.2-2.2c-127.2,0-209.1,67.9-209.1,164.9
			c0,97.2,81.9,164.9,209.1,164.9c13.3,0,23.1-0.7,36.2-2l-3-42.5h-26.2c-90.3,0-149.8-46.9-149.8-120.7
			C1291.1,2051.7,1350.9,2005.6,1440.9,2005.6"/>
		<path id="path48" class="st2" d="M972.6,2157.8c0,0.7-0.2,0.9-0.5,0.3c-43.7-80.4-137-164.9-193.8-196.5h-40.7v328.7h56.3
			c0,0-2.3-253.3-2.3-253.8c0-1,0.1-1.2,0.7-1c70.9,48.9,147.8,143.4,188.3,254.8h46.2v-328.7h-56.4
			C970.3,1961.6,972.6,2157.4,972.6,2157.8"/>
		<path id="path50" class="st2" d="M2793.7,2157.8c0,0.7-0.3,0.9-0.6,0.3c-43.6-80.4-136.9-164.9-193.7-196.5h-40.9v328.7h56.3
			c0,0-2.3-253.3-2.3-253.8c0-1,0.2-1.2,0.8-1c70.9,48.9,147.8,143.4,188.2,254.8h46.4v-328.7h-56.4
			C2791.3,1961.6,2793.7,2157.4,2793.7,2157.8"/>
		<path id="path52" class="st2" d="M1488.5,2290.3h56.6c0,0,88.5-209.7,91.8-216.8c3.9,7.2,109.2,216.8,109.2,216.8h67.6
			l-175.9-335.2L1488.5,2290.3"/>
		<path id="path54" class="st2" d="M3783.9,1955.1l-149.3,335.2h56.6c0,0,88.5-209.7,91.8-216.8c4,7.2,109.2,216.8,109.2,216.8h67.7
			L3783.9,1955.1"/>
		<path id="path56" class="st2" d="M206.2,2095.3c34.7-35.9,128.5-133.7,128.5-133.7h-71.9l-136.7,143.9
			c65.7,43,120.5,102,154.3,184.8h62.8C317.3,2212.6,267.5,2141.3,206.2,2095.3"/>
		<path id="path58" class="st2" d="M3343.7,1961.6h-59.8v328.7h190v-45.6h-130.2V1961.6"/>
		<path id="path60" class="st2" d="M3672.3,1961.6h-226.7v45.6h83.5v283.1h59.8v-283.1h83.5V1961.6"/>
		<path id="path62" class="st2" d="M2176.7,2123.1c-6,11.4-14.4,33.2-20.1,48.6c-0.2,0.3-0.7,0.3-0.9,0
			c-5.5-15.1-13.9-37.1-19.8-48.3c-28.7-59.5-73.9-141.3-100.8-169.9c-15.8,29.1-78.4,281.8-91.5,336.8h60
			c0,0,47.1-215.4,47.3-216.1c0.2-0.7,0.5-1,0.8-0.5c20.6,31.7,60.5,113.3,84.6,187.4h39.7c22.1-69.4,63.7-156.2,84.1-187.8
			c0.3-0.2,0.6,0,0.6,0.5c0.2,0.5,48.1,216.7,48.1,216.7h60c-13.3-54.9-75.7-307.6-91.6-336.8
			C2249.8,1982.2,2205.4,2064,2176.7,2123.1"/>
	</g>
</g>
</svg>
