<svg id="レイヤー_1" data-name="レイヤー 1" xmlns="http://www.w3.org/2000/svg" xmlns:xlink="http://www.w3.org/1999/xlink" viewBox="0 0 190 41.51"><defs><style>.cls-1{fill:none;}.cls-2{fill:#fff;}.cls-3{fill:url(#radial-gradient);}</style><radialGradient id="radial-gradient" cx="22.4" cy="266.28" r="15.69" gradientTransform="matrix(1, 0, 0, -0.93, 0.14, 264.36)" gradientUnits="userSpaceOnUse"><stop offset="0" stop-color="#9bc4f0"/><stop offset="0.59" stop-color="#0075d2"/><stop offset="1" stop-color="#014880"/></radialGradient></defs><title>アートボード 1</title><rect class="cls-1" width="190" height="41.51"/><path class="cls-2" d="M35.39,23.79a.1.1,0,0,1-.1,0l-12.76-.76-12.76.76a.1.1,0,0,1-.1,0q.07.21.14.43c0-.07,0-.11.12-.11H35.12c.09,0,.14,0,.12.11Q35.32,24,35.39,23.79Z"/><path class="cls-2" d="M35.74,20.63c-.47,0-9.08-.4-13.2-.39s-12.73.43-13.2.39a.11.11,0,0,1-.11-.07c0,.07,0,.13,0,.2s0,.13,0,.2a.11.11,0,0,1,.11-.07c.47,0,9.08.4,13.2.39s12.73-.43,13.2-.39a.11.11,0,0,1,.11.07c0-.07,0-.13,0-.2s0-.13,0-.2A.11.11,0,0,1,35.74,20.63Z"/><path class="cls-2" d="M35.62,22.21c-.39,0-8.87-.62-13.08-.6s-12.69.58-13.08.6a.13.13,0,0,1-.14-.09q0,.22.07.43c0-.06.05-.09.13-.09s10.24.28,13,.28,12.93-.28,13-.28.13,0,.13.09q0-.22.07-.43A.13.13,0,0,1,35.62,22.21Z"/><path class="cls-2" d="M9.69,17.73a.1.1,0,0,1,.1,0l12.76.76,12.76-.76a.1.1,0,0,1,.1,0q-.07-.21-.14-.43c0,.07,0,.11-.12.11H10c-.09,0-.14,0-.12-.11Q9.76,17.51,9.69,17.73Z"/><path class="cls-2" d="M9.46,19.3c.39,0,8.87.62,13.08.6s12.69-.58,13.08-.6a.13.13,0,0,1,.14.09q0-.22-.07-.43c0,.06-.05.09-.13.09s-10.24-.28-13-.28S9.62,19,9.52,19s-.13,0-.13-.09q0,.22-.07.43A.13.13,0,0,1,9.46,19.3Z"/><path class="cls-3" d="M10,17.41H35.12c.1,0,.15-.05.12-.14-1.7-4.66-6.74-8-12.7-8s-11,3.39-12.7,8C9.81,17.36,9.86,17.41,10,17.41Zm-.62,3.22c.47,0,9.08-.4,13.2-.39s12.73.43,13.2.39c.07,0,.11,0,.11-.09a10.12,10.12,0,0,0-.09-1.12.13.13,0,0,0-.15-.12c-.39,0-8.87.62-13.08.6s-12.69-.58-13.08-.6a.13.13,0,0,0-.15.12,10.15,10.15,0,0,0-.09,1.12S9.27,20.62,9.34,20.63ZM9.52,19c.1,0,10.24-.28,13-.28s12.93.28,13,.28.14,0,.13-.12a10.14,10.14,0,0,0-.29-1.18.09.09,0,0,0-.11-.07l-12.76.76L9.79,17.68a.09.09,0,0,0-.1.07,10.19,10.19,0,0,0-.29,1.18C9.38,19,9.43,19,9.52,19Zm.33,5.2c1.7,4.66,6.74,8,12.7,8s11-3.39,12.7-8c0-.09,0-.14-.12-.14H10C9.86,24.1,9.81,24.15,9.84,24.24ZM9.23,21a10.17,10.17,0,0,0,.09,1.12.13.13,0,0,0,.15.12c.39,0,8.87-.62,13.08-.6s12.69.58,13.08.6a.13.13,0,0,0,.15-.12A10.09,10.09,0,0,0,35.86,21s0-.08-.11-.09c-.47,0-9.08.4-13.2.39s-12.73-.43-13.2-.39C9.27,20.89,9.23,20.92,9.23,21Zm.16,1.62a10.16,10.16,0,0,0,.29,1.18.09.09,0,0,0,.1.07l12.76-.76,12.76.76a.09.09,0,0,0,.11-.07,10.15,10.15,0,0,0,.29-1.18c0-.08,0-.12-.13-.12s-10.24.28-13,.28-12.93-.28-13-.28S9.38,22.51,9.39,22.59Z"/><path d="M59.63,14.71a5.93,5.93,0,0,0-5.81,6,5.82,5.82,0,1,0,11.63,0A5.93,5.93,0,0,0,59.63,14.71Zm0,10.32c-1.37,0-3.51-1-3.51-4.28s2.14-4.31,3.51-4.31,3.51,1,3.51,4.31S61,25,59.64,25Z"/><path d="M149.13,14.71a5.93,5.93,0,0,0-5.81,6,5.82,5.82,0,1,0,11.63,0A5.93,5.93,0,0,0,149.13,14.71Zm0,10.32c-1.37,0-3.51-1-3.51-4.28s2.14-4.31,3.51-4.31,3.51,1,3.51,4.31S150.5,25,149.14,25Z"/><rect x="42.78" y="14.99" width="2.19" height="11.53"/><rect x="80.27" y="14.99" width="2.19" height="11.53"/><path d="M92,16.58h.92L93,15A11.27,11.27,0,0,0,91.71,15c-4.46,0-7.33,2.37-7.33,5.79s2.87,5.79,7.33,5.79A11.13,11.13,0,0,0,93,26.47l-.1-1.54H92c-3,0-5.16-1.46-5.16-4.16S88.89,16.58,92,16.58Z"/><path d="M75.61,21.87s0,0,0,0a20.52,20.52,0,0,0-6.8-6.9H67.27V26.52h2.07s-.08-8.89-.08-8.91,0,0,0,0a19.22,19.22,0,0,1,6.52,8.94h1.83V15H75.53S75.61,21.86,75.61,21.87Z"/><path d="M139.49,21.87s0,0,0,0a20.52,20.52,0,0,0-6.81-6.9h-1.52V26.52h2.07s-.08-8.89-.08-8.91,0,0,0,0a19.2,19.2,0,0,1,6.52,8.94h1.83V15h-2.09S139.49,21.86,139.49,21.87Z"/><rect x="126.31" y="14.99" width="2.19" height="11.53"/><path d="M93.63,26.52H95.7S98.81,19.2,98.93,19c.14.25,3.83,7.57,3.83,7.57h2.47L99,14.67Z"/><path d="M174.5,14.67l-5.33,11.86h2.08s3.11-7.32,3.22-7.57c.14.25,3.83,7.57,3.83,7.57h2.47Z"/><path d="M48.7,19.68,53.21,15H50.6l-4.8,5a14,14,0,0,1,5.42,6.48h2.29A14.39,14.39,0,0,0,48.7,19.68Z"/><polygon points="158.96 14.99 156.76 14.99 156.76 26.52 163.44 26.52 163.44 24.87 158.96 24.87 158.96 14.99"/><polygon points="170.49 14.99 162.44 14.99 162.44 16.64 165.37 16.64 165.37 26.52 167.56 26.52 167.56 16.64 170.49 16.64 170.49 14.99"/><path d="M117.79,20.39c-.21.4-.51,1.32-.7,1.86a0,0,0,0,1,0,0c-.19-.53-.49-1.45-.7-1.85a29,29,0,0,0-3.63-5.79c-.56,1-2.75,10-3.22,11.91h2.2l1.66-7.67s0,0,0,0a35,35,0,0,1,3,6.66h1.39a35.24,35.24,0,0,1,3-6.62s0,0,0,0l1.67,7.63h2.2c-.46-1.93-2.66-10.88-3.22-11.91A28.75,28.75,0,0,0,117.79,20.39Z"/></svg>