<svg id="quickstart" xmlns="http://www.w3.org/2000/svg" width="725.58975" height="595.78471" viewBox="0 0 725.58975 595.78471" xmlns:xlink="http://www.w3.org/1999/xlink"><path d="M547.34925,342.91559c2.29944,30.33932,1.75085,58.68204-3.74121,83.55893l80.87653-.05652,36.59772-25.47537c-9.99897-33.57575-16.79788-39.30266-9.28433-62.66921l-104.4487,4.64217Z" fill="#ffb6b6"/><path d="M548.34925,341.30549c2.29944,19.81634-6.26238,30.32857-11.75445,46.57708l.00002-.00002c16.00906-10.2458,43.42878-9.72243,61.99812-5.66706l58.00186,12.66707c-9.99897-21.93023-11.3104-41.34713-3.79685-56.60915l-104.4487,3.03207Z" fill="#3f3d56"/><path d="M659.2458,391.50475l26.73268,66.07147c8.66573,21.41788,12.22497,44.55946,10.39576,67.59148l-5.60842,70.61702h-80.32001s-4.08127-17.29131-1.02126-16.32901c3.06001,.9623-4.04453-3.70382-.49226-7.87076s-1.23648-19.7702-1.23648-19.7702c0,0-5.12,17.87-12.56,43.96997h-88.26001c7.44-48.15997,15.38-106.04999,11.20996-110.01996-7.20996-6.86005,.25-4.74005,7.73004-11.41003,7.47998-6.65997,5.28998-11.89996,1.34998-15.78998-3.92999-3.88,1.60999-5.40002,5.10004-8.88,3.47998-3.47998,12.16998-45.56,12.16998-45.56,.06,.03998,2.98876,.2633,3.04876,.29326,2,2,14.28635,6,43,6,25,0,63.09126-16.03325,67.82124-18.42327,.62-.32001,.94-.48999,.94-.48999Z" fill="#2f2e41"/><g><path d="M84.92244,1.06474c-4.41992,0-8.01611,3.59619-8.01611,8.01611s3.59619,8.01611,8.01611,8.01611h180.25781c4.41992,0,8.01611-3.59619,8.01611-8.01611s-3.59619-8.01611-8.01611-8.01611H84.92244Z" fill="#f2f2f2"/><path d="M84.92244,160.03252c-4.41992,0-8.01611,3.59619-8.01611,8.01611s3.59619,8.01611,8.01611,8.01611h180.25781c4.41992,0,8.01611-3.59619,8.01611-8.01611s-3.59619-8.01611-8.01611-8.01611H84.92244Z" fill="#f2f2f2"/><path d="M118.98689,54.054c-4.41992,0-8.01611,3.59619-8.01611,8.01611s3.59619,8.01611,8.01611,8.01611H420.59968c4.41992,0,8.01611-3.59619,8.01611-8.01611s-3.59619-8.01611-8.01611-8.01611H118.98689Z" fill="#f2f2f2"/><path d="M118.98689,107.04326c-4.41992,0-8.01611,3.59619-8.01611,8.01611s3.59619,8.01611,8.01611,8.01611H420.59968c4.41992,0,8.01611-3.59619,8.01611-8.01611s-3.59619-8.01611-8.01611-8.01611H118.98689Z" fill="#f2f2f2"/><circle cx="38.1158" cy="9.08086" r="6" fill="#f2f2f2"/><circle cx="38.1158" cy="168.04863" r="6" fill="#f2f2f2"/><circle cx="75.1158" cy="62.07011" r="6" fill="#f2f2f2"/><circle cx="75.1158" cy="115.05937" r="6" fill="#f2f2f2"/><path d="M12.68635,15.15539l-2.42444-.26349c.23773-.80536,.35461-1.66364,.48273-2.44543,.59448-3.62885,.75562-7.30164,.43933-10.96588-.11212-1.29932-1.55511-1.9726-2.56067-1.06067L3.3827,5.17272c-1.43323,1.2998,.69342,3.41626,2.12134,2.12128,.94299-.85522,1.88599-1.71051,2.82904-2.56573,.02075,1.66376-.04242,3.32794-.2193,4.98492-.13983,1.30945-.34009,2.62366-.63464,3.90771-.06873,.29968-.13403,.65045-.28424,.93768-.42444-.04614-.84888-.09222-1.27332-.13837-1.42291-.1546-1.80048,1.67963-1.06067,2.56067,.78033,.92932,2.08197,1.07849,3.16357,.66785l4.66187,.50665c.80664,.08765,1.5-.7522,1.5-1.5,0-.88385-.69104-1.41211-1.5-1.5Zm-5.81824-.27045c-.03375,.01227-.06366,.02203-.06494,.01385-.00604-.03821,.02319-.03442,.06494-.01385Z" fill="#f2f2f2"/><path d="M13.47244,68.77452c-1.38263-.11102-2.76514-.22217-4.14777-.33319,2.59399-2.39191,4.48602-5.63434,4.82086-9.11047,.24384-2.53088-.83545-5.37323-3.25311-6.49469-2.43329-1.12872-5.38153-.21033-6.31909,2.41461-.98645,2.7619,1.70642,5.72339,4.55261,4.82355,1.83429-.57996,1.05072-3.47717-.79749-2.89288-.44507,.14075-.95294-.13824-.98187-.66248-.0307-.55695,.53607-1.05408,1.03705-1.16833,2.0542-.46851,2.88855,2.1629,2.78552,3.69263-.26544,3.94202-3.46936,7.50574-6.81378,9.26453-1.41473,.74402-.62177,2.68445,.75708,2.79523,2.78668,.22382,5.5733,.44769,8.35999,.67151,.80853,.06494,1.5-.7359,1.5-1.5,0-.8656-.68915-1.43488-1.5-1.5Z" fill="#f2f2f2"/><path d="M14.05641,113.988c1.18372-1.28986,1.49805-3.27264,.92468-4.9115-.64838-1.85327-2.32208-3.22156-4.22028-3.65729-2.05084-.47083-4.15875,.06824-5.91962,1.16174-1.63684,1.01642-.13226,3.61279,1.51416,2.59039,1.6629-1.03259,4.32648-1.54352,5.57379,.41809,.42975,.67578,.51343,1.73376-.05304,2.36414-.15137,.16846-.33221,.27899-.52228,.36127-.66455-.21155-1.37134-.32867-2.11212-.30707-1.5025,.04376-2.02075,1.99628-.75702,2.79517,.78113,.49384,1.68036,.68414,2.56458,.62006,1.49841,.78259,2.34277,2.55737,1.63696,4.32306-.92413,2.31207-3.9201,2.81549-5.66736,1.10834-1.3819-1.35022-3.50519,.76923-2.12134,2.12134,1.59729,1.56061,3.86938,2.20148,6.05408,1.75647,2.12317-.4325,3.76202-2.0069,4.54755-3.98395,.97876-2.46338,.23193-5.04517-1.44275-6.76025Z" fill="#f2f2f2"/><path d="M14.73305,167.39763c.28851-2.80383,.57697-5.6076,.86548-8.41144,.08307-.80707-.74884-1.5-1.5-1.5-.88013,0-1.41669,.69067-1.5,1.5l-.85583,8.31793c-2.78619,.02777-5.57251,.05872-8.35883,.07642-.01605,.00012-.02606-.00171-.04169-.00183l.00903-.01868,.36316-.64417c.20172-.35791,.4035-.71576,.60522-1.07367l2.66309-4.72412c.94928-1.68396-1.6413-3.19788-2.59045-1.51416-1.02887,1.82526-2.0578,3.65045-3.08667,5.47571-.50006,.88702-1.24908,1.87036-1.30243,2.91986-.05804,1.14233,.69824,2.08173,1.77032,2.41028,.86945,.26636,1.83936,.1687,2.73438,.16052l3.12201-.02856c1.26794-.0116,2.53589-.02313,3.80383-.03473-.23334,2.26801-.46674,4.53607-.70007,6.80408-.08301,.80701,.7489,1.5,1.5,1.5,.88019,0,1.41675-.69067,1.5-1.5,.23541-2.28766,.47076-4.57532,.70618-6.86298,1.40179-.28326,1.50189-2.34174,.29327-2.85046Zm-12.02582-.03668c-.13873,.01495-.11359-.08087,0,0h0Z" fill="#f2f2f2"/></g><path d="M713.23993,350.16805l-27.9354-103.39727c-2.48946-9.10712-11.82499-14.53264-20.9703-12.18735h-.00005c-9.59733,2.46122-15.16681,12.46886-12.20012,21.92221l32.31074,106.51483,16.90489,65.55001c-4.65048,3.56386-6.98379,9.68-5.43645,15.71377,2.06786,8.06349,10.28091,12.9239,18.3444,10.85604s12.9239-10.28091,10.85604-18.3444c-.75492-2.94376-2.33505-5.4536-4.42175-7.3623l-7.45199-79.26554Z" fill="#ffb6b6"/><path d="M478.16938,327.89918l84.87863-65.32229c7.46496-5.78026,8.91188-16.48048,3.25026-24.03583l-.00003-.00004c-5.94145-7.92877-17.3178-9.25192-24.92037-2.89836l-86.08791,70.55683-54.1175,40.66787c-5.07033-2.93595-11.61395-2.75535-16.59871,.98-6.6616,4.99189-8.01517,14.43888-3.02327,21.10048,4.99189,6.6616,14.43888,8.01517,21.10048,3.02327,2.43197-1.8224,4.14764-4.24162,5.11422-6.89928l70.4042-37.17265Z" fill="#ffb6b6"/><path d="M619.58139,189.72894h-39.143l-16.8098,28.76491-8.00978-.44221c-8.26863-.4565-15.88056,2.60618-21.42535,7.85329-2.77239,2.62355,.0107,9.46494-6.59086,9.34189-7.86035-.14648-17.54199,15.50488-15.00781,23.63574v44c12.56934-.46387,23.22168-20.67285,23-37,0,0-18.20464,27.03838,7.21979,42.1711,0,0-4.53469,50.51161,0,50.20514,4.53469-.30647,6.78021,2.62376,.66998,5.1592-11.0361,4.57941,3.19911,10.11631,4.55029,11.46749q1.35118,1.35118,1.3512,1.35118c14.00714-28.44403,66.97125,12.37506,110.72974,23.32806,4.9715-3.75992,6.97577-12.10449-2.02844-19.19492-8.46552-6.66623,3.2485-21.26315,6.39722-18.95181,3.0741,2.25659-12.68661-17.34188-10.36553-26.6262,2.32108-9.28433,5.8027-5.8027,2.32108-9.28433-3.48162-3.48162,14.74357-21.35836,4.04445-38.08947l8.55945,34.25168c-5.77246,1.05371-6.2168,3.07227-4.44922,7.21289,.61133,1.43164,3.86296,1.9319,3.93148,7.96595s3.79494-2.17885,1.93173,1.4276c-1.86321,3.60645,1.97761,1.11426,3.13679,1.60645,14.09375,4.58789,25.65625,.40625,36-8,.67773-1.89062,7.13056-8.67033,2.56528-6.83516s-4.46013-1.91641,.4873-2.54063-.62289-3.14765-.93929-4.87812c-.58496-3.20117-2.12207-6.43066-7.11328-4.74609-2.67285-16.80371-4.41351-41.2204-13.11035-49.46484,0-4.28223-4.72356-30.99208-10.86172-29.9959-6.13816,.99618-3.27651-3.54955-5.26408-5.14948-8.96441-7.21605-22.09901-11.90166-31.73039-11.90166h-2.05585l-21.991-26.64174Z" fill="var(--rz-secondary)"/><path d="M631.13889,172.85252c-28.38033,7.43976-57.81947,10.5126-69.84908,26.68218,0,0,14.50054-27.2351-.3814-27.11634-25.00524,.19951,2.60406-45.93518,11.90218-51.49085,15.49688-9.25941,52.15001-2.94533,52.15001-2.94533l18.33719,22.91801-12.1589,31.95233Z" fill="#2f2e41"/><circle cx="600.79803" cy="139.91091" r="40.32834" fill="#ffb6b6"/><path d="M620.13216,131.23702l-1.18336,6.88962-27.42071-4.70977c.98039-2.56945,.96522-5.53691-.28442-8.00703-.47529,2.68451-1.6234,5.23935-3.28435,7.39406-16.66085,1.96525-17.00095,4.97364-27.11604-1.49812-3.37189-.57915-5.63587-3.78211-5.05672-7.15401v-.00003c3.62815-21.12338,10.38296-41.44659,31.57662-38.25455,11.01159,1.65849,20.22072,7.73673,26.15608,16.11625,5.77238,8.18355,8.44238,18.57217,6.6129,29.22357Z" fill="#2f2e41"/><path d="M603.5668,153.80169c3.77037-21.95123-10.96821-42.80274-32.91954-46.57315-2.68917-.46195-5.36132-.64226-7.98816-.56939,3.80581-4.32391,9.08407-7.28382,15.03407-8.12524l33.28535-.52124c15.22454,2.61504,40.97695,2.78,47.44565,15.56182,5.96945,11.75317-4.96806,25.35621-.04759,37.5661,5.3924,13.38092,1.5174,24.94175-3.8167,30.30041-6.17098,6.19943-16.5398,13.8469-25.10791,12.87349,.65671-2.78716,.42051-5.76329-.88124-8.33513-.48615,2.72733-1.52538,5.35989-3.02727,7.68158l-61.6757,17.68886c5.8902-1.96461,13.60574-10.12749,20.68323-19.992,4.18935-5.83906,14.09744-4.381,11.38649-18.37321-2.71095-13.99221,6.81392-14.43569,7.62931-19.18289Z" fill="#2f2e41"/><path d="M490.1158,362.56474H237.1158c-12.68213,0-23-10.31738-23-23V158.56474c0-12.68213,10.31787-23,23-23h253c12.68213,0,23,10.31787,23,23v181c0,12.68262-10.31787,23-23,23Z" fill="#fff"/><path d="M490.1158,362.56474H237.1158c-12.68213,0-23-10.31738-23-23V158.56474c0-12.68213,10.31787-23,23-23h253c12.68213,0,23,10.31787,23,23v181c0,12.68262-10.31787,23-23,23Zm-139.13308-225c-74.48494,0-134.86692,60.38198-134.86692,134.86692v67.13308c0,11.59798,9.40202,21,21,21h253c11.59798,0,21-9.40202,21-21V158.56474c0-11.59798-9.40202-21-21-21h-139.13308Z" fill="#3f3d56"/><g><g><path d="M301.00359,296.28128h-40c-2.20557,0-4-1.79443-4-4s1.79443-4,4-4h40c2.20557,0,4,1.79443,4,4s-1.79443,4-4,4Z" fill="#ccc"/><path d="M388.00359,325.56474h-127c-2.20557,0-4-1.79443-4-4s1.79443-4,4-4h127c2.20557,0,4,1.79443,4,4s-1.79443,4-4,4Z" fill="#ccc"/></g><circle cx="407.228" cy="235.56474" r="63" fill="var(--rz-secondary)"/><path d="M394.2684,211.50096c-.83619,0-1.66909,.22959-2.41433,.68509-1.38852,.84866-2.21738,2.32667-2.21738,3.95395v38.85002c0,1.62728,.82886,3.10529,2.21738,3.95395,1.38852,.8483,3.08145,.91174,4.52975,.17054l37.91443-19.42501c1.5785-.80869,2.52105-2.35051,2.52105-4.12449s-.94255-3.3158-2.52105-4.12449l-37.91443-19.42501c-.67079-.34365-1.39439-.51455-2.11542-.51455Z" fill="#fff"/></g></svg>