<svg width="80" height="80" viewBox="0 0 80 80" fill="none" xmlns="http://www.w3.org/2000/svg">
<circle cx="40" cy="40" r="40" fill="#615CED" fill-opacity="0.2">
    <animate attributeName="fill" values ="#615CED; #FF504D; #615CED" dur="3s" repeatCount="indefinite" />
</circle>
<circle cx="40" cy="40" r="34" fill="#615CED" fill-opacity="0.2">
    <animate attributeName="fill" values ="#615CED; #FF504D; #615CED" dur="3s" repeatCount="indefinite" />
</circle>
<circle cx="40" cy="40" r="28" fill="url(#paint0_radial_992_10030)"/>
<path d="M27.0415 64.8273C28.948 65.8244 30.9835 66.6084 33.1165 67.1476C33.0926 66.2921 33.0788 65.4057 33.0788 64.5C33.0788 57.8526 33.7889 52.25 33.7889 52.25H26.4112L27.0588 64.5L27.0415 64.8273Z" fill="white"/>
<path d="M37.2983 36.3674C37.9006 35.0254 39.4467 32.2035 42.377 30.5117C46.3244 28.2327 57.4537 25.3083 57.4537 25.3083C57.4537 25.3083 49.4002 33.5318 45.2973 35.5699C42.2134 37.1018 39.0743 37.207 37.7053 37.1648L34.8503 39.4978C35.9992 39.2195 37.8232 39.0101 40.0364 39.5705C43.879 40.5435 49.8557 44.08 49.8557 44.08C49.8557 44.08 42.8207 44.7231 38.9781 43.7501C36.0409 43.0064 34.4076 41.1763 33.801 40.3553L33.117 40.9142C33.2689 46.3287 33.8229 50.5 33.8229 50.5H26.4112C26.4112 50.5 27.0588 44.8974 27.0588 38.25C27.0588 31.6026 26.4112 26 26.4112 26H33.8229C33.8229 26 33.0788 31.6026 33.0788 38.25C33.0788 38.7755 33.0835 39.2944 33.092 39.8046L37.2983 36.3674Z" fill="white"/>
<defs>
<radialGradient id="paint0_radial_992_10030" cx="0" cy="0" r="1" gradientUnits="userSpaceOnUse" gradientTransform="translate(12 88.1026) rotate(-53.7074) scale(114.016 59.8782)">
<stop offset="0.25" stop-color="#BD00FF">
    <animate attributeName="stop-color" values="#BD00FF; #FE9041; #BD00FF" dur="3s" repeatCount="indefinite" />
    <animate attributeName="offset" values=".2;.4;.2" dur="3s" repeatCount="indefinite" />   
</stop>
<stop offset="0.885417" stop-color="#534EEB">
    <animate attributeName="stop-color" values="#534EEB; #FF504D; #534EEB" dur="3s" repeatCount="indefinite" />
</stop>
</radialGradient>
</defs>
</svg>
