<svg width="71" height="66" viewBox="0 0 71 66" fill="none" xmlns="http://www.w3.org/2000/svg">
<path d="M31.5832 63.2412H13.9954L12.4321 50.2458L1.68397 42.5267C1.19542 40.2794 1 37.9344 1 35.5893C1 16.4382 16.5359 1 35.5893 1C54.7405 1 70.1786 16.5359 70.1786 35.5893C70.1786 37.9344 69.9832 40.2794 69.4947 42.5267L58.8443 50.2458L57.1832 63.2412H39.5954L38.6183 64.0229C37.7389 64.7069 36.6641 65 35.5893 65C34.5145 65 33.4397 64.6092 32.5603 64.0229L31.5832 63.2412Z" stroke="white" stroke-width="0.385945" stroke-miterlimit="40"/>
<path d="M31.5832 63.2412H13.9954L12.4321 50.2458L1.68397 42.5267C1.19542 40.2794 1 37.9344 1 35.5893C1 16.4382 16.5359 1 35.5893 1C54.7405 1 70.1786 16.5359 70.1786 35.5893C70.1786 37.9344 69.9832 40.2794 69.4947 42.5267L58.8443 50.2458L57.1832 63.2412H39.5954L38.6183 64.0229C37.7389 64.7069 36.6641 65 35.5893 65C34.5145 65 33.4397 64.6092 32.5603 64.0229L31.5832 63.2412Z" fill="#FBCE07"/>
<path fill-rule="evenodd" clip-rule="evenodd" d="M31.5832 63.2412H13.9954L12.4321 50.2458L1.68397 42.5267C1.19542 40.2794 1 37.9344 1 35.5893C1 16.4382 16.5359 1 35.5893 1C54.6428 1 70.1786 16.5359 70.1786 35.5893C70.1786 37.9344 69.9832 40.2794 69.4947 42.5267L58.8443 50.2458L57.1832 63.2412H39.5954L38.6183 64.0229C37.7389 64.7069 36.6641 65 35.5893 65C34.5145 65 33.4397 64.6092 32.5603 64.0229L31.5832 63.2412ZM32.1695 57.1832H19.3695L18.0992 46.826L7.54657 39.2046C7.25344 38.0321 7.05802 36.7618 7.05802 35.4916C7.05802 33.4397 7.44886 31.3878 8.32824 29.5313L26.9908 48.3893L8.9145 26.0137C9.59847 23.0824 11.1618 20.542 13.4092 18.4901L29.629 46.5328L15.2657 15.9496C17.1221 13.5069 19.7603 11.6504 22.6916 10.771L32.658 45.5557L25.4275 9.30534C27.6748 8.03511 30.1176 7.44886 32.658 7.44886C33.1466 7.44886 33.7328 7.44885 34.2214 7.54656L35.687 45.1649L37.1527 7.54656C37.6412 7.44885 38.2275 7.44886 38.716 7.44886C41.2565 7.44886 43.6992 8.13282 45.9466 9.30534L38.716 45.5557L48.6824 10.6733C51.6137 11.5527 54.2519 13.4092 56.1084 15.8519L41.6473 46.5328L57.8672 18.4901C60.1145 20.4443 61.6779 23.0824 62.3618 26.0137L44.2855 48.3893L62.9481 29.5313C63.8275 31.3878 64.2183 33.4397 64.2183 35.4916C64.2183 36.7618 64.0229 37.9343 63.7298 39.2046L53.1771 46.826L51.9069 57.1832H39.2046L37.2504 58.5511C36.7618 58.942 36.1756 59.0397 35.5893 59.0397C35.0031 59.0397 34.4168 58.8443 33.9282 58.5511L32.1695 57.1832Z" fill="#DD1D21"/>
</svg>
