<svg id="use-component" data-name="Layer 1" xmlns="http://www.w3.org/2000/svg" width="868.10999" height="522.45083" viewBox="0 0 868.10999 522.45083"><path d="M662.75215,261.89021a20.62705,20.62705,0,0,0,14.17966-3.76214,38.89863,38.89863,0,0,0,10.169-10.90776,70.67993,70.67993,0,0,0,9.95172-23.12446,13.55513,13.55513,0,0,0,13.20823,4.59546c7.86783-1.76638,12.58626-10.94622,11.05163-18.86253s-8.02917-14.1925-15.44055-17.36967-15.671-3.702-23.73468-3.68409c-5.31712.01184-10.736.25978-15.73061,2.08343s-9.57034,5.45827-11.34469,10.47062c-1.11242,3.14245-1.07612,6.62064-2.341,9.70489-2.29625,5.59929-8.25205,8.657-13.84156,10.977s-11.666,4.676-14.96223,9.75142c-3.72225,5.73138-2.648,13.73037,1.4539,19.19649s10.6898,8.63555,17.39407,9.96092,13.61119.99764,20.43708.66444" transform="translate(-165.94501 -188.77459)" fill="#2f2e41"/><polygon points="435.784 433.339 413.755 423.786 425.708 399.184 443.498 409.595 435.784 433.339" fill="#feb8b8"/><polygon points="517.275 307.195 495.999 350.471 458.453 426.849 419.742 408.247 462.475 308.2 462.596 295.606 462.978 256.417 517.275 307.195" fill="#2f2e41"/><polygon points="577.605 413.777 554.981 421.821 546.937 395.678 567.047 391.154 577.605 413.777" fill="#feb8b8"/><path d="M738.52225,374.80706l-68.37374-19.60718,20.10992-13.57419L743.047,358.21637l23.86969,5.72873a11.79594,11.79594,0,0,1,8.00822,16.30172v0a11.79594,11.79594,0,0,1-16.433,5.51132Z" transform="translate(-165.94501 -188.77459)" fill="#feb8b8"/><path d="M694.78317,342.12843,667.132,358.21637c-2.44015-20.11936,9.58916-55.93361,24.63466-95.01938h0a30.066,30.066,0,0,1,12.1589,28.39507Z" transform="translate(-165.94501 -188.77459)" fill="#f0f0f0"/><path d="M575.63187,382.34828l-.58131,20.63661a11.90115,11.90115,0,0,1-14.97569,11.16078h0a11.90115,11.90115,0,0,1-7.74255-16.44825L560.04668,380.84l24.13191-57.31329,16.59069,6.033Z" transform="translate(-165.94501 -188.77459)" fill="#feb8b8"/><circle cx="522.05106" cy="32.44294" r="21.61817" fill="#feb8b8"/><polygon points="521.297 77.942 496.16 65.876 508.728 37.722 529.844 41.744 521.297 77.942" fill="#feb8b8"/><path d="M671.154,368.77408l-51.28031-12.5687,10.29736-94.3924a16.60461,16.60461,0,0,1,18.01-14.73569l16.94,1.54L688.24744,259.175l8.54672,9.04947-2.60776,11.15246c2.431,22.97048.55712,42.90248-12.7978,54.73093Z" transform="translate(-165.94501 -188.77459)" fill="#f0f0f0"/><path d="M605.79676,333.079l-26.64565-7.03848,35.7233-59.16671a38.21353,38.21353,0,0,1,36.6724-18.25649h0l-13.57419,44.74458C625.4221,302.83238,614.878,316.44531,605.79676,333.079Z" transform="translate(-165.94501 -188.77459)" fill="#f0f0f0"/><path d="M683.22,495.96934l-21.27633,43.27654c-12.03073-18.55139-23.63923-36.97712-33.40255-54.86487l.38209-39.18922Z" transform="translate(-165.94501 -188.77459)" opacity="0.2"/><path d="M744.55523,582.442l-40.7226,12.066c-49.58715-80.50283-120.5924-167.25877-93.00839-225.23114l10.055-23.62916,52.2858,16.08794,3.01649,62.34076,32.17588,50.27481Z" transform="translate(-165.94501 -188.77459)" fill="#2f2e41"/><path d="M764.53669,637.17939l-36.19041-.35573a13.03585,13.03585,0,0,1-12.95044-13.03558V605.74681a4.15893,4.15893,0,0,1,5.39-3.98935c6.537,2.09576,11.889,1.39821,15.92511-2.40085,2.41943-2.27734,2.70189-2.735,5.58188-1.078l16.33931,17.84755,6.62653.42752a10.32365,10.32365,0,0,1,9.63007,9.53013v0A10.32365,10.32365,0,0,1,764.53669,637.17939Z" transform="translate(-165.94501 -188.77459)" fill="#2f2e41"/><path d="M593.1777,661.44215l-25.33894-25.842a13.03585,13.03585,0,0,1,.0602-18.37489l12.7571-12.75711a4.15893,4.15893,0,0,1,6.63223.99043c3.14046,6.10432,7.41813,9.39549,12.95841,9.5631,3.32112.10047,3.84447-.02343,4.70927,3.1847l-1.06649,24.17376,4.38336,4.988a10.32364,10.32364,0,0,1,.07068,13.5483l0,0A10.32365,10.32365,0,0,1,593.1777,661.44215Z" transform="translate(-165.94501 -188.77459)" fill="#2f2e41"/><path d="M687.12384,216.17323a25.88188,25.88188,0,0,0,12.54473,10.35289c3.67262,1.41428,8.33278,1.76567,11.0893-1.04323,1.9968-2.03474,2.39486-5.1663,2.11151-8.003-.88441-8.85443-7.53925-16.56493-15.79615-19.88257s-17.789-2.5924-26.02926.76645c-7.7747,3.16908-15.15842,9.66147-15.57668,18.04682-.21435,4.29727,1.34167,9.02909-.96515,12.661-1.73738,2.73541-5.093,3.84689-8.09863,5.05823s-6.23136,3.1228-6.84831,6.30405a7.05362,7.05362,0,0,0,2.06954,6.01324,16.3273,16.3273,0,0,0,5.55916,3.48544c4.90153,2.08718,10.29723,3.38834,15.56318,2.58144s10.358-4.01369,12.41889-8.92634c1.587-3.78315,1.2619-8.05222,1.07868-12.15067s-.12763-8.4634,2.06066-11.93359,7.26879-5.41294,10.53906-2.93581" transform="translate(-165.94501 -188.77459)" fill="#2f2e41"/><path id="bbf193c3-6405-4759-aee5-c52abd162bd5" data-name="Path 78" d="M995.99,417.60941h-234.838c-4.578,0-8.288-2.643-8.293-5.9v-51.042c.005-3.257,3.715-5.9,8.293-5.9H995.99c4.578,0,8.288,2.643,8.293,5.9v51.041C1004.279,414.96543,1000.568,417.60542,995.99,417.60941Zm-234.838-60.484c-2.747,0-4.973,1.586-4.976,3.54v51.041c0,1.954,2.229,3.538,4.976,3.54H995.99c2.747,0,4.973-1.586,4.976-3.54v-51.039c0-1.954-2.229-3.538-4.976-3.54Z" transform="translate(-165.94501 -188.77459)" fill="#e6e6e6"/><path d="M814.25,383.77459a5.00588,5.00588,0,0,0-5,5v35a5.00589,5.00589,0,0,0,5,5h179a5.00589,5.00589,0,0,0,5-5v-35a5.00588,5.00588,0,0,0-5-5Z" transform="translate(-165.94501 -188.77459)" fill="var(--rz-secondary)"/><circle cx="673.30499" cy="218" r="11" fill="#fff"/><rect x="48.80499" y="474" width="191" height="47" fill="var(--rz-secondary)"/><path d="M459.75,663.77459a5.00588,5.00588,0,0,0-5,5v37a5.00589,5.00589,0,0,0,5,5h179a5.00589,5.00589,0,0,0,5-5v-37a5.00588,5.00588,0,0,0-5-5Z" transform="translate(-165.94501 -188.77459)" fill="var(--rz-secondary)"/><path d="M715.25,665.77459a22.5,22.5,0,0,0,0,45h144a22.5,22.5,0,0,0,0-45Z" transform="translate(-165.94501 -188.77459)" fill="var(--rz-secondary)"/><circle cx="795.30499" cy="497" r="24" fill="var(--rz-secondary)"/><circle cx="795.30499" cy="497" r="11" fill="#fff"/><rect y="520.45083" width="868.10999" height="2" fill="#3f3d56"/><rect x="99.33527" y="490.5" width="89.93944" height="14" fill="#fff"/><rect x="338.33527" y="490.5" width="89.93944" height="14" fill="#fff"/><rect x="576.33527" y="492.5" width="89.93944" height="14" fill="#fff"/></svg>